<svg xmlns="http://www.w3.org/2000/svg" viewBox="0 0 236.21 134.36"><defs><style>.cls-1{fill:#59bfc2;}.cls-2{fill:#1e1e1c;}.cls-3{fill:none;}</style></defs><g id="Layer_2" data-name="Layer 2"><g id="Layer_2-2" data-name="Layer 2"><path class="cls-1" d="M72.11,118.22V133.8H64.48V111.44s9.32-.13,10.41,0A16,16,0,0,1,82.12,114a9.75,9.75,0,0,1,4.4,8.4,10.38,10.38,0,0,1-3.76,8.29,12.84,12.84,0,0,1-7.87,3.16,9.6,9.6,0,0,1-1.54,0V127.3s.63-.12,1.54-.35c2.49-.63,3.81-2.14,3.81-4.52,0-2.13-1.56-3.52-3.81-4.16a9.55,9.55,0,0,0-2.78,0"/><rect class="cls-1" x="90.11" y="111.44" width="7.63" height="22.37"/><path class="cls-1" d="M113.72,120.18h9.52v6.45a6.71,6.71,0,0,1-2.66,5.5,10.38,10.38,0,0,1-6.77,2.23,12.4,12.4,0,0,1-8.87-3.46,11.15,11.15,0,0,1-3.64-8.42,10.66,10.66,0,0,1,3.71-8.29,13.38,13.38,0,0,1,9.27-3.31h2.87v7h-2c-1.79,0-3.25.11-4.39,1.09a5.17,5.17,0,0,0-.12,7.55,6.2,6.2,0,0,0,4.27,1.39h1.47v-2.61h-2.71Z"/><rect class="cls-1" x="126.43" y="111.44" width="7.63" height="22.37"/><polygon class="cls-1" points="150.34 117.86 150.34 133.8 142.72 133.8 142.72 117.86 136.88 117.86 136.88 111.44 156.17 111.44 156.17 117.86 150.34 117.86"/><path class="cls-1" d="M168.28,122.58v5.9h-2.2v5.32h-7.62V119.58a8.11,8.11,0,0,1,2.58-6.41q2.58-2.3,7.26-2.29,4.51,0,6.67,2.07c1.44,1.38,2.16,3.52,2.16,6.4V133.8H169.5v-14a3.38,3.38,0,0,0-.35-1.81,1.47,1.47,0,0,0-1.28-.51c-1.19,0-1.79.77-1.79,2.32v2.79Z"/><polygon class="cls-1" points="181.22 111.44 188.85 111.44 188.85 124.73 188.85 127.31 191.69 127.31 192.08 127.31 192.08 133.8 190.05 133.8 181.22 133.8 181.22 125.79 181.22 111.44"/><polygon class="cls-1" points="225.55 20.03 164.9 90.55 211.7 90.55 211.98 99.79 228.59 99.79 228.59 65.81 211.7 65.81 211.7 75.4 200.55 75.4 225.55 45.51 225.55 20.03"/><polygon class="cls-1" points="80.37 20.03 19.72 90.55 66.59 90.55 66.59 99.79 83.41 99.79 83.41 65.81 66.59 65.81 66.59 75.4 55.37 75.4 80.37 45.51 80.37 20.03"/><path class="cls-1" d="M171.41,59.19A41.31,41.31,0,0,1,168,74a41.69,41.69,0,0,1-22.26,22.92,39.18,39.18,0,0,1-14.89,2.91A40.58,40.58,0,0,1,90.26,59.18c0-22.42,18.79-40.51,41.19-40.51A52.28,52.28,0,0,1,148,50c-5.43-3.69-10.69-7.59-17.65-9.28-7,2.93-11.46,5.48-14.59,7.85a45.46,45.46,0,0,0-.28,21.14q9,6.25,15.48,8.07c9.88-4.08,18.85-9.34,25.14-18.13,2.16-3,4.21-5.91,6.09-9.15,1.67-2.9,4.24-10.85,4.39-11.55a40.26,40.26,0,0,1,4.88,20.23"/><path class="cls-2" d="M90.46,35.68a2.8,2.8,0,0,1,.88-.35c.59-.2,1.47-.47,2.62-.75a56.21,56.21,0,0,1,9.9-1.53,66.33,66.33,0,0,1,6.93,0,61.71,61.71,0,0,1,7.9,1,57.43,57.43,0,0,1,17.08,6.28q2.13,1.18,4.09,2.52,1,.66,1.92,1.35l.93.7.17.13h0s0,0,0,0h0l-.1-.52c-.14-.72-.3-1.44-.46-2.14-.33-1.41-.7-2.78-1.11-4.1a60.55,60.55,0,0,0-6.06-13.34,62.64,62.64,0,0,0-5.82-8c-.75-.9-1.36-1.58-1.77-2l-.46-.54a2,2,0,0,1-.14-.2,16.44,16.44,0,0,1,2.67,2.52,54,54,0,0,1,6.13,7.92A57.91,57.91,0,0,1,142.12,38c.43,1.34.82,2.73,1.16,4.15.17.72.34,1.44.48,2.18.1.55.21,1.11.31,1.67l.19,1.09.05.28v.06l-.06,0-.1-.08-.44-.34-1.62-1.26-.91-.68q-.93-.68-1.89-1.32c-1.29-.87-2.63-1.7-4-2.47A58,58,0,0,0,118.5,35a61.73,61.73,0,0,0-7.76-1.09c-2.46-.16-4.75-.17-6.85-.1A65.25,65.25,0,0,0,94,35c-2.3.45-3.56.8-3.58.71"/><path class="cls-2" d="M126.33,74.73a4.05,4.05,0,0,1-1.3-.31c-.83-.26-2-.68-3.5-1.3a52.47,52.47,0,0,1-5.15-2.51c-1-.53-2-1.13-3-1.79-.51-.33-1-.68-1.56-1l-.79-.56c-.32-.22-.63-.46-1-.69-.08-.47-.17-.94-.25-1.42s-.13-.84-.19-1.27c-.12-.85-.23-1.73-.31-2.62-.17-1.78-.26-3.64-.26-5.54s.11-3.78.29-5.57c.09-.9.2-1.78.32-2.65.07-.42.14-.85.2-1.27s.18-1,.26-1.43l.95-.68.79-.56c.52-.36,1-.7,1.56-1,1-.66,2-1.25,3-1.78a52,52,0,0,1,5.12-2.5c1.47-.61,2.66-1,3.49-1.29a4,4,0,0,1,1.29-.31c0,.11-1.7.76-4.54,2.13-1.42.68-3.11,1.55-5,2.66-.93.55-1.9,1.15-2.89,1.82-.5.33-1,.69-1.52,1.05l-.77.56-.63.47c-.05.34-.11.69-.17,1l-.18,1.26c-.12.85-.22,1.72-.3,2.6-.17,1.77-.26,3.61-.26,5.49s.07,3.68.23,5.44c.08.88.17,1.74.28,2.58l.18,1.25c0,.35.11.7.16,1l.63.47.77.56,1.52,1.06c1,.67,2,1.28,2.91,1.83,1.86,1.12,3.56,2,5,2.68,2.85,1.37,4.6,2,4.56,2.13"/><path class="cls-2" d="M110.52,66.27c.15,0,.57,1.89,1.48,4.9a65.17,65.17,0,0,0,11.27,21.69c1.93,2.49,3.27,3.93,3.15,4a18.58,18.58,0,0,1-3.71-3.59,52.94,52.94,0,0,1-11.4-22c-.75-3.1-.91-5.07-.79-5.09"/><path class="cls-2" d="M89.73,74.69c-.11,0,.31-2.06,1.5-5.21a51.58,51.58,0,0,1,2.42-5.38A53.78,53.78,0,0,1,102,52.31a50.59,50.59,0,0,1,4.24-4.1A20.48,20.48,0,0,1,110.58,45c.1.13-1.51,1.42-3.91,3.71a68.67,68.67,0,0,0-8.44,9.77c-1.44,2.07-2.69,4.13-3.76,6s-1.91,3.69-2.57,5.21c-1.35,3-2,5-2.17,4.93"/><path class="cls-2" d="M126.75,14.09a3.9,3.9,0,0,1-.7.08l-2.06.12c-.9.09-2,.22-3.31.4l-2.1.39c-.75.13-1.52.38-2.35.58a41.25,41.25,0,0,0-11.36,5A40.9,40.9,0,0,0,93,32a41,41,0,0,0,3,51,41.61,41.61,0,0,0,22.32,12.92,38.52,38.52,0,0,0,13.64.51,39.7,39.7,0,0,0,19.68-8.7,44.25,44.25,0,0,0,12.41-16.32A42.11,42.11,0,0,0,167.6,52.6a39.55,39.55,0,0,0-1.51-8.87c-.21-.7-.43-1.39-.65-2.08s-.53-1.34-.79-2a18.7,18.7,0,0,0-.88-1.93l-.37-.78a.87.87,0,0,0-.09-.17l-.69,2.08c-.32,1-.75,1.93-1.11,2.88s-.81,1.84-1.23,2.74l-.63,1.34L159,47.08c-.89,1.72-1.92,3.29-2.89,4.83s-2.06,3-3.17,4.25-2.2,2.55-3.26,3.74L148,61.55c-.54.55-1.09,1.07-1.65,1.54l-1.63,1.43c-.54.45-1.1.86-1.63,1.28-1,.85-2.11,1.57-3.11,2.25a58.18,58.18,0,0,1-9.9,5.35c-1.19.5-2.13.8-2.76,1a6.34,6.34,0,0,1-1,.31,6,6,0,0,1,.92-.42c.61-.27,1.54-.61,2.71-1.15a61.74,61.74,0,0,0,9.72-5.5c1-.69,2-1.42,3.06-2.28.52-.42,1.07-.83,1.6-1.29l1.6-1.43c.55-.48,1.09-1,1.62-1.54l1.64-1.65c1-1.19,2.17-2.37,3.19-3.73s2.06-2.75,3.09-4.23,2-3.09,2.82-4.79l.68-1.27.61-1.32c.41-.89.86-1.78,1.2-2.72s.77-1.87,1.07-2.85l.48-1.47.34-1.05.43-1.44c.28.51.58,1,.85,1.6l.56,1.14a18.53,18.53,0,0,1,.9,2c.28.67.55,1.35.83,2s.44,1.41.67,2.13a41.08,41.08,0,0,1,1.59,9.06A43.06,43.06,0,0,1,165,71.76a45.08,45.08,0,0,1-12.66,16.71,40.73,40.73,0,0,1-20.17,8.93,39.76,39.76,0,0,1-14-.53,42.69,42.69,0,0,1-12.68-4.93A43.36,43.36,0,0,1,95.3,83.61a41.57,41.57,0,0,1-6.87-10.55,42.11,42.11,0,0,1-3.36-22.8,41.5,41.5,0,0,1,7.38-18.71,43.59,43.59,0,0,1,5.83-6.63,44.91,44.91,0,0,1,6.28-4.75,41,41,0,0,1,11.57-4.89c.84-.19,1.63-.42,2.38-.54l2.12-.35c1.32-.15,2.44-.24,3.35-.31l2.06,0a3.2,3.2,0,0,1,.71,0"/><path class="cls-2" d="M126.33,74.73c.06-.15,2,.48,5.34,1.21,1.64.37,3.62.73,5.82,1a70.51,70.51,0,0,0,7.2.54c2.57,0,5-.09,7.22-.28s4.2-.51,5.85-.82c3.31-.61,5.33-1.17,5.38-1s-1.91.92-5.23,1.71a51.93,51.93,0,0,1-5.9,1.05,58.4,58.4,0,0,1-7.33.36,57.81,57.81,0,0,1-7.32-.62,49.58,49.58,0,0,1-5.86-1.25c-3.29-.92-5.21-1.8-5.17-1.91"/><path class="cls-2" d="M83.69,8.2c.22.19-15.91,19.34-36,42.78S11.08,93.28,10.86,93.1s15.92-19.34,36-42.78S83.48,8,83.69,8.2"/><path class="cls-2" d="M77.67,0c.28,0,.51,10.6.51,23.69S78,47.37,77.67,47.37s-.5-10.6-.5-23.68S77.39,0,77.67,0"/><path class="cls-2" d="M80.48,53.64c.28,0,.5,10.89.5,24.33s-.22,24.32-.5,24.32S80,91.4,80,78s.23-24.33.51-24.33"/><path class="cls-2" d="M63.29,61.27c.28,0,.51,10.11.51,22.59s-.23,22.6-.51,22.6-.51-10.12-.51-22.6.23-22.59.51-22.59"/><path class="cls-2" d="M86.53,87.58c0,.28-19.37.51-43.26.51S0,87.86,0,87.58s19.37-.51,43.27-.51,43.26.23,43.26.51"/><path class="cls-2" d="M65.78,72.28c0,.28-4.16.51-9.29.51s-9.29-.23-9.29-.51,4.16-.51,9.29-.51,9.29.23,9.29.51"/><path class="cls-2" d="M80.46,62.45c0,.28-4.31.51-9.64.51s-9.63-.23-9.63-.51,4.31-.5,9.63-.5,9.64.22,9.64.5"/><path class="cls-2" d="M82.73,97.12c0,.28-5.41.5-12.09.5s-12.09-.22-12.09-.5,5.41-.51,12.09-.51,12.09.22,12.09.51"/><path class="cls-3" d="M45.53,79.64l33.8-39.83Z"/><path class="cls-2" d="M79.33,39.81c.21.18-7.18,9.24-16.51,20.24S45.75,79.82,45.53,79.64,52.71,70.39,62,59.39,79.11,39.63,79.33,39.81"/><path class="cls-2" d="M233.08,3.2c.21.18-16.64,20.17-37.63,44.64s-38.18,44.16-38.4,44,16.64-20.16,37.63-44.63S232.86,3,233.08,3.2"/><path class="cls-2" d="M222.76,6.31c.28,0,.51,9.19.51,20.53s-.23,20.53-.51,20.53-.5-9.19-.5-20.53.22-20.53.5-20.53"/><path class="cls-2" d="M225.57,53.64c.28,0,.51,10.89.51,24.33s-.23,24.32-.51,24.32-.51-10.89-.51-24.32.23-24.33.51-24.33"/><path class="cls-2" d="M208.38,61.27c.28,0,.51,10.11.51,22.59s-.23,22.6-.51,22.6-.51-10.12-.51-22.6.23-22.59.51-22.59"/><path class="cls-2" d="M236.21,87.58c0,.28-17.83.51-39.81.51s-39.81-.23-39.81-.51,17.82-.51,39.81-.51,39.81.23,39.81.51"/><path class="cls-2" d="M210.87,72.28c0,.28-4.16.51-9.29.51s-9.29-.23-9.29-.51,4.16-.51,9.29-.51,9.29.23,9.29.51"/><path class="cls-2" d="M225.55,62.45c0,.28-4.31.51-9.64.51s-9.63-.23-9.63-.51,4.31-.5,9.63-.5,9.64.22,9.64.5"/><path class="cls-2" d="M227.82,97.12c0,.28-5.41.5-12.09.5s-12.09-.22-12.09-.5,5.41-.51,12.09-.51,12.09.22,12.09.51"/><path class="cls-2" d="M227.25,36.52c.21.18-7.81,10-17.93,21.89s-18.48,21.41-18.7,21.23,7.81-10,17.93-21.89S227,36.34,227.25,36.52"/><path class="cls-2" d="M71.06,116.49a.94.94,0,0,1,.3-.07c.19,0,.49-.06.88-.08a6.31,6.31,0,0,1,1.46.06,7,7,0,0,1,1.86.7,4.63,4.63,0,0,1,1.82,1.74,4.43,4.43,0,0,1,.37,3,4.2,4.2,0,0,1-1.93,2.83,6.47,6.47,0,0,1-1.74.76c-.31.1-.62.15-.94.23l-.48.11c-.08,0-.12,0-.1.08,0,1.29,0,2.65,0,4.06,0,.65,0,1.3,0,2a4.89,4.89,0,0,0,.79,0c.35,0,.74,0,1.12-.09A13.32,13.32,0,0,0,79,130.47a13,13,0,0,0,3.86-3.09,10.7,10.7,0,0,0,1.75-10,9.43,9.43,0,0,0-3.26-4.43,14.25,14.25,0,0,0-5.24-2.44,16.16,16.16,0,0,0-2.37-.43c-.77,0-1.6,0-2.4,0l-4.79,0-2.35,0H63.8s0,0,0,0v5.74c0,5.81,0,11.2-.06,16l7.1,0c0-4.74.08-8.55.11-11.18,0-1.34,0-2.38.06-3.09a6.4,6.4,0,0,1,.07-1.07,6.4,6.4,0,0,1,.07,1.07c0,.71,0,1.75.06,3.09,0,2.74.07,6.72.12,11.67l-8.16,0c0-5,0-10.54-.06-16.56,0-1.48,0-3,0-4.52v-1.66c0-.09,0-.22,0-.26h1.06l2.35,0,4.8,0c.82,0,1.61,0,2.47,0a17.43,17.43,0,0,1,2.48.45,15.09,15.09,0,0,1,5.5,2.57,10.16,10.16,0,0,1,3.49,4.78,11.87,11.87,0,0,1,.38,5.69,10.48,10.48,0,0,1-2.29,5A13.49,13.49,0,0,1,79.27,131a13.66,13.66,0,0,1-4.71,1.35c-.39,0-.77.08-1.18.09l-.58,0-.38,0h-.25c-.09,0-.19,0-.16-.1,0-.83,0-1.64,0-2.44q0-2.2,0-4.23c-.13-.37.31-.33.52-.4l.47-.1c.3-.08.62-.13.91-.21a6.36,6.36,0,0,0,1.62-.68,3.79,3.79,0,0,0,1.78-2.53,4,4,0,0,0-.28-2.73,4.22,4.22,0,0,0-1.65-1.65,6.77,6.77,0,0,0-1.77-.74,7,7,0,0,0-1.41-.13c-.77,0-1.18,0-1.18,0"/><path class="cls-2" d="M96.68,109.71a12.52,12.52,0,0,1-2,.13L89.3,110c0,2.66,0,6,.09,9.65s0,7.79,0,12.11h6.91c0-3.09,0-6,0-8.57s.06-5.1.08-7.09.08-3.58.1-4.67a9.35,9.35,0,0,1,.12-1.68,7.45,7.45,0,0,1,.12,1.68c0,1.09.06,2.68.11,4.67s0,4.39.07,7.09,0,5.93,0,9.27H88.7c0-4.58,0-8.92,0-12.83s.06-7.33.09-10.13l3.43,0,2.4.06a11.2,11.2,0,0,1,2,.13"/><path class="cls-2" d="M112.67,118.45a8.56,8.56,0,0,1,.08,1.32c0,.82,0,2,.07,3.61l2.75,0c0,.93,0,1.93,0,3h-1.24c-.35,0-.72,0-1.1,0a7,7,0,0,1-2.29-.5,5.24,5.24,0,0,1-2.06-1.49,4.92,4.92,0,0,1-1.05-2.49,5.9,5.9,0,0,1,.26-2.84,5.05,5.05,0,0,1,1.86-2.37,5.78,5.78,0,0,1,3-.84c.52,0,1,0,1.56,0h1.25c0-2,0-4.12,0-6.29h-1.6c-.66,0-1.31,0-2,0a14.67,14.67,0,0,0-3.85.75,12.11,12.11,0,0,0-6.24,4.93,11.19,11.19,0,0,0,.82,12.4,12.61,12.61,0,0,0,4.86,3.73,13,13,0,0,0,5.73.95,10.07,10.07,0,0,0,5.11-1.59,7,7,0,0,0,3-3.77,7.22,7.22,0,0,0,.3-2.25c0-.76,0-1.51,0-2.22,0-1.36,0-2.63,0-3.8l-6.81-.1-1.87,0a2.69,2.69,0,0,1-.64-.06,3.2,3.2,0,0,1,.64,0l1.87-.06,7.22-.09c0,1.29,0,2.7,0,4.21,0,.71,0,1.46,0,2.22a7.22,7.22,0,0,1-3.49,6.51,10.67,10.67,0,0,1-5.4,1.73,13.7,13.7,0,0,1-6-1,13.14,13.14,0,0,1-5.15-3.92,11.86,11.86,0,0,1-.89-13.21,12.79,12.79,0,0,1,6.63-5.22,14.59,14.59,0,0,1,4-.78c.68,0,1.35,0,2,0h2.29c0,2.63,0,5.18,0,7.62h-1.9c-.52,0-1,0-1.52,0a5.29,5.29,0,0,0-2.71.72,4.41,4.41,0,0,0-1.64,2.07,5.29,5.29,0,0,0-.26,2.55,4.44,4.44,0,0,0,2.75,3.61,6.46,6.46,0,0,0,2.13.49c.36,0,.71,0,1.07,0h.82c0-.79,0-1.53,0-2.21l-2.68,0c0-1.69,0-3,.07-3.91a8.56,8.56,0,0,1,.08-1.32"/><path class="cls-2" d="M133,109.71a12.67,12.67,0,0,1-2,.13l-5.36.11c0,2.66.06,6,.09,9.65s0,7.79,0,12.11h6.91c0-3.09,0-6,.05-8.57s.06-5.1.08-7.09.08-3.58.1-4.67a9.35,9.35,0,0,1,.12-1.68,9.35,9.35,0,0,1,.12,1.68c0,1.09.06,2.68.1,4.67s.05,4.39.08,7.09,0,5.93.05,9.27H125c0-4.58,0-8.92,0-12.83s.06-7.33.08-10.13l3.44,0,2.4.06a11.33,11.33,0,0,1,2,.13"/><path class="cls-2" d="M149.3,116.13a9.11,9.11,0,0,1,1.52-.1l4.11-.08c0-1.67,0-3.68-.07-6l-18.68.1c0,1.84,0,3.75,0,5.71H142c0,5.8,0,11.15,0,16l7,0c.05-4.74.1-8.63.13-11.33,0-1.39.05-2.47.07-3.2a5.57,5.57,0,0,1,.09-1.13,7.71,7.71,0,0,1,.08,1.13c0,.73,0,1.81.08,3.2,0,2.84.07,6.92.12,11.9l-8.24,0c0-4.81,0-10.13,0-15.91h-5.84c0-2.44,0-4.83,0-7.13l19.89.09c0,2.64-.05,5-.07,6.86l-4.48-.08a9.11,9.11,0,0,1-1.52-.1"/><path class="cls-2" d="M167.23,120.85a2.39,2.39,0,0,1-.55.05l-1.74,0c0-.5,0-1.07,0-1.73a12.33,12.33,0,0,1,.05-2.07,2,2,0,0,1,.55-1.12,1.82,1.82,0,0,1,1.28-.48,1.73,1.73,0,0,1,1.4.49,2.64,2.64,0,0,1,.46,1.49c.06,2,0,4.23.07,6.67s0,4.87,0,7.57l7,0c0-3.36,0-6.9,0-10.59v-2.88a16.1,16.1,0,0,0-.18-2.87,6.36,6.36,0,0,0-2.88-4.68,9.86,9.86,0,0,0-4.53-1.19,14.92,14.92,0,0,0-4.64.44,8,8,0,0,0-3.79,2.24,7.32,7.32,0,0,0-1.82,3.83,30.38,30.38,0,0,0-.15,4.27c0,1.41,0,2.79,0,4.13q0,3.9,0,7.35l7.11.05c0-2,0-3.72,0-5.28l2.22,0c0-1.83.06-3.25.08-4.21,0-.5,0-.89,0-1.14a2.33,2.33,0,0,1,0-.39s0,.13.05.39,0,.64,0,1.14c0,1,0,2.56.08,4.53l-2.18,0c0,1.59,0,3.38.05,5.38l-8.14.05c0-2.48,0-5.13,0-7.92,0-1.34,0-2.72,0-4.13a31,31,0,0,1,.14-4.38,8.06,8.06,0,0,1,2-4.19,8.72,8.72,0,0,1,4.12-2.45,15.25,15.25,0,0,1,4.86-.47,10.4,10.4,0,0,1,4.87,1.29,6.22,6.22,0,0,1,2.22,2.25,8.78,8.78,0,0,1,1,2.93,17.73,17.73,0,0,1,.18,3c0,1,0,1.92,0,2.88,0,3.91,0,7.68,0,11.25l-8.26,0c0-5.73,0-10.75.07-14.82a2.43,2.43,0,0,0-.33-1.26,1.4,1.4,0,0,0-1.09-.37,1.49,1.49,0,0,0-1.05.35,1.76,1.76,0,0,0-.47.94,11.65,11.65,0,0,0-.11,2q0,.87,0,1.53l1.54,0a2.39,2.39,0,0,1,.55,0"/><path class="cls-2" d="M180.18,109.71a11.49,11.49,0,0,1,.11,1.66c0,1.08.05,2.65.1,4.64,0,3.88.07,9.35.13,15.72l10.15,0c0-2,0-4,0-5.77h-3.22c0-3.27,0-6.33,0-9.11,0-2.59.05-4.9.07-6.88l-5.37-.11a13.47,13.47,0,0,1-2-.12,11.14,11.14,0,0,1,2-.13l2.4,0,3.43,0c0,4.06.07,9.51.12,15.76h3.24v7.2l-11.56,0c0-3.38,0-6.52.06-9.33s.05-5.09.07-7.07.08-3.56.1-4.64a9.09,9.09,0,0,1,.12-1.66"/></g></g></svg>