<svg xmlns="http://www.w3.org/2000/svg" viewBox="0 0 182.98 37.11"><defs><style>.cls-1{fill:#59bfc2;}.cls-2{fill:#1e1e1c;}.cls-3{fill:none;}</style></defs><g id="Layer_2" data-name="Layer 2"><g id="Layer_2-2" data-name="Layer 2"><polygon class="cls-1" points="71.93 6.07 52.16 29.05 67.45 29.05 67.51 32.06 72.92 32.06 72.92 20.99 67.37 20.99 67.43 24.11 63.78 24.11 71.93 14.37 71.93 6.07"/><polygon class="cls-1" points="25.68 6.07 5.91 29.05 21.18 29.05 21.18 32.06 26.67 32.06 26.67 20.99 21.18 20.99 21.18 24.11 17.53 24.11 25.68 14.37 25.68 6.07"/><path class="cls-1" d="M54.52,18.83a13.37,13.37,0,0,1-1.12,4.81,13.55,13.55,0,0,1-7.25,7.47,12.68,12.68,0,0,1-4.86,1A13.22,13.22,0,0,1,28.07,18.83,13.39,13.39,0,0,1,41.5,5.62a17.11,17.11,0,0,1,5.38,10.22,17.62,17.62,0,0,0-5.76-3,21.75,21.75,0,0,0-4.75,2.56,14.75,14.75,0,0,0-.09,6.89,17.51,17.51,0,0,0,5,2.63c3.22-1.33,6.15-3,8.2-5.91.7-1,1.37-1.92,2-3a25.33,25.33,0,0,0,1.43-3.76,13.08,13.08,0,0,1,1.59,6.59"/><path class="cls-1" d="M84.54,19.06v13.2H78.4V13.32s7.5-.11,8.37,0a12.43,12.43,0,0,1,5.83,2.19,8.41,8.41,0,0,1,3.53,7.12,9,9,0,0,1-3,7,10.07,10.07,0,0,1-6.34,2.67,7.15,7.15,0,0,1-1.24,0V26.75s.51-.1,1.24-.3a3.68,3.68,0,0,0,3.07-3.82c0-1.81-1.26-3-3.07-3.53a7.2,7.2,0,0,0-2.23,0"/><rect class="cls-1" x="99.02" y="13.31" width="6.14" height="18.94"/><path class="cls-1" d="M118,20.72h7.67v5.46a5.81,5.81,0,0,1-2.14,4.66,8.11,8.11,0,0,1-5.45,1.89A10,10,0,0,1,108,22.67a9.22,9.22,0,0,1,3-7,10.46,10.46,0,0,1,7.46-2.81h2.31v5.89h-1.57a4.9,4.9,0,0,0-3.53.93,4.12,4.12,0,0,0-1.37,3.2,4.12,4.12,0,0,0,1.27,3.19A4.83,4.83,0,0,0,119,27.23h1.19V25H118Z"/><rect class="cls-1" x="128.26" y="13.31" width="6.14" height="18.94"/><polygon class="cls-1" points="147.51 18.75 147.51 32.26 141.37 32.26 141.37 18.75 136.67 18.75 136.67 13.31 152.19 13.31 152.19 18.75 147.51 18.75"/><path class="cls-1" d="M161.94,22.75v5h-1.76v4.51H154v-12a7,7,0,0,1,2.08-5.43A8.23,8.23,0,0,1,162,12.84q3.63,0,5.37,1.76T169.07,20V32.26h-6.14V20.39a3,3,0,0,0-.29-1.54,1.16,1.16,0,0,0-1-.43c-1,0-1.43.66-1.43,2v2.36Z"/><polygon class="cls-1" points="172.36 13.31 178.5 13.31 178.5 24.57 178.5 26.76 180.78 26.76 181.1 26.76 181.1 32.26 179.47 32.26 172.36 32.26 172.36 25.47 172.36 13.31"/><path class="cls-2" d="M28.81,11.36l.28-.11c.19-.06.47-.15.84-.24a18.22,18.22,0,0,1,3.15-.48,18.55,18.55,0,0,1,10.17,2.31c.45.25.88.52,1.3.8l.61.44.35.26h0l0-.17c0-.23-.09-.46-.14-.68-.11-.45-.23-.89-.36-1.31a18.75,18.75,0,0,0-1.93-4.25A19,19,0,0,0,41.2,5.37l-.56-.65a1.2,1.2,0,0,1-.19-.23,5.29,5.29,0,0,1,.85.8,17.76,17.76,0,0,1,2,2.52,19,19,0,0,1,2,4.28c.13.43.26.87.37,1.33l.15.69.1.53c0,.2.17.62-.11.31L45,14.33l-.6-.42c-.41-.27-.84-.54-1.28-.79a19,19,0,0,0-10-2.36,20.13,20.13,0,0,0-3.13.38c-.74.14-1.14.25-1.15.22"/><path class="cls-2" d="M40.24,23.8s-.15,0-.42-.09-.64-.22-1.11-.42a17.29,17.29,0,0,1-3.64-2.1,17.71,17.71,0,0,1-.32-3.45,17.12,17.12,0,0,1,.34-3.48,17.14,17.14,0,0,1,3.63-2.09c.47-.19.84-.33,1.11-.41s.4-.12.41-.1-.54.24-1.45.68a20.35,20.35,0,0,0-3.43,2.09,20.18,20.18,0,0,0-.29,3.31A18.9,18.9,0,0,0,35.34,21a19.54,19.54,0,0,0,3.45,2.1c.91.44,1.46.65,1.45.68"/><path class="cls-2" d="M35.2,21.11a14,14,0,0,1,.47,1.56,21.66,21.66,0,0,0,1.47,3.62,22.53,22.53,0,0,0,2.12,3.29,14.73,14.73,0,0,1,1,1.28,5.42,5.42,0,0,1-1.18-1.14,16.51,16.51,0,0,1-2.23-3.28,16.82,16.82,0,0,1-1.41-3.71,6.08,6.08,0,0,1-.25-1.62"/><path class="cls-2" d="M28.58,23.79a6.12,6.12,0,0,1,.48-1.66,17.31,17.31,0,0,1,2-3.68,16.92,16.92,0,0,1,2.79-3.09,6.62,6.62,0,0,1,1.4-1A13.88,13.88,0,0,1,34,15.53a20.6,20.6,0,0,0-2.69,3.11,21.53,21.53,0,0,0-2,3.58,16.68,16.68,0,0,1-.69,1.57"/><path class="cls-2" d="M40.37,4.49l-.88.06A13.5,13.5,0,0,0,37,5a13.22,13.22,0,0,0-7.39,5.19A13,13,0,0,0,27.36,16a13.07,13.07,0,0,0,6.38,13,13.52,13.52,0,0,0,3.95,1.53,9.64,9.64,0,0,0,2.15.24,7.93,7.93,0,0,0,1.09,0l1.1-.11a12.65,12.65,0,0,0,6.26-2.77,13.84,13.84,0,0,0,3.94-5.2,13.46,13.46,0,0,0,1.15-6c-.05-.49-.11-1-.17-1.44a10.28,10.28,0,0,0-.33-1.38l-.19-.67-.27-.63c-.17-.36-.43-1-.41-.91l-.21.66c-.11.31-.24.61-.36.91A15.89,15.89,0,0,1,50.63,15a17.5,17.5,0,0,1-1.93,2.89,18.52,18.52,0,0,1-4.13,3.79,18.34,18.34,0,0,1-3.15,1.7c-.76.3-1.18.43-1.18.43a1.38,1.38,0,0,1,.29-.14c.2-.08.49-.19.86-.36a20.09,20.09,0,0,0,3.1-1.75,19.39,19.39,0,0,0,4-3.8,18.74,18.74,0,0,0,1.88-2.87,16.42,16.42,0,0,0,.79-1.69c.11-.3.25-.59.35-.91l.15-.47.11-.34L52,11a15.62,15.62,0,0,1,.71,1.5l.29.64.19.68a11.17,11.17,0,0,1,.35,1.41l.18,1.47a13.78,13.78,0,0,1-1.15,6.11,14.37,14.37,0,0,1-4,5.33A13.07,13.07,0,0,1,42.08,31L41,31.12a7,7,0,0,1-1.12,0,9.6,9.6,0,0,1-2.21-.25,13.86,13.86,0,0,1-4-1.57A13.29,13.29,0,0,1,27.1,16a13.35,13.35,0,0,1,6.21-9.58,13.09,13.09,0,0,1,6.18-1.94h.88"/><path class="cls-2" d="M40.24,23.8c0-.05.65.16,1.7.39a21.57,21.57,0,0,0,4.15.49,21.62,21.62,0,0,0,4.16-.34A17.06,17.06,0,0,1,52,24a5.87,5.87,0,0,1-1.66.55,18,18,0,0,1-4.22.45,17.18,17.18,0,0,1-4.19-.6,6.14,6.14,0,0,1-1.65-.61"/><path class="cls-2" d="M26.66,2.61c.07.06-5.07,6.16-11.48,13.63S3.53,29.71,3.46,29.65,8.53,23.49,14.94,16,26.59,2.55,26.66,2.61"/><path class="cls-2" d="M24.74,0c.09,0,.16,3.38.16,7.54s-.07,7.55-.16,7.55-.16-3.38-.16-7.55S24.65,0,24.74,0"/><path class="cls-2" d="M25.63,17.09c.09,0,.17,3.46.17,7.74s-.08,7.75-.17,7.75-.16-3.47-.16-7.75.07-7.74.16-7.74"/><path class="cls-2" d="M20.16,19.51c.09,0,.16,3.23.16,7.2s-.07,7.2-.16,7.2S20,30.69,20,26.71s.07-7.2.16-7.2"/><path class="cls-2" d="M27.56,27.9c0,.09-6.17.16-13.78.16S0,28,0,27.9s6.17-.17,13.78-.17,13.78.08,13.78.17"/><path class="cls-2" d="M21,23a13.66,13.66,0,0,1-3,.16A13.61,13.61,0,0,1,15,23,13.61,13.61,0,0,1,18,22.86,13.66,13.66,0,0,1,21,23"/><path class="cls-2" d="M25.63,19.89a14.77,14.77,0,0,1-3.07.16,14.7,14.7,0,0,1-3.07-.16,14.7,14.7,0,0,1,3.07-.16,14.77,14.77,0,0,1,3.07.16"/><path class="cls-2" d="M26.35,30.93a23.05,23.05,0,0,1-3.85.16,23.05,23.05,0,0,1-3.85-.16,23.05,23.05,0,0,1,3.85-.16,23.05,23.05,0,0,1,3.85.16"/><path class="cls-3" d="M14.5,25.37,25.27,12.68Z"/><path class="cls-2" d="M25.27,12.68c.07.06-2.29,2.94-5.26,6.45s-5.44,6.29-5.51,6.24,2.29-2.95,5.26-6.45,5.44-6.3,5.51-6.24"/><path class="cls-2" d="M74.24,1c.07.06-5.3,6.42-12,14.22S50.09,29.3,50,29.24,55.32,22.82,62,15,74.17,1,74.24,1"/><path class="cls-2" d="M71,2c.08,0,.16,2.93.16,6.54S71,15.09,71,15.09a64.41,64.41,0,0,1-.17-6.54A64.41,64.41,0,0,1,71,2"/><path class="cls-2" d="M104.16,6.6c.09,0,.17,6.83.17,15.26s-.08,15.25-.17,15.25S104,30.28,104,21.86s.08-15.26.16-15.26"/><path class="cls-2" d="M127.37,6.87c.09,0,.16,6.06.16,13.54S127.46,34,127.37,34s-.16-6.06-.16-13.55.07-13.54.16-13.54"/><path class="cls-2" d="M133.42,9.58c.09,0,.16,6.06.16,13.55s-.07,13.55-.16,13.55-.16-6.07-.16-13.55.07-13.55.16-13.55"/><path class="cls-2" d="M135.56,30.93a46,46,0,0,1-5.44.16,46,46,0,0,1-5.44-.16,46,46,0,0,1,5.44-.16,46,46,0,0,1,5.44.16"/><path class="cls-2" d="M140.45,15c.09,0,.16,4.42.16,9.88s-.07,9.87-.16,9.87-.16-4.42-.16-9.87.07-9.88.16-9.88"/><path class="cls-2" d="M153.13,19.65c.09,0,.16,3.7.16,8.26s-.07,8.25-.16,8.25-.17-3.69-.17-8.25.08-8.26.17-8.26"/><path class="cls-2" d="M171.43,7.75c.09,0,.16,5.73.16,12.8s-.07,12.8-.16,12.8-.16-5.73-.16-12.8.07-12.8.16-12.8"/><path class="cls-2" d="M183,30.93c0,.09-3.12.16-7,.16s-7-.07-7-.16,3.12-.16,7-.16,7,.07,7,.16"/><path class="cls-2" d="M159.28,24.77a33.38,33.38,0,0,1,.14,4.62,32.14,32.14,0,0,1-.19,4.63,32.65,32.65,0,0,1-.13-4.63,33,33,0,0,1,.18-4.62"/><path class="cls-2" d="M152,30.93a33.2,33.2,0,0,1,4.62-.16,33.29,33.29,0,0,1,4.63.16,33.29,33.29,0,0,1-4.63.16,33.2,33.2,0,0,1-4.62-.16"/><path class="cls-2" d="M146.57,15.37c.09,0,.17,4.07.17,9.1s-.08,9.09-.17,9.09-.16-4.07-.16-9.09.08-9.1.16-9.1"/><path class="cls-2" d="M119.86,9A35.76,35.76,0,0,1,120,13.9a35.76,35.76,0,0,1-.17,4.87,39,39,0,0,1-.16-4.87A39,39,0,0,1,119.86,9"/><path class="cls-2" d="M98.13,7c.09,0,.16,6,.16,13.46s-.07,13.47-.16,13.47S98,27.9,98,20.46,98,7,98.13,7"/><path class="cls-2" d="M77.47,8.44c.09,0,.16,6,.16,13.47s-.07,13.47-.16,13.47-.16-6-.16-13.47.07-13.47.16-13.47"/><path class="cls-2" d="M96.88,11.93a32,32,0,0,1,4.54-.16,32,32,0,0,1,4.54.16,32,32,0,0,1-4.54.16,32,32,0,0,1-4.54-.16"/><path class="cls-2" d="M125.1,11.93a32,32,0,0,1,4.54-.16,32.22,32.22,0,0,1,4.55.16,32.22,32.22,0,0,1-4.55.16,32,32,0,0,1-4.54-.16"/><path class="cls-2" d="M96.23,30.93a32,32,0,0,1,4.54-.16,32.22,32.22,0,0,1,4.55.16,32.22,32.22,0,0,1-4.55.16,32,32,0,0,1-4.54-.16"/><path class="cls-2" d="M71.85,17.09c.09,0,.16,3.46.16,7.74s-.07,7.75-.16,7.75-.16-3.47-.16-7.75.07-7.74.16-7.74"/><path class="cls-2" d="M66.37,19.51c.09,0,.17,3.23.17,7.2s-.08,7.2-.17,7.2-.16-3.22-.16-7.2.07-7.2.16-7.2"/><path class="cls-2" d="M75.24,27.9c0,.09-5.68.16-12.68.16S49.88,28,49.88,27.9s5.67-.17,12.68-.17,12.68.08,12.68.17"/><path class="cls-2" d="M67.17,23a13.74,13.74,0,0,1-3,.16,13.66,13.66,0,0,1-3-.16,13.66,13.66,0,0,1,3-.16,13.74,13.74,0,0,1,3,.16"/><path class="cls-2" d="M71.84,19.89a14.7,14.7,0,0,1-3.07.16,14.77,14.77,0,0,1-3.07-.16,14.77,14.77,0,0,1,3.07-.16,14.7,14.7,0,0,1,3.07.16"/><path class="cls-2" d="M72.56,30.93a23.05,23.05,0,0,1-3.85.16,23.15,23.15,0,0,1-3.85-.16,23.15,23.15,0,0,1,3.85-.16,23.05,23.05,0,0,1,3.85.16"/><path class="cls-2" d="M72.38,11.63c.07.06-2.48,3.18-5.71,7s-5.88,6.82-6,6.77,2.49-3.18,5.71-7,5.89-6.82,5.95-6.76"/><path class="cls-2" d="M77.47,30.93l.41,0,1.2,0,4.44,0c0-1.7,0-3.72,0-6,0-1.16,0-2.38,0-3.67,0-.65,0-1.31,0-2V17.71s0-.09,0-.12h.12l.33,0,.26,0A4.82,4.82,0,0,1,88.25,19a3.36,3.36,0,0,1,.82,2.2,4.22,4.22,0,0,1-.61,2.33,4,4,0,0,1-2,1.5,10.21,10.21,0,0,1-1.2.34l-.52.12h0v5.25a10.17,10.17,0,0,0,7.12-2.43A8.82,8.82,0,0,0,95,22.11,8.71,8.71,0,0,0,93.35,16a10.06,10.06,0,0,0-4.6-3.21,14.76,14.76,0,0,0-2.41-.62A13.19,13.19,0,0,0,84.12,12l-3.59,0H78.26l-.79,0,.79,0,2.27,0,3.59,0a13.49,13.49,0,0,1,2.25.1,14,14,0,0,1,2.45.62,10.28,10.28,0,0,1,4.75,3.25,9,9,0,0,1,1.75,6.32,9.35,9.35,0,0,1-.9,3.5,9.11,9.11,0,0,1-2.33,3,10.4,10.4,0,0,1-7.37,2.51h-.16s-.14,0-.12-.05V28.5c0-.84,0-1.68,0-2.52V25.5c0-.09-.06-.25.08-.24l.69-.16a8.62,8.62,0,0,0,1.16-.33A3.74,3.74,0,0,0,88.2,23.4,3.63,3.63,0,0,0,88,19.23a4.33,4.33,0,0,0-1.77-1.17,4.16,4.16,0,0,0-2-.25l-.45,0s0,0,0,.07v.26c0,.34,0,.68,0,1v2c0,1.29,0,2.51,0,3.67,0,2.36,0,4.43,0,6.18l-4.62,0-1.2,0-.41,0"/><path class="cls-2" d="M121.49,11.5l-.88,0-2.51,0a13.32,13.32,0,0,0-3.91.49,10,10,0,0,0-4.38,2.7,9,9,0,0,0-2.53,5.62,9.87,9.87,0,0,0,8.51,10.77,9.64,9.64,0,0,0,4.16-.33,7.3,7.3,0,0,0,3.5-2.4,5.41,5.41,0,0,0,1-2.22,11.48,11.48,0,0,0,.14-2.41V19.54h-7.36c0,1.61,0,2.83,0,4h2.18c0,.84,0,1.67,0,2.47H118.3c-.32,0-.65,0-1,0a5.14,5.14,0,0,1-1.8-.52,4,4,0,0,1-2.1-2.64,5.15,5.15,0,0,1,.16-3,4,4,0,0,1,1.6-1.94,4.51,4.51,0,0,1,2-.53c.59,0,1.08,0,1.49,0l.91,0,.31,0a1,1,0,0,1-.31,0l-.91,0c-.41,0-.9,0-1.48.06a4.23,4.23,0,0,0-1.89.54,3.85,3.85,0,0,0-1.51,1.88,5,5,0,0,0-.12,2.86,3.81,3.81,0,0,0,2,2.48,4.94,4.94,0,0,0,1.72.48c.31,0,.62,0,.94,0h.85V23.82H117c0-1.35,0-2.74,0-4.59h8v4.56a12.25,12.25,0,0,1-.14,2.47,5.67,5.67,0,0,1-1.08,2.35,7.73,7.73,0,0,1-3.66,2.52,10.16,10.16,0,0,1-13-10.77,9.28,9.28,0,0,1,2.63-5.76,10.15,10.15,0,0,1,4.5-2.71,12.86,12.86,0,0,1,4-.44l2.51,0,.88,0"/><path class="cls-2" d="M146.57,17.41l.32,0,.91,0,3.39,0c0-1.44,0-3.21,0-5.24l-15.25,0v5.12h4.71c0,4.9,0,9.44,0,13.54l5.86,0c0-4.07,0-7.4.05-9.72,0-1.18,0-2.1,0-2.72,0-.31,0-.55,0-.71s0-.25,0-.25a.72.72,0,0,1,0,.25c0,.16,0,.4,0,.71,0,.62,0,1.54,0,2.72,0,2.38,0,5.8,0,10l-6.4,0c0-4.08,0-8.62,0-13.5h-4.71V11.82l15.8,0c0,2.18,0,4.08,0,5.63l-3.55,0-.91,0a1.34,1.34,0,0,1-.32,0"/><path class="cls-2" d="M161,21.41a3.82,3.82,0,0,1-.45,0l-1.36,0c0-.4,0-.87,0-1.39a11.53,11.53,0,0,1,.05-1.73,1.8,1.8,0,0,1,.41-.93,1.39,1.39,0,0,1,1-.4,1.26,1.26,0,0,1,1.1.43,2.61,2.61,0,0,1,.32,1.22c0,3.33,0,7.45,0,12.15H168c0-2.85,0-5.86,0-9V19.4a17.75,17.75,0,0,0-.11-2.42,5.78,5.78,0,0,0-2.25-4.16,7.31,7.31,0,0,0-3.81-1.13,11.39,11.39,0,0,0-3.92.4,6.4,6.4,0,0,0-3.14,2.05,6.57,6.57,0,0,0-1.38,3.36,33.44,33.44,0,0,0-.1,3.6v3.46c0,2.2,0,4.29,0,6.25l5.89,0c0-1.68,0-3.18,0-4.51H161c0-1.57,0-2.79,0-3.63,0-.42,0-.74,0-1s0-.33,0-.33,0,.11,0,.33,0,.54,0,1c0,.87,0,2.14,0,3.78h-1.76c0,1.34,0,2.85,0,4.55l-6.35,0c0-2,0-4.21,0-6.5,0-1.13,0-2.28,0-3.46a34.48,34.48,0,0,1,.09-3.64,6.9,6.9,0,0,1,1.44-3.52,6.69,6.69,0,0,1,3.29-2.15,11.84,11.84,0,0,1,4-.43,7.67,7.67,0,0,1,4,1.19,6.09,6.09,0,0,1,2.39,4.38,18.71,18.71,0,0,1,.11,2.47v2.41c0,3.22,0,6.33,0,9.27h-6.43c0-4.8,0-9,0-12.41a2.26,2.26,0,0,0-.27-1.12,1.08,1.08,0,0,0-1-.37,1.21,1.21,0,0,0-.91.34,1.73,1.73,0,0,0-.38.85,11.19,11.19,0,0,0-.07,1.7c0,.49,0,.93,0,1.31l1.28,0,.45,0"/><path class="cls-2" d="M180.17,30.93a1.82,1.82,0,0,1,0-.37c0-.25,0-.62,0-1.09,0-.93,0-2.27-.05-3.95l-2.62,0c0-3.64,0-8.29,0-13.41h-5.82c0,5.34,0,10-.06,13.37,0,1.7,0,3.05,0,4,0,.47,0,.83,0,1.07a1.7,1.7,0,0,1,0,.37,1.7,1.7,0,0,1,0-.37c0-.24,0-.6,0-1.07,0-.94,0-2.29,0-4,0-3.43,0-8.22-.06-13.69h6.46c0,5.14,0,9.82,0,13.49l2.59,0c0,1.76,0,3.17-.05,4.15,0,.47,0,.84,0,1.09a1.82,1.82,0,0,1,0,.37"/></g></g></svg>