<svg xmlns="http://www.w3.org/2000/svg" viewBox="0 0 246.15 70.29"><defs><style>.cls-1{fill:#1e1e1c;}</style></defs><g id="Layer_2" data-name="Layer 2"><g id="Layer_2-2" data-name="Layer 2"><path class="cls-1" d="M8,52.14a13.43,13.43,0,0,0,4.4-2.49,33.44,33.44,0,0,0,5.13-5.34,78.07,78.07,0,0,0,5.06-7.4c3.3-5.41,5.89-10.48,7.94-14a33.63,33.63,0,0,1,2.59-4c.68-.87,1.2-1.16,1.16-1.32s-.21-.09-.53,0a4.05,4.05,0,0,0-1.22.71,18.88,18.88,0,0,0-3.3,3.77c-2.44,3.39-5.24,8.37-8.5,13.7s-6.46,10-9.35,12.73a18.07,18.07,0,0,1-3.71,2.86c-1,.54-1.58.76-1.55.92s.71.2,1.88-.14"/><path class="cls-1" d="M44,32.88c.24-.11.49-.19.72-.31l.73-.37A14.13,14.13,0,0,0,47,31.34l.38-.23.36-.28.74-.55c.24-.2.47-.43.71-.64a7.49,7.49,0,0,0,.69-.69c.23-.25.45-.51.67-.76s.41-.56.61-.85.21-.28.3-.43l.25-.47c.09-.16.18-.32.26-.48l.13-.24.11-.25A13.17,13.17,0,0,0,53.26,21a17,17,0,0,0-2.54-9.51A23.87,23.87,0,0,0,43.3,3.68,22.5,22.5,0,0,0,32.27,0,29,29,0,0,0,20.86,1.81,38,38,0,0,0,4.45,13.49a26.49,26.49,0,0,0-2.51,3.63A15.39,15.39,0,0,0,.39,21a11,11,0,0,0,.42,7.09A8.25,8.25,0,0,0,2.47,30.5,9.19,9.19,0,0,0,4.39,32a8.36,8.36,0,0,0,3.16,1.1c.76.08,1.16,0,1.16-.06s-.38-.16-1.07-.37a9.77,9.77,0,0,1-2.78-1.38,8.25,8.25,0,0,1-2.92-3.74,9.8,9.8,0,0,1-.06-6.22A14.06,14.06,0,0,1,3.39,18a25.94,25.94,0,0,1,2.45-3.32,37.22,37.22,0,0,1,6.78-6.17,36.82,36.82,0,0,1,9-4.66,27.5,27.5,0,0,1,10.57-1.6,20.55,20.55,0,0,1,10,3.25A22.23,22.23,0,0,1,49,12.55,15.23,15.23,0,0,1,51.45,21a11.56,11.56,0,0,1-.83,3.85l-.08.23-.11.21-.21.42-.21.41a3.22,3.22,0,0,1-.25.39c-.17.26-.33.52-.5.76l-.56.7a6.06,6.06,0,0,1-.6.64c-.21.2-.4.41-.62.6l-.65.54-.32.26-.33.24c-.45.3-.88.62-1.33.86l-.66.38-.66.33a25.72,25.72,0,0,1-4.69,1.74c-.67.2-1.27.32-1.8.45l-.72.17-.6.12c-.73.15-1.11.27-1.1.34s.4.11,1.15.1l.63,0,.75-.07c.54-.06,1.17-.12,1.87-.26a23,23,0,0,0,5-1.46"/><path class="cls-1" d="M33.62,46.65a7.63,7.63,0,0,0-.37-1.08l-.42-1-.49-.92a8.78,8.78,0,0,0-.53-.85L31.27,42q-.56-.7-1.08-1.29a21.12,21.12,0,0,0-1.9-1.9c-1.11-1-1.82-1.4-1.91-1.29s.4.75,1.29,1.87c.44.56,1,1.25,1.56,2.08.29.41.6.86.9,1.33l.43.75a6.54,6.54,0,0,1,.41.79l.38.86c.1.3.21.61.32.92a7.55,7.55,0,0,1,.26,1,8.16,8.16,0,0,1,.21,1,14.65,14.65,0,0,1,0,4.54,15.14,15.14,0,0,1-1.5,4.76c-.21.38-.43.76-.66,1.13s-.49.73-.77,1.06-.56.69-.89,1l-.49.46c-.16.15-.36.29-.54.44a17.34,17.34,0,0,1-9.54,3.94,16.48,16.48,0,0,1-8.37-1.53,12.7,12.7,0,0,1-4.58-3.54C4,59.3,3.74,58.52,3.56,58.57s-.16.91.57,2.27A11.69,11.69,0,0,0,8.7,65.28a16.05,16.05,0,0,0,4.12,1.66,17.06,17.06,0,0,0,5.09.52A18.61,18.61,0,0,0,28.7,63.21c.2-.17.41-.31.6-.5l.58-.55A10.57,10.57,0,0,0,30.94,61a15.29,15.29,0,0,0,.9-1.26q.39-.66.75-1.32a16.57,16.57,0,0,0,1.58-5.48,15.78,15.78,0,0,0-.25-5.13,10.18,10.18,0,0,0-.3-1.15"/><path class="cls-1" d="M64.06,42.55h0"/><path class="cls-1" d="M116.56,49.26c-1.45,0-3.56,0-6.13-.26-1.29-.12-2.68-.31-4.19-.56a20,20,0,0,0-5.09-.38,9.82,9.82,0,0,0-2.79.75c-.87.34-1.7.73-2.53,1a6.62,6.62,0,0,1-1.22.31,2.12,2.12,0,0,1-1,0c-.21-.08-.25-.12-.33-.38a2.78,2.78,0,0,1,.07-1.08,3.24,3.24,0,0,1,.13-.49l0-.12a.41.41,0,0,1,0-.07l.1-.21c.16-.31.35-.65.54-1a4.84,4.84,0,0,0,.31-.64l0-.08a.63.63,0,0,1,0-.12v-.08a.37.37,0,0,1,0-.08,1003807384143.24,1003807384143.24,0,0,0,0-.24,1.15,1.15,0,0,0-.08-.23,1,1,0,0,0-.5-.46,1.12,1.12,0,0,0-.31,0,.88.88,0,0,0-.21,0,.85.85,0,0,0-.17.06l-.08,0,0,0-.06,0-.15.11a1.22,1.22,0,0,0-.16.14.94.94,0,0,0-.1.1l-.08.09-.72.87L90.48,48A10.74,10.74,0,0,1,89.1,49.4a2.65,2.65,0,0,1-1.37.69,1.16,1.16,0,0,1-.56-.09,1.39,1.39,0,0,1-.48-.41,3.21,3.21,0,0,1-.61-1.38,3.36,3.36,0,0,1,0-1.48,4.17,4.17,0,0,1,.6-1.34,4.71,4.71,0,0,1,.81-.91,4.42,4.42,0,0,0,.55-.44A9.11,9.11,0,0,1,90,42.94a8.28,8.28,0,0,1,2.14-.63,3.48,3.48,0,0,1,1.6.13,1,1,0,0,1,.52.46.68.68,0,0,1,0,.43c0,.12,0,.21,0,.21s.08,0,.16-.12.1-.13.15-.22a.6.6,0,0,0,.09-.36,1.45,1.45,0,0,0-.67-1,3.74,3.74,0,0,0-1.92-.44,8,8,0,0,0-2.47.46,9.71,9.71,0,0,0-2.73,1.4,6.23,6.23,0,0,0-1.32,1.3,7.67,7.67,0,0,1-1,.16,5,5,0,0,1-.87,0,2.68,2.68,0,0,1-.84-.28,6.17,6.17,0,0,1-.61-.39,1.72,1.72,0,0,0,.23-.32,1,1,0,0,0,.06-.61,2.07,2.07,0,0,0-.66-1.07l-.24-.22-.18-.14a3.22,3.22,0,0,0-.36-.24,3.91,3.91,0,0,0-.79-.41L80,41a1.37,1.37,0,0,0-.45,0l-.21.06a.84.84,0,0,0-.28.18.58.58,0,0,0-.11.15.56.56,0,0,0,0,.08l0,0h0l0,.09a1.35,1.35,0,0,0-.06.35A1.76,1.76,0,0,0,79.16,43a2,2,0,0,0,.28.35l.25.26.36.32-.23.21c-.34.31-.66.64-1,1-.66.66-1.31,1.33-2,2a17,17,0,0,1-2.19,1.79,5.53,5.53,0,0,1-2.45,1,1.37,1.37,0,0,1-1.57-1,3.48,3.48,0,0,1-.21-1.28,5.65,5.65,0,0,1,0-.71c0-.14.05-.28.08-.43.32-.35.64-.71,1-1.09a63,63,0,0,0,4.55-6,11.26,11.26,0,0,0,1.54-2.73c-.18-.11-2.84,3.84-6.65,8.3l0,0c.46-1.83,1-3.69,1.55-5.56A69.27,69.27,0,0,1,75.19,32a49,49,0,0,1,3.37-6.42A15.33,15.33,0,0,1,82.81,21l.36-.24s.09-.07.14-.07.08.06.1.11,0,.05,0,.08v.11a7,7,0,0,1,0,1.29,11.55,11.55,0,0,1-.23,1.26A34,34,0,0,1,81.76,28c-.5,1.31-1,2.42-1.4,3.33-.81,1.81-1.28,2.82-1.15,2.9s.82-.8,1.87-2.53c.52-.86,1.13-1.94,1.75-3.24a29.16,29.16,0,0,0,1.77-4.6c.07-.22.12-.45.18-.68a5.53,5.53,0,0,0,.15-.75A8,8,0,0,0,85,20.86c0-.05,0-.19,0-.29a3.11,3.11,0,0,0,0-.32,3.05,3.05,0,0,0-.17-.61,1.36,1.36,0,0,0-.78-.83,1,1,0,0,0-.57,0l-.61.24a6.39,6.39,0,0,0-.6.26l-.38.23a16.8,16.8,0,0,0-4.92,5,56.19,56.19,0,0,0-6.48,14.21c-.73,2.34-1.34,4.66-1.85,6.92-.06.26-.14.61-.18.93a5.49,5.49,0,0,0-.06,1v.13a30.66,30.66,0,0,1-2.66,2.51,8.47,8.47,0,0,1-1.86,1.21,1.31,1.31,0,0,1-.53-.16.85.85,0,0,1-.48-.5A7.56,7.56,0,0,1,63,47.52c.12-.73.29-1.53.49-2.39.11-.43.21-.88.32-1.34s.2-.78.3-1.24L64,42.49h0l.11.07c0-.08,0-.16,0-.24l0-.13v-.32s0-.07,0-.1l-.06-.2c0-.05,0,0-.07-.14a1,1,0,0,0-.43-.37.92.92,0,0,0-.51-.08.8.8,0,0,0-.21.05,1,1,0,0,0-.36.21l-.11.13,0,.06,0,0,0,.05-.06.1c-.06.14-.13.27-.19.41l-.32.69c-.23.45-.47.91-.72,1.37a18.47,18.47,0,0,1-1.8,2.65,8.11,8.11,0,0,1-4.77,3.12,1.79,1.79,0,0,1-.86,0s-.08,0-.12-.09,0-.09-.06-.13l0-.2a3.48,3.48,0,0,1,.07-1c.08-.37.17-.73.28-1.08.43-1.38.94-2.51,1.24-3.3s.46-1.26.34-1.34-.5.25-1,.93c-.24.33-.53.72-.83,1.2h0a3,3,0,0,1-.85.46,2.17,2.17,0,0,1-1.38-.14A8.31,8.31,0,0,1,49.38,44c-.64-.5-1.33-1.11-2.08-1.79-.38-.33-.78-.69-1.24-1a5.68,5.68,0,0,0-.81-.54L45,40.47a2.36,2.36,0,0,0-.38-.1,3.33,3.33,0,0,0-.63,0,4.64,4.64,0,0,0-2.09.72,9.46,9.46,0,0,0-1.6,1.28,12,12,0,0,0-2.39,3.41,7.42,7.42,0,0,0-.66,2.14,5.85,5.85,0,0,0,0,.6,4.54,4.54,0,0,0,0,.63,3.07,3.07,0,0,0,.5,1.29,2.87,2.87,0,0,0,1.05.92,4.29,4.29,0,0,0,.59.24l.57.13c.19,0,.36,0,.54.05H41c.17,0,.34,0,.5,0l.47-.06a10.22,10.22,0,0,0,3.37-1.06,4.61,4.61,0,0,0,1.37-1.08A3.62,3.62,0,0,0,47.46,48a3.72,3.72,0,0,0,0-1.48,5.69,5.69,0,0,0-.35-1.18,7.45,7.45,0,0,0-1-1.6c-.64-.78-1.11-1.09-1.22-1s.15.57.53,1.42A10.5,10.5,0,0,1,46,45.71a3.41,3.41,0,0,1,0,1.9,2.6,2.6,0,0,1-1.51,1.45,8.91,8.91,0,0,1-2.82.69l-.38,0H41a2.14,2.14,0,0,1-.36,0c-.11,0-.24,0-.34-.05l-.3-.07-.25-.11a.87.87,0,0,1-.31-.29,1.13,1.13,0,0,1-.15-.44,3,3,0,0,1,0-.31c0-.12,0-.23,0-.35a6,6,0,0,1,.49-1.56,10.8,10.8,0,0,1,2-2.84,7.53,7.53,0,0,1,1.21-1,3,3,0,0,1,1.15-.49c.08,0,.14,0,.21,0h0c0-.08,0,.16,0-.17v0l0,.09c0,.08,0,0,0,.05h0l.1,0a3.69,3.69,0,0,1,.57.34c.4.28.81.59,1.21.9a28.63,28.63,0,0,0,2.35,1.67,7.85,7.85,0,0,0,2.3,1,3.3,3.3,0,0,0,1.12.07,2.32,2.32,0,0,0,.69-.19l-.33.67A10.58,10.58,0,0,0,51.88,48a5,5,0,0,0-.24,1.53c0,.15,0,.31,0,.47a2.25,2.25,0,0,0,.17.52,2,2,0,0,0,.82.93,3.21,3.21,0,0,0,2,.3,7.9,7.9,0,0,0,3.36-1.21A11.77,11.77,0,0,0,60.8,48c.25-.31.48-.62.71-.93a2.11,2.11,0,0,0,0,.26,11.69,11.69,0,0,0,.07,2.17,3.64,3.64,0,0,0,.62,1.68,1.61,1.61,0,0,0,.6.44,2.08,2.08,0,0,0,.92.18c.64,0,1.21-.41,2.34-1.19a21.38,21.38,0,0,0,2.43-2,4.88,4.88,0,0,0,.29,1,3.43,3.43,0,0,0,1.45,1.74,3.52,3.52,0,0,0,2.15.41,7.18,7.18,0,0,0,3.33-1.35,17.48,17.48,0,0,0,2.39-2.06c.71-.71,1.35-1.42,2-2.09.31-.33.61-.66.92-1l.38-.39a6.92,6.92,0,0,0,1,.56,3.68,3.68,0,0,0,1.21.28,5.12,5.12,0,0,0,1.07-.1l.34-.08a4.6,4.6,0,0,0-.29.76,4.9,4.9,0,0,0-.17,2.14,4.79,4.79,0,0,0,.87,2.12,3.12,3.12,0,0,0,1,.88,2.76,2.76,0,0,0,1.41.3,3.53,3.53,0,0,0,1.32-.35,5.49,5.49,0,0,0,1-.68,9.26,9.26,0,0,0,1.23-1.19,4,4,0,0,0,.07.58A2.53,2.53,0,0,0,92,51.19a2.31,2.31,0,0,0,1,.64,2.5,2.5,0,0,0,.51.12L94,52a4.76,4.76,0,0,0,.86-.07,8.9,8.9,0,0,0,1.54-.41c.94-.34,1.79-.75,2.6-1.08a8.57,8.57,0,0,1,2.3-.7,20.52,20.52,0,0,1,4.71.21c1.53.19,3,.32,4.32.35a34.68,34.68,0,0,0,6.26-.32c1.47-.22,2.26-.45,2.24-.57s-.83-.13-2.29-.13M62.23,42Zm18,0h0m-.56.38h0m14.42,4.08Z"/><path class="cls-1" d="M174.14,16.66A108.87,108.87,0,0,1,184.65,4.48c2.73-2.64,4.52-3.78,4.42-3.94s-.52.17-1.41.68c-.43.26-.94.63-1.56,1.05-.31.21-.61.46-.95.73s-.71.53-1.07.85a88.36,88.36,0,0,0-11.16,11.86,238.69,238.69,0,0,0-14,19.62c-2.46,3.81-5,7.85-7.48,12.11l-.94,1.61c0,.06-.1.17-.06.12h0l0,0,0,0-.05.05h0s0,0,0-.07a1.58,1.58,0,0,1,0-.31c0-.1,0-.2,0-.31l.07-.46.16-.94q.63-3.77,1.28-7.63t1.22-7.64c.19-1.26.38-2.5.57-3.74l.27-1.86.3-2.12c.16-1.2.33-2.43.4-3.49a2.35,2.35,0,0,0,0-.37V20a1.31,1.31,0,0,0-.12-.43.86.86,0,0,0-.31-.42l-.17-.1-.13,0h0s0-.09,0-.05h0l0,0a.59.59,0,0,0-.38,0l-.13.06a.34.34,0,0,0-.14.08l-.17.12c-.06.05-.1.05-.17.14l-.41.45-.45.69-.9,1.46-.87,1.44-.9,1.5-1.74,3c-1.14,2-2.24,3.87-3.28,5.76-.25.48-.51,1-.76,1.42s-.49,1-.72,1.42c-.46.93-.91,1.84-1.38,2.72-1.83,3.56-3.67,6.81-5.42,9.72s-3.44,5.49-5,7.69-3,4-4.21,5.5c-2.44,2.91-4.07,4.26-4,4.4s.49-.22,1.31-.83c.41-.3.87-.73,1.43-1.21s1.16-1.11,1.85-1.79a69.61,69.61,0,0,0,4.55-5.34c1.67-2.17,3.46-4.72,5.32-7.61s3.8-6.12,5.72-9.68c.49-.89,1-1.8,1.45-2.72.24-.48.47-.92.72-1.38s.51-.91.77-1.37c1.05-1.85,2.17-3.75,3.33-5.68.58-1,1.17-1.95,1.77-2.93l.91-1.49,0,0h0l0,0,0,0s0,0,0,0a1,1,0,0,0,0,.12l-.51,3.38c-.19,1.24-.39,2.48-.58,3.74q-.62,3.75-1.24,7.62t-1.26,7.62l-.15.94-.08.47a3.28,3.28,0,0,0,0,.63,3.51,3.51,0,0,0,0,.64,3.24,3.24,0,0,0,.24.82,2,2,0,0,0,1.22,1.19,2,2,0,0,0,1.66-.24,3.4,3.4,0,0,0,.65-.55l.13-.14,0-.07.07-.11.17-.28.92-1.6c2.46-4.24,4.92-8.28,7.33-12.09,4.81-7.63,9.4-14.33,13.52-19.76"/><path class="cls-1" d="M243.79,50a25.41,25.41,0,0,1-6.24-.52c-1.3-.27-2.75-.63-4.37-.89a15.57,15.57,0,0,0-5.32,0c-1.88.35-3.63,1.1-5.39,1.33a6.68,6.68,0,0,1-2.6-.14,3.93,3.93,0,0,1-2.09-1.26,3.32,3.32,0,0,1-.49-.93v0l.16-.13c.11-.09.22-.19.31-.25a4.34,4.34,0,0,1,.68-.39c.51-.25,1.1-.47,1.72-.78A4.76,4.76,0,0,0,222,44.6a3,3,0,0,0,.52-1.27,1.94,1.94,0,0,0,0-.87,1.73,1.73,0,0,0-.49-.86,1.66,1.66,0,0,0-.51-.31,1.4,1.4,0,0,0-.29-.09,1.2,1.2,0,0,0-.23-.05l-.41,0h-.39a4.81,4.81,0,0,0-1.54.36,5.4,5.4,0,0,0-1.33.83,6.41,6.41,0,0,0-1,1.17,5.68,5.68,0,0,0-.93,3.93c-.56.54-1.08,1-1.6,1.49a11.94,11.94,0,0,1-2.13,1.6,1.81,1.81,0,0,1-.89.28,1.43,1.43,0,0,1-.77-.22c-.37-.23-.39-.8-.36-1.22,0-.2.05-.38.07-.55.36-.75.71-1.51,1.07-2.28s.78-1.73,1.15-2.59l.27-.65.13-.34.07-.18a2.85,2.85,0,0,0,.08-.28l0-.11a1.48,1.48,0,0,0,0-.16,1.16,1.16,0,0,0-.08-.39,1,1,0,0,0-1.15-.62c-.5.15-.43.22-.47.22l-.11.11,0,0a2.23,2.23,0,0,0-.17.25l-.09.2-.14.32-.27.6a20.08,20.08,0,0,1-2.52,4.18,9.12,9.12,0,0,1-3.26,2.65,3.34,3.34,0,0,1-.44.17,2.49,2.49,0,0,1-.44.14,3.69,3.69,0,0,1-.45.11l-.22,0-.2,0c-.14,0-.24,0-.36,0a1,1,0,0,1-.24-.06.42.42,0,0,1-.26-.25,2.7,2.7,0,0,1,0-1.37,10.45,10.45,0,0,1,.36-1.44c.29-.91.61-1.69.86-2.32.53-1.28.83-2,.71-2.07s-.51.35-1.1,1.21a9,9,0,0,0-.65.83c-.33.46-.7,1-1.13,1.7a25,25,0,0,1-1.5,2.13,6.62,6.62,0,0,1-1,1l-.28.18-.28.14a6.23,6.23,0,0,1-.73.24,2.71,2.71,0,0,1-.7.12.71.71,0,0,1-.43-.11.57.57,0,0,1-.2-.32,2.33,2.33,0,0,1-.06-.69,11.48,11.48,0,0,1,.31-1.83c.07-.34.15-.69.22-1.06l.09-.57c0-.1,0-.21,0-.34a2.11,2.11,0,0,0,0-.23v-.07l0-.13a.61.61,0,0,0,0-.13,1.06,1.06,0,0,0-.22-.35l-.07-.07a.71.71,0,0,0-.17-.11.87.87,0,0,0-.45-.1l-.17,0-.11,0a.75.75,0,0,0-.2.1l-.1.07-.07.06-.09.1-.11.14,0,.08,0,0-.13.26-.25.48c-.16.32-.33.64-.5,1s-.35.61-.53.9-.19.28-.29.41l-.15.19-.17.21a9.46,9.46,0,0,1-1.09,1.1A3.17,3.17,0,0,1,190,50a1.21,1.21,0,0,1-.89-.07,2,2,0,0,1-.71-.79,3.79,3.79,0,0,1,.75-4.38,9.53,9.53,0,0,1,3.67-2.26,4.65,4.65,0,0,1,2.91-.25.8.8,0,0,1,.24.13.65.65,0,0,1,.18.15.68.68,0,0,1,.13.18.43.43,0,0,1,0,.19c0,.21-.05.42,0,.43s.16-.06.35-.38a.54.54,0,0,0,.07-.29.79.79,0,0,0-.09-.35,1.29,1.29,0,0,0-.24-.37,1.39,1.39,0,0,0-.38-.33,5,5,0,0,0-3.54-.22,10,10,0,0,0-4.41,2.31,5.84,5.84,0,0,0-1.57,2.61l-1.24,1.16A18.27,18.27,0,0,1,183,49.3a4.7,4.7,0,0,1-1.39.65,1.54,1.54,0,0,1-.3,0h-.11L181,50a1.14,1.14,0,0,1-.49-.3,3,3,0,0,1-.77-1.29c0-.12-.07-.24-.1-.36l0-.17c0-.06,0-.07,0-.11a2.38,2.38,0,0,1,.13-.66,21.44,21.44,0,0,1,1.15-2.77c.76-1.6,1.26-2.59,1.07-2.74s-1.08.58-2.15,2.05q-.28.3-.6.69c-1,1.13-2.11,2.83-3.55,4.43a7.53,7.53,0,0,1-2.2,1.8,3,3,0,0,1-1.07.28,2.86,2.86,0,0,1-1-.16,7.16,7.16,0,0,1-1.41-.76c-.14-.1-.42-.34-.69-.56a14.36,14.36,0,0,0,1.29-1.43l1-1.21.92-1.26C175,42,177,38.61,178.8,35.54q1.37-2.32,2.57-4.39c.81-1.37,1.55-2.64,2.26-3.79l1-1.63c.34-.5.65-1,.94-1.42s.59-.85.84-1.23.5-.71.72-1,.4-.58.56-.82.31-.43.41-.6c.21-.35.28-.57.21-.64s-.28,0-.61.26c-.16.13-.36.29-.58.49s-.44.47-.69.76l-.4.46c-.13.16-.26.34-.41.52-.27.38-.59.78-.89,1.22s-.64.92-1,1.43l-1.07,1.62c-.74,1.14-1.56,2.38-2.41,3.72l-2.71,4.3c-1,1.51-2,3.09-3,4.71s-2.19,3.27-3.4,4.91l-.92,1.21-.94,1.14a12.08,12.08,0,0,1-2,2,7.32,7.32,0,0,1-2.23,1.19,4.05,4.05,0,0,1-2.19.12,2.3,2.3,0,0,1-.42-.17l-.16-.1c-.05,0-.12-.12-.18-.17a2.09,2.09,0,0,1-.36-.37,1.66,1.66,0,0,1-.28-.39,3,3,0,0,1-.39-1.82,5.41,5.41,0,0,1,.57-1.87,6.12,6.12,0,0,1,1-1.54,4.6,4.6,0,0,1,1.26-1,2.38,2.38,0,0,1,1.26-.3,4,4,0,0,1,2.14.9c.57.41,1,.8,1.31,1s.52.36.6.3,0-.28-.15-.65a5.74,5.74,0,0,0-1.05-1.5,5,5,0,0,0-.46-.46c-.19-.14-.38-.3-.59-.45a4.25,4.25,0,0,0-1.65-.63,3.8,3.8,0,0,0-2.08.3,6.2,6.2,0,0,0-1.81,1.28,7.19,7.19,0,0,0-.76.89,8.78,8.78,0,0,0-.64,1,7.2,7.2,0,0,0-.8,2.5,4.85,4.85,0,0,0,.6,2.93,3.2,3.2,0,0,0,.45.64,4.18,4.18,0,0,0,.54.57c.11.09.18.17.31.26a4.4,4.4,0,0,0,.39.26,5.21,5.21,0,0,0,.82.33,5.8,5.8,0,0,0,3.23-.15,8.86,8.86,0,0,0,2.78-1.52,7.68,7.68,0,0,0,.69-.59c.22.28.43.56.53.72A4.26,4.26,0,0,0,171,51.58a3.4,3.4,0,0,0,1.36.42,3.83,3.83,0,0,0,1.62-.24,7.62,7.62,0,0,0,2.77-2.06,18.3,18.3,0,0,0,1.16-1.44v0a3.9,3.9,0,0,0,.13.57A4.59,4.59,0,0,0,179.31,51a3.13,3.13,0,0,0,1.25.71l.37.07h.39a2.93,2.93,0,0,0,.67-.1,4.78,4.78,0,0,0,1.07-.45,8.24,8.24,0,0,0,.85-.55,12.47,12.47,0,0,0,2.32-2.39l.12-.16h0a5,5,0,0,0,.52,1.75,3.55,3.55,0,0,0,1.37,1.53,2.88,2.88,0,0,0,2.25.27,4.69,4.69,0,0,0,1.77-1,9.54,9.54,0,0,0,1.31-1.31l.19-.23,0,0h0a3.72,3.72,0,0,0,.18,1.24,2.12,2.12,0,0,0,.92,1.16,2.08,2.08,0,0,0,.68.26,2.54,2.54,0,0,0,.66,0,4.42,4.42,0,0,0,1.05-.22,7.18,7.18,0,0,0,.89-.36l.46-.26.39-.3a7.63,7.63,0,0,0,1.09-1.24,2.68,2.68,0,0,0,.12,1,1.9,1.9,0,0,0,1,1.14,2.67,2.67,0,0,0,.69.23,4.82,4.82,0,0,0,.65,0h.31l.29,0a3.91,3.91,0,0,0,.58-.1,4.12,4.12,0,0,0,.58-.15,5.62,5.62,0,0,0,.58-.19,8.44,8.44,0,0,0,1.82-1c-2.32,5-4.44,9.38-6.12,12.77-1.1,2.21-2,4-2.67,5.2s-1.06,1.84-1,1.94.76-.38,1.63-1.5a44.8,44.8,0,0,0,3.29-4.94c2.08-3.51,4.57-8.21,7.14-13.57a1.49,1.49,0,0,0,.47.91,1.9,1.9,0,0,0,.55.35l.31.11a2.09,2.09,0,0,0,.33.07,2.7,2.7,0,0,0,1.43-.27,12,12,0,0,0,2.49-1.57c.41-.32.82-.66,1.24-1a4.46,4.46,0,0,0,.53.85,5.64,5.64,0,0,0,3,1.88,8.21,8.21,0,0,0,3.3.15c2.1-.31,3.84-1.11,5.48-1.45a14.36,14.36,0,0,1,4.79-.15c1.54.17,3,.46,4.35.66a20.76,20.76,0,0,0,6.54,0c1.52-.28,2.31-.62,2.28-.74a9.07,9.07,0,0,0-2.36,0m-48-4.4h0m22-1.17a4.7,4.7,0,0,1,.71-.82,3.89,3.89,0,0,1,.86-.57,3.24,3.24,0,0,1,1-.24c.15,0,.34,0,.46,0h.1l0,0a.4.4,0,0,1,0,.16,1.58,1.58,0,0,1-.22.62,3.36,3.36,0,0,1-1.23,1c-.53.28-1.12.53-1.71.84l-.48.29c0-.1,0-.2.07-.3a4.6,4.6,0,0,1,.48-1"/><path class="cls-1" d="M183.59,36.69c-.63,0-1.14.32-1.14.71s.51.71,1.14.71,1.15-.32,1.15-.71-.51-.71-1.15-.71"/></g></g></svg>