<svg xmlns="http://www.w3.org/2000/svg" viewBox="0 0 299.26 400.48"><defs><style>.cls-1,.cls-3,.cls-4,.cls-5,.cls-6{fill:none;stroke:#a66e4c;stroke-linecap:round;}.cls-1,.cls-3,.cls-4,.cls-5{stroke-miterlimit:10;}.cls-1{stroke-width:1px;}.cls-2{fill:#a66e4c;}.cls-3{stroke-width:1.34px;}.cls-4{stroke-width:0.96px;}.cls-5{stroke-width:0.95px;}.cls-6{stroke-linejoin:round;stroke-width:8.14px;}</style></defs><g id="Layer_2" data-name="Layer 2"><g id="Layer_2-2" data-name="Layer 2"><line class="cls-1" x1="114.01" y1="213.54" x2="97.11" y2="213.54"/><line class="cls-1" x1="161.35" y1="221.39" x2="174.24" y2="221.39"/><line class="cls-1" x1="125.71" y1="221.39" x2="154.41" y2="221.39"/><line class="cls-1" x1="136.66" y1="226.02" x2="161.35" y2="226.02"/><line class="cls-1" x1="149" y1="216.6" x2="177.7" y2="216.6"/><line class="cls-1" x1="126.33" y1="225" x2="114.77" y2="225"/><line class="cls-1" x1="154.78" y1="206.3" x2="139.22" y2="206.3"/><line class="cls-1" x1="124.57" y1="209.74" x2="106.34" y2="209.74"/><line class="cls-1" x1="139.8" y1="216.99" x2="111.1" y2="216.99"/><line class="cls-1" x1="159.35" y1="210.99" x2="133.32" y2="210.99"/><line class="cls-1" x1="108.51" y1="205.73" x2="90.28" y2="205.73"/><line class="cls-1" x1="184.4" y1="212.2" x2="170.24" y2="212.2"/><line class="cls-1" x1="118.44" y1="220.33" x2="108.29" y2="220.33"/><line class="cls-1" x1="149.74" y1="229.75" x2="130.23" y2="229.75"/><line class="cls-1" x1="101.57" y1="201.16" x2="91.41" y2="201.16"/><path class="cls-2" d="M84.15,201.81c3.15-1.38,6.09-3.45,9.47-4.25s7.11.17,10.37,1.47,6.4,3,9.72,4.24A27.75,27.75,0,0,0,124.12,205c7.41-.19,14.56-2.59,22-2.86a29.91,29.91,0,0,1,11.13,1.74c3.46,1.2,6.77,2.79,10.23,4a37.23,37.23,0,0,0,12.66,1.84c4.85,0,9.71-.19,14.56-.29a.67.67,0,0,0,0-1.34c-4.3.09-8.6.19-12.91.27a39.9,39.9,0,0,1-12.32-1.24c-7.16-2.14-13.58-6.12-21.23-6.32s-14.88,2.28-22.4,2.8a27.6,27.6,0,0,1-11-1.28c-3.41-1.18-6.59-2.92-9.93-4.3s-7.18-2.49-10.89-1.84-7.05,3-10.53,4.53c-.79.35-.11,1.5.67,1.16Z"/><path class="cls-3" d="M94,16.48c-18,13.47-29.6,34.34-29.6,57.76"/><path class="cls-3" d="M219.93,150.7V74.24c0-40.63-34.82-73.57-77.78-73.57a81.83,81.83,0,0,0-24.88,3.84"/><path class="cls-3" d="M75.31,208.4c13.58,21.51,38.43,35.92,66.84,35.92,43,0,77.78-32.94,77.78-73.57"/><path class="cls-3" d="M64.37,83.85v86.9a69.21,69.21,0,0,0,.4,7.52A68.29,68.29,0,0,0,66,185.58"/><path class="cls-3" d="M74.14,133.78v33a67.89,67.89,0,0,0,32.27,57.82l1.82,1.1a67.82,67.82,0,0,0,23.53,8.12c1.32.2,3.85.53,6,.7s4.26.17,4.26.17A67.9,67.9,0,0,0,210,166.74V78.38q0-2.1-.12-4.17"/><path class="cls-3" d="M88.31,36.85A67.65,67.65,0,0,0,74.14,78.38v43.36"/><path class="cls-3" d="M142.06,10.46a69.19,69.19,0,0,0-10.45.8A67.71,67.71,0,0,0,97,27.56"/><path class="cls-3" d="M199.27,41.77a68.42,68.42,0,0,0-13.83-15.65"/><line class="cls-4" x1="154.09" y1="157.11" x2="148.96" y2="137.85"/><line class="cls-4" x1="167.21" y1="153.4" x2="155.53" y2="133.26"/><line class="cls-4" x1="185.27" y1="153.4" x2="161.91" y2="130.04"/><line class="cls-4" x1="190.58" y1="124.1" x2="168.42" y2="118.16"/><line class="cls-4" x1="186.1" y1="135.99" x2="165.62" y2="124.1"/><line class="cls-4" x1="134.98" y1="84.51" x2="129.25" y2="63.24"/><line class="cls-4" x1="128.71" y1="87.17" x2="117.26" y2="67.46"/><line class="cls-4" x1="117.15" y1="85.81" x2="99.96" y2="68.41"/><line class="cls-4" x1="122.86" y1="91.59" x2="119.7" y2="88.39"/><line class="cls-4" x1="115.82" y1="103.96" x2="97.05" y2="98.79"/><line class="cls-4" x1="99.87" y1="85.7" x2="97.05" y2="84.03"/><line class="cls-4" x1="118.84" y1="96.88" x2="102.37" y2="87.17"/><line class="cls-4" x1="193.72" y1="110.5" x2="169.27" y2="110.5"/><line class="cls-4" x1="165.62" y1="97.06" x2="184.46" y2="86.67"/><line class="cls-4" x1="168.42" y1="104.11" x2="187.39" y2="98.64"/><line class="cls-4" x1="96.95" y1="122.77" x2="115.92" y2="117.3"/><line class="cls-4" x1="99.87" y1="135.04" x2="118.84" y2="124.1"/><line class="cls-4" x1="117.26" y1="135.48" x2="122.63" y2="130.04"/><line class="cls-4" x1="99.56" y1="153.4" x2="113.41" y2="139.38"/><line class="cls-4" x1="117.26" y1="153.4" x2="128" y2="133.84"/><line class="cls-4" x1="130.18" y1="157.11" x2="135.86" y2="136.49"/><line class="cls-4" x1="142.59" y1="161.35" x2="142.59" y2="138.48"/><line class="cls-4" x1="180.73" y1="71.26" x2="184.46" y2="67.46"/><line class="cls-4" x1="161.39" y1="90.96" x2="177.37" y2="74.68"/><line class="cls-4" x1="155.53" y1="86.67" x2="166.08" y2="68.41"/><line class="cls-4" x1="148.96" y1="84.51" x2="154.09" y2="64.85"/><line class="cls-4" x1="142.59" y1="57.82" x2="142.59" y2="56.92"/><line class="cls-4" x1="142.59" y1="84.03" x2="142.59" y2="59.8"/><path class="cls-4" d="M147.5,88.27A22.76,22.76,0,0,1,160.15,96"/><path class="cls-4" d="M128.92,92.3a22.67,22.67,0,0,1,13.67-4.56"/><path class="cls-4" d="M127.25,127.32a22.72,22.72,0,0,1-6.73-11.21c-.15-.59-.28-1.2-.38-1.81a22.74,22.74,0,0,1,5-18.41"/><path class="cls-4" d="M151.53,131.44a22.88,22.88,0,0,1-19.42-.72"/><path class="cls-4" d="M162.11,98.79a22.78,22.78,0,0,1-8.29,31.52"/><path class="cls-2" d="M139.38,91.91h0a8.06,8.06,0,0,1,.85,0,5.09,5.09,0,0,1,4,2.41,6,6,0,0,1,.33,5.4,20.18,20.18,0,0,1-3.5,5.35l-.32.39c-2.51,3-5.11,6.2-6.72,10-1.94,4.58-1.91,8.5.12,11.91a10.21,10.21,0,0,1-5.27-9.15c.05-5,2.21-9.34,4.42-13.33.25-.45.52-.89.79-1.33l.6-1c1.19-2.06,1.51-3.92,1-5.52a5.74,5.74,0,0,0-2.7-3,12.32,12.32,0,0,1,6.47-2.16m0-1c-3.09,0-5.79,1.42-8.41,3.25,4,1.57,5,4.27,2.86,7.91-.46.79-1,1.56-1.4,2.36-2.38,4.3-4.48,8.68-4.53,13.78a11,11,0,0,0,8.59,11.05l.06-.09a1.75,1.75,0,0,0-.15-.34c-3.59-4-3.47-8.41-1.52-13,1.63-3.83,4.29-7,6.9-10.15a21.16,21.16,0,0,0,3.65-5.61c1.69-4.3-.69-8.7-5.11-9.11-.32,0-.63,0-.94,0Z"/><path class="cls-2" d="M146.73,91.92A18.94,18.94,0,0,1,149.57,128a3.67,3.67,0,0,0,0-2.53c-.41-1-.28-1.08,1-1.9l.14-.09a15.49,15.49,0,0,0,2.74-24.15l-1.22-1.14-.37,1.63c-.53,2.27-.28,2.56,0,2.84a11.29,11.29,0,0,1,2.73,7.6c0,5-2.32,8.7-7,11.07a.68.68,0,0,1-.23.08s-.08,0-.25-.2c-.48-.52-1-1-1.51-1.48s-.77-.72-1.15-1.11a8.32,8.32,0,0,0,4.1-2.22,8.46,8.46,0,0,0,2.48-7.05,8.29,8.29,0,0,0-4-6.13,2.17,2.17,0,0,1-.3-.2l.13-.2a8.6,8.6,0,0,0,1.33-3.37,18.88,18.88,0,0,0,0-4.12,7.37,7.37,0,0,0-1.48-3.44m-2.65-1.28a7.59,7.59,0,0,1,3.18,4.86,18.61,18.61,0,0,1,0,3.81,7.72,7.72,0,0,1-1.18,3c-.6.88-.4,1.25.47,1.77a7.44,7.44,0,0,1,1.3,11.68,8.38,8.38,0,0,1-5.3,2.25c1.24,1.57,2.65,2.62,3.83,3.89a1.27,1.27,0,0,0,.94.51,1.4,1.4,0,0,0,.67-.19c4.88-2.48,7.55-6.46,7.52-11.93a12.23,12.23,0,0,0-3-8.22,7,7,0,0,1,.24-2,14.52,14.52,0,0,1-2.59,22.64c-1.33.84-2.31,1.36-1.55,3.17.49,1.16-.2,2.38-.58,3.6,7.19-1.63,15.14-9.45,14.42-20.3-.79-11.86-10.76-18.38-18.4-18.53Z"/><path class="cls-2" d="M130.6,96.83h0a1.69,1.69,0,0,1,1.18.48,1.92,1.92,0,0,1,.53,2.12,8.4,8.4,0,0,1-1.13,2.29c-.14.22-.27.44-.4.66-2.24,3.79-4.42,8-5.15,12.84a19.37,19.37,0,0,0-.21,3.37,16.39,16.39,0,0,1-1.25-3.55,19,19,0,0,1,3.48-16.37,4.74,4.74,0,0,1,2-1.63,2.75,2.75,0,0,1,1-.21m0-1a3.65,3.65,0,0,0-1.33.28,5.63,5.63,0,0,0-2.38,1.94,19.83,19.83,0,0,0-3.65,17.16,16.49,16.49,0,0,0,3.78,7.41,17,17,0,0,1-.44-7.3c.68-4.57,2.71-8.59,5-12.5a12.42,12.42,0,0,0,1.64-3.2,2.91,2.91,0,0,0-.83-3.07,2.65,2.65,0,0,0-1.81-.72Z"/><path class="cls-2" d="M138,115.09c.87,3.15,3.15,5.3,5.37,7.4l.43.4a21.85,21.85,0,0,1,1.64,1.73,2.66,2.66,0,0,1,.37,3.3,2.83,2.83,0,0,1-2.68,1.49H143c-3.83-.15-7.08-3.82-6.95-7.85a15.27,15.27,0,0,1,2-6.46m.6-2.35c-1.84,1.74-3.47,5.83-3.57,8.78-.16,4.51,3.51,8.66,7.87,8.84h.23a3.8,3.8,0,0,0,3.52-2,3.6,3.6,0,0,0-.48-4.39,24.24,24.24,0,0,0-1.71-1.8c-2.77-2.63-5.68-5.15-5.86-9.46Z"/><path class="cls-2" d="M144.77,105.9l.11,0a5,5,0,0,1,2.7,4.94,5,5,0,0,1-3.79,4.41,7.24,7.24,0,0,1-1.4.17c-.64,0-.91,0-1.1-1.49a6.27,6.27,0,0,1,1.1-5c.39-.54.82-1.07,1.23-1.59s.76-1,1.12-1.44l0,0m-.07-1a.89.89,0,0,0-.73.44c-.76,1-1.61,2-2.36,3a7.25,7.25,0,0,0-1.27,5.7c.21,1.63.66,2.31,2,2.31a8.79,8.79,0,0,0,1.58-.19,6,6,0,0,0,1.28-11.17,1.51,1.51,0,0,0-.55-.13Z"/><line class="cls-5" x1="94.8" y1="110.5" x2="90.57" y2="110.5"/><line class="cls-5" x1="114.87" y1="110.5" x2="98.84" y2="110.5"/><line class="cls-6" x1="4.07" y1="372.07" x2="4.07" y2="308.86"/><path class="cls-6" d="M68,395.81V302.16a17,17,0,0,1,17-17h0a17,17,0,0,1,17,17v93.65"/><path class="cls-6" d="M198.54,302.75a17,17,0,0,0-17-17h-.7c-11.28.46-18.39,12.41-13.8,22.73l29,65.22c4.58,10.31-2.53,22.26-13.81,22.72l-.7,0h0a17,17,0,0,1-17-17"/><path class="cls-6" d="M53.67,302.16a17,17,0,0,0-17-17h0a17,17,0,0,0-17,17v76.61a17,17,0,0,0,17,17h0a17,17,0,0,0,17-17"/><path class="cls-6" d="M150.22,302.16a17,17,0,0,0-17-17h-.7c-11.28.46-18.39,12.41-13.81,22.73l29,65.21c4.59,10.32-2.52,22.27-13.8,22.73h-.7a17,17,0,0,1-17-17"/><path class="cls-6" d="M246.86,285.12h0a34.07,34.07,0,0,0-34.08,34.07v76.62h34.08"/><path class="cls-6" d="M261.11,285.12v76.61a34.08,34.08,0,0,0,34.08,34.08h0"/><line class="cls-6" x1="69.84" y1="352.73" x2="100.73" y2="352.73"/><line class="cls-6" x1="69.84" y1="367.31" x2="100.73" y2="367.31"/><line class="cls-6" x1="212.78" y1="366.92" x2="236.01" y2="366.92"/></g></g></svg>