<svg xmlns="http://www.w3.org/2000/svg" viewBox="0 0 256.56 400.6"><defs><style>.cls-1,.cls-2,.cls-3{fill:none;stroke:#a66e4c;stroke-linecap:round;}.cls-1{stroke-linejoin:round;stroke-width:10.75px;}.cls-2,.cls-3{stroke-miterlimit:10;}.cls-2{stroke-width:2.18px;}.cls-3{stroke-width:2.02px;}</style></defs><g id="Layer_2" data-name="Layer 2"><g id="Layer_2-2" data-name="Layer 2"><line class="cls-1" x1="92.58" y1="243.87" x2="92.58" y2="160.38"/><path class="cls-1" d="M156,151.53A22.51,22.51,0,0,0,133.5,129h0A22.51,22.51,0,0,0,111,151.53V252.72a22.5,22.5,0,0,0,22.51,22.5h0a22.5,22.5,0,0,0,22.5-22.5"/><path class="cls-2" d="M49.49,27C20,49,1.09,83.1,1.09,121.39"/><path class="cls-2" d="M255.47,246.42v-125c0-66.44-56.95-120.3-127.19-120.3A133.62,133.62,0,0,0,87.59,7.38"/><path class="cls-2" d="M19,340.78c22.2,35.17,62.84,58.73,109.29,58.73,70.24,0,127.19-53.86,127.19-120.3"/><path class="cls-2" d="M1.09,137.12V279.21a113.8,113.8,0,0,0,.66,12.3,112.09,112.09,0,0,0,1.93,11.94"/><path class="cls-2" d="M17.07,218.75v53.89A111,111,0,0,0,69.85,367.2l3,1.79a110.26,110.26,0,0,0,38.47,13.28c2.16.33,6.3.88,9.88,1.15,3.78.28,7,.28,7,.28A111.06,111.06,0,0,0,239.19,272.64V128.17c0-2.29-.07-4.57-.21-6.82"/><path class="cls-2" d="M40.24,60.26a110.63,110.63,0,0,0-23.17,67.91v70.9"/><path class="cls-2" d="M128.13,17.11a111.84,111.84,0,0,0-17.08,1.31,110.61,110.61,0,0,0-56.6,26.65"/><path class="cls-2" d="M221.68,68.3a111.61,111.61,0,0,0-22.62-25.59"/><polyline class="cls-3" points="154.19 319.33 150.46 299.92 149.88 296.88 148.75 290.99 147.12 282.5"/><line class="cls-3" x1="177.6" y1="310.12" x2="160.86" y2="271.86"/><line class="cls-3" x1="209.82" y1="310.12" x2="171.29" y2="256.57"/><line class="cls-3" x1="117.25" y1="124.67" x2="109.85" y2="86.43"/><line class="cls-3" x1="104.92" y1="136.3" x2="88.45" y2="96.9"/><line class="cls-3" x1="88.25" y1="142.42" x2="57.58" y2="99.26"/><line class="cls-3" x1="79.99" y1="185.21" x2="52.38" y2="174.63"/><line class="cls-3" x1="57.43" y1="142.14" x2="52.38" y2="138.01"/><line class="cls-3" x1="79.99" y1="160.65" x2="61.88" y2="145.8"/><line class="cls-3" x1="58.76" y1="203.69" x2="37.91" y2="203.69"/><line class="cls-3" x1="79.99" y1="203.69" x2="66.03" y2="203.69"/><line class="cls-3" x1="52.35" y1="231.33" x2="80.12" y2="220.19"/><line class="cls-3" x1="57.56" y1="261.77" x2="80.12" y2="242.77"/><line class="cls-3" x1="171.29" y1="142.42" x2="201.97" y2="99.26"/><line class="cls-3" x1="179.55" y1="185.21" x2="207.16" y2="174.63"/><line class="cls-3" x1="179.55" y1="160.65" x2="204.22" y2="140.42"/><line class="cls-3" x1="200.78" y1="203.69" x2="221.64" y2="203.69"/><line class="cls-3" x1="179.55" y1="203.69" x2="224.82" y2="203.69"/><line class="cls-3" x1="207.46" y1="231.33" x2="179.68" y2="220.19"/><line class="cls-3" x1="196.07" y1="256.57" x2="179.68" y2="242.77"/><line class="cls-3" x1="210.25" y1="268.51" x2="200.66" y2="260.44"/><line class="cls-3" x1="69.59" y1="291.98" x2="90.72" y2="256.57"/><line class="cls-3" x1="58.76" y1="310.12" x2="66.03" y2="297.94"/><line class="cls-3" x1="88.45" y1="310.12" x2="104.89" y2="268.49"/><line class="cls-3" x1="111.52" y1="319.33" x2="119.2" y2="280.5"/><line class="cls-3" x1="133.65" y1="329.86" x2="133.65" y2="284.55"/><line class="cls-3" x1="161.26" y1="133.72" x2="175.58" y2="99.26"/><line class="cls-3" x1="147.99" y1="123.39" x2="154.18" y2="90.42"/><line class="cls-3" x1="133.65" y1="72.99" x2="133.65" y2="70.74"/><line class="cls-3" x1="133.65" y1="119.05" x2="133.65" y2="77.9"/></g></g></svg>