<svg xmlns="http://www.w3.org/2000/svg" viewBox="0 0 255.86 399.5"><defs><style>.cls-1,.cls-3,.cls-4,.cls-5{fill:none;stroke:#a66e4c;stroke-linecap:round;stroke-miterlimit:10;}.cls-1{stroke-width:1.63px;}.cls-2{fill:#a66e4c;}.cls-3{stroke-width:2.18px;}.cls-4{stroke-width:1.56px;}.cls-5{stroke-width:1.56px;}</style></defs><g id="Layer_2" data-name="Layer 2"><g id="Layer_2-2" data-name="Layer 2"><line class="cls-1" x1="82.04" y1="348.22" x2="54.48" y2="348.22"/><line class="cls-1" x1="159.24" y1="361.02" x2="180.27" y2="361.02"/><line class="cls-1" x1="101.12" y1="361.02" x2="147.92" y2="361.02"/><line class="cls-1" x1="118.98" y1="368.58" x2="159.24" y2="368.58"/><line class="cls-1" x1="139.11" y1="353.21" x2="185.91" y2="353.21"/><line class="cls-1" x1="102.13" y1="366.9" x2="83.29" y2="366.9"/><line class="cls-1" x1="148.53" y1="336.42" x2="123.15" y2="336.42"/><line class="cls-1" x1="99.27" y1="342.02" x2="69.53" y2="342.02"/><line class="cls-1" x1="124.1" y1="353.85" x2="77.3" y2="353.85"/><line class="cls-1" x1="155.98" y1="344.07" x2="113.53" y2="344.07"/><line class="cls-1" x1="73.08" y1="335.49" x2="43.34" y2="335.49"/><line class="cls-1" x1="196.83" y1="346.04" x2="173.73" y2="346.04"/><line class="cls-1" x1="89.27" y1="359.29" x2="72.71" y2="359.29"/><line class="cls-1" x1="140.3" y1="374.66" x2="108.49" y2="374.66"/><line class="cls-1" x1="61.75" y1="328.03" x2="45.19" y2="328.03"/><path class="cls-2" d="M33.36,329.09c5.09-2.21,9.8-5.54,15.24-6.88,5.63-1.38,11.45.14,16.71,2.19s10.41,4.86,15.78,6.9a45,45,0,0,0,17.11,2.93c12.16-.24,23.89-4.19,36-4.67a48.64,48.64,0,0,1,17.85,2.69c5.74,2,11.22,4.61,17,6.59a61.6,61.6,0,0,0,21.4,3.05c7.71-.09,15.43-.31,23.14-.47a1.09,1.09,0,0,0,0-2.18l-21,.44c-6.66.13-13.26,0-19.71-1.89-5.9-1.7-11.47-4.34-17.2-6.53a54,54,0,0,0-17.62-3.9c-12.34-.37-24.25,3.64-36.47,4.53A45.13,45.13,0,0,1,84,330c-5.55-1.83-10.7-4.63-16.07-6.9-5.75-2.42-12.08-4.38-18.37-3.32S38,324.73,32.26,327.21c-1.29.56-.18,2.43,1.1,1.88Z"/><path class="cls-3" d="M49.36,26.87c-29.4,22-48.27,56-48.27,94.19"/><path class="cls-3" d="M254.77,245.74V121.06c0-66.26-56.79-120-126.84-120A133.2,133.2,0,0,0,87.35,7.36"/><path class="cls-3" d="M18.94,339.85c22.14,35.07,62.66,58.57,109,58.57,70,0,126.84-53.72,126.84-120"/><path class="cls-3" d="M1.09,136.74v141.7a115.71,115.71,0,0,0,.65,12.27,114.11,114.11,0,0,0,1.93,11.91"/><path class="cls-3" d="M17,218.15V271.9a110.67,110.67,0,0,0,52.64,94.29l3,1.79A109.9,109.9,0,0,0,111,381.22c2.16.34,6.29.88,9.86,1.15,3.77.28,6.94.28,6.94.28A110.74,110.74,0,0,0,238.53,271.9V127.82q0-3.43-.2-6.81"/><path class="cls-3" d="M40.13,60.1A110.31,110.31,0,0,0,17,127.82v70.71"/><path class="cls-3" d="M127.78,17.06a111.41,111.41,0,0,0-17,1.31A110.24,110.24,0,0,0,54.3,45"/><path class="cls-3" d="M221.08,68.11A111.65,111.65,0,0,0,198.52,42.6"/><line class="cls-4" x1="147.59" y1="256.2" x2="139.21" y2="224.8"/><line class="cls-4" x1="168.98" y1="250.15" x2="149.93" y2="217.32"/><line class="cls-4" x1="198.43" y1="250.15" x2="160.33" y2="212.06"/><line class="cls-4" x1="207.09" y1="202.37" x2="170.95" y2="192.68"/><line class="cls-4" x1="199.78" y1="221.75" x2="166.38" y2="202.37"/><line class="cls-4" x1="116.41" y1="137.81" x2="107.07" y2="103.13"/><line class="cls-4" x1="106.19" y1="142.15" x2="87.52" y2="110.01"/><line class="cls-4" x1="87.33" y1="139.93" x2="59.3" y2="111.56"/><line class="cls-4" x1="96.65" y1="149.35" x2="91.5" y2="144.14"/><line class="cls-4" x1="85.18" y1="169.53" x2="54.56" y2="161.1"/><line class="cls-4" x1="59.16" y1="139.75" x2="54.56" y2="137.03"/><line class="cls-4" x1="90.09" y1="157.99" x2="63.23" y2="142.15"/><line class="cls-4" x1="212.21" y1="180.2" x2="172.33" y2="180.2"/><line class="cls-4" x1="166.38" y1="158.27" x2="197.1" y2="141.33"/><line class="cls-4" x1="170.95" y1="169.78" x2="201.88" y2="160.86"/><line class="cls-4" x1="54.4" y1="200.21" x2="85.33" y2="191.29"/><line class="cls-4" x1="59.16" y1="220.21" x2="90.09" y2="202.37"/><line class="cls-4" x1="87.52" y1="220.93" x2="96.27" y2="212.06"/><line class="cls-4" x1="58.65" y1="250.15" x2="81.23" y2="227.29"/><line class="cls-4" x1="87.52" y1="250.15" x2="105.03" y2="218.25"/><line class="cls-4" x1="108.59" y1="256.2" x2="117.85" y2="222.58"/><line class="cls-4" x1="128.82" y1="263.12" x2="128.82" y2="225.82"/><line class="cls-4" x1="191.02" y1="116.21" x2="197.1" y2="110.01"/><line class="cls-4" x1="159.49" y1="148.33" x2="185.55" y2="121.78"/><line class="cls-4" x1="149.93" y1="141.33" x2="167.13" y2="111.56"/><line class="cls-4" x1="139.21" y1="137.81" x2="147.59" y2="105.75"/><line class="cls-4" x1="128.82" y1="94.3" x2="128.82" y2="92.82"/><line class="cls-4" x1="128.82" y1="137.03" x2="128.82" y2="97.52"/><path class="cls-4" d="M136.84,144a37.09,37.09,0,0,1,20.62,12.64"/><path class="cls-4" d="M106.53,150.51a36.93,36.93,0,0,1,22.29-7.43"/><path class="cls-4" d="M103.81,207.63a37.12,37.12,0,0,1-11-18.29c-.24-1-.45-2-.62-2.94a37.32,37.32,0,0,1-.51-6.2A36.92,36.92,0,0,1,95.41,164a37.49,37.49,0,0,1,4.94-7.63"/><path class="cls-4" d="M143.4,214.34a37.15,37.15,0,0,1-31.66-1.18"/><path class="cls-4" d="M160.65,161.1a37.12,37.12,0,0,1-13.52,51.39"/><path class="cls-2" d="M123.59,149.88h0A12.94,12.94,0,0,1,125,150a8.29,8.29,0,0,1,6.49,3.92,9.83,9.83,0,0,1,.54,8.81c-1.25,3.17-3.32,5.83-5.71,8.72l-.52.64c-4.09,5-8.33,10.11-11,16.3-3.17,7.47-3.12,13.87.19,19.42a16.55,16.55,0,0,1-8.58-14.91c.08-8.19,3.6-15.23,7.2-21.74.4-.72.83-1.43,1.28-2.17.33-.54.66-1.09,1-1.64,2-3.37,2.47-6.4,1.56-9a9.36,9.36,0,0,0-4.41-4.9,20.05,20.05,0,0,1,10.55-3.52m0-1.56c-5,0-9.44,2.32-13.71,5.3,6.58,2.55,8.1,7,4.66,12.9-.75,1.29-1.56,2.54-2.28,3.84-3.88,7-7.31,14.15-7.39,22.47a18,18,0,0,0,14,18l.09-.15a2.23,2.23,0,0,0-.25-.54c-5.85-6.49-5.65-13.72-2.47-21.21,2.65-6.24,7-11.38,11.25-16.55a34.66,34.66,0,0,0,6-9.14c2.76-7-1.13-14.2-8.34-14.87-.51,0-1-.07-1.53-.07Z"/><path class="cls-2" d="M135.57,149.9a30.88,30.88,0,0,1,4.64,58.88,6,6,0,0,0-.07-4.12c-.66-1.57-.45-1.77,1.69-3.11l.22-.13c8.25-5.16,12.37-13,11.91-22.56A23.85,23.85,0,0,0,146.52,162l-2-1.86-.61,2.65c-.86,3.71-.45,4.18-.06,4.63a18.41,18.41,0,0,1,4.46,12.4c0,8.11-3.79,14.18-11.4,18.05a1,1,0,0,1-.38.14,1.19,1.19,0,0,1-.4-.33c-.79-.85-1.64-1.65-2.47-2.42-.62-.58-1.25-1.18-1.88-1.81a13.53,13.53,0,0,0,6.7-3.61,13.8,13.8,0,0,0,4-11.51,13.49,13.49,0,0,0-6.45-10,5.56,5.56,0,0,1-.49-.33,3.63,3.63,0,0,1,.21-.34,14,14,0,0,0,2.16-5.48,30.24,30.24,0,0,0,0-6.73,11.79,11.79,0,0,0-2.41-5.6m-4.31-2.09c2.82,2.23,4.7,4.69,5.18,7.92a29.27,29.27,0,0,1,0,6.22,12.53,12.53,0,0,1-1.91,4.88c-1,1.42-.66,2,.76,2.88a12.13,12.13,0,0,1,2.12,19c-2.32,2.31-5.18,3.28-8.64,3.66,2,2.56,4.32,4.28,6.24,6.35a2.14,2.14,0,0,0,1.54.83,2.33,2.33,0,0,0,1.09-.31c8-4,12.32-10.53,12.27-19.45a20,20,0,0,0-4.85-13.42c-.28-.31.4-3.25.4-3.25a22.3,22.3,0,0,1,7,15.77c.44,9.1-3.45,16.32-11.18,21.15-2.18,1.36-3.76,2.22-2.52,5.17.8,1.89-.33,3.89-1,5.87,11.74-2.66,24.69-15.41,23.52-33.11-1.28-19.33-17.55-30-30-30.21Z"/><path class="cls-2" d="M109.27,157.91a2.77,2.77,0,0,1,1.92.77,3.12,3.12,0,0,1,.87,3.46,13.81,13.81,0,0,1-1.84,3.74l-.66,1.07c-3.65,6.19-7.2,13-8.38,20.93a31.51,31.51,0,0,0-.35,5.51,26.82,26.82,0,0,1-2-5.79,30.88,30.88,0,0,1,5.68-26.7,7.58,7.58,0,0,1,3.21-2.65,4.38,4.38,0,0,1,1.59-.34m0-1.57a6,6,0,0,0-2.16.46,9.1,9.1,0,0,0-3.89,3.16,32.32,32.32,0,0,0-6,28A27,27,0,0,0,103.43,200a27.83,27.83,0,0,1-.71-11.92c1.11-7.43,4.42-14,8.19-20.37a19.94,19.94,0,0,0,2.66-5.22,4.73,4.73,0,0,0-1.34-5,4.36,4.36,0,0,0-3-1.17Z"/><path class="cls-2" d="M121.4,187.69c1.42,5.12,5.14,8.63,8.76,12.05l.7.67a36.65,36.65,0,0,1,2.68,2.81,4.33,4.33,0,0,1,.61,5.38,4.66,4.66,0,0,1-4.38,2.43h-.32c-6.26-.26-11.56-6.24-11.33-12.81a24.69,24.69,0,0,1,3.28-10.52m1-3.85c-3,2.85-5.66,9.51-5.82,14.32-.25,7.37,5.73,14.13,12.83,14.42h.38a6.19,6.19,0,0,0,5.74-3.23,5.86,5.86,0,0,0-.78-7.15,38.76,38.76,0,0,0-2.79-2.94c-4.51-4.28-9.27-8.4-9.56-15.43Z"/><path class="cls-2" d="M132.45,172.61h0m-.08.08.18.07a8.12,8.12,0,0,1,4.41,8.05,8.25,8.25,0,0,1-6.18,7.2,12.92,12.92,0,0,1-2.27.27c-1.06,0-1.49,0-1.81-2.43a10.28,10.28,0,0,1,1.8-8.15c.63-.87,1.33-1.75,2-2.6s1.24-1.54,1.83-2.35l0-.06m-.1-1.58a1.45,1.45,0,0,0-1.19.71c-1.25,1.69-2.62,3.27-3.85,5a11.77,11.77,0,0,0-2.07,9.28c.34,2.67,1.07,3.77,3.35,3.77a13.8,13.8,0,0,0,2.57-.3,9.8,9.8,0,0,0,7.43-8.57,9.69,9.69,0,0,0-5.34-9.64,2.32,2.32,0,0,0-.9-.22Z"/><line class="cls-5" x1="50.58" y1="180.2" x2="43.65" y2="180.2"/><line class="cls-5" x1="83.52" y1="180.2" x2="57.21" y2="180.2"/></g></g></svg>