<svg xmlns="http://www.w3.org/2000/svg" viewBox="0 0 194.51 138.44"><defs><style>.cls-1{fill:#f2cb35;}</style></defs><g id="Layer_2" data-name="Layer 2"><g id="Layer_2-2" data-name="Layer 2"><path class="cls-1" d="M99.62,92.47a61.87,61.87,0,0,1,3.79-14.59C120.5,37.11,171,37,191.36,0A100.81,100.81,0,0,1,194,10.84a30.18,30.18,0,0,1,.16,9.9A26.73,26.73,0,0,1,185.56,37c-11.14,9.46-29.8,12.42-43.27,17.54-19.14,7.28-33.18,19.4-42.67,38"/><path class="cls-1" d="M102.43,93.46c8-13.42,23.56-27.83,37.64-33.27,9.72-3.76,16.88-4.81,26.74-8.17,5.28-1.79,16-6.26,20.89-11.8-.33,1.86-.91,13.44-9.79,21.93-6.72,6.21-22.82,9.45-29.89,10.4-27.33,2.58-44.35,19.87-45.59,20.91"/><path class="cls-1" d="M104.7,95.36c8.87-8.57,22.64-15,34.21-17,14.78-1.52,22.28-3.35,34.24-8.4-1.29,9.31-8.05,15.89-18.1,18a52.81,52.81,0,0,1-13,.75c-11.71-.5-21.83-.3-32.62,4.68-.85.39-2.77,1-4.69,2"/><path class="cls-1" d="M105.84,99c6.14-4.06,10.47-4.42,17.63-5.54,5.46-.86,13.47-.38,19-.23,5.23.15,10.45.15,16.28-1.63a37.06,37.06,0,0,1-7.78,11.73c-5.18,5-11.37,6.51-17.91,3.83-8.76-3.59-17.49-8.81-27.19-8.16"/><path class="cls-1" d="M94.9,92.47a61.47,61.47,0,0,0-3.8-14.59C74,37.11,23.55,37,3.16,0A100.57,100.57,0,0,0,.49,10.84a30.46,30.46,0,0,0-.16,9.9A26.78,26.78,0,0,0,9,37c11.14,9.46,29.8,12.42,43.27,17.54,19.14,7.28,33.18,19.4,42.68,38"/><path class="cls-1" d="M92.08,93.46C84,80,68.53,65.63,54.44,60.19,44.73,56.43,37.57,55.38,27.7,52c-5.28-1.79-16-6.26-20.89-11.8.34,1.86.91,13.44,9.79,21.93,6.72,6.21,22.82,9.45,29.9,10.4,27.33,2.58,44.35,19.87,45.58,20.91"/><path class="cls-1" d="M89.82,95.36c-8.88-8.57-22.65-15-34.21-17C40.83,76.81,33.32,75,21.36,69.93c1.3,9.31,8.05,15.89,18.1,18a52.83,52.83,0,0,0,13,.75c11.71-.5,21.83-.3,32.62,4.68.86.39,2.78,1,4.7,2"/><path class="cls-1" d="M88.67,99C82.54,94.91,78.21,94.55,71,93.43c-5.46-.86-13.46-.38-19-.23-5.24.15-10.46.15-16.28-1.63,2.19,4.78,4.5,8.57,7.77,11.73,5.18,5,11.37,6.51,17.91,3.83C70.25,103.54,79,98.32,88.67,99"/><path class="cls-1" d="M73.21,132.6c-.16,1.19-.73,4.52-.92,5.33-6.24,0-9.36,0-15.6,0a.25.25,0,0,1,0-.5c2.75-.39,3-.55,3-3.36v-12.8c0-2.84-.16-3.08-2.42-3-.3,0-.43-.42,0-.5,3.85-.59,5.78-.85,9.65-1.3,3.13-.36,4.37-.51,4.63-.57,0,1.28.16,3.43.33,4.86,0,.48-.3.68-.51.15A8.37,8.37,0,0,0,70,118.13c-.58-.67-1.28-.81-3.16-.6l-2.4.28c-.67.08-.79.23-.79.87,0,3.09,0,4.64,0,7.73l3.1-.21c2.52-.17,2.61-.9,3.06-3,.06-.34.51-.33.51,0,0,2.65,0,4,0,6.63,0,.41-.46.36-.51,0-.45-2-.55-2.79-3.07-2.64l-3.1.2c0,2.76,0,4.13,0,6.89,0,2.26.49,2.68,2.47,2.69H68c1.89,0,2.35-.29,3.13-1.2a11.92,11.92,0,0,0,1.63-3.24c.14-.29.47-.32.48.09"/><path class="cls-1" d="M90.92,132.11c-.29,1.64-1.15,5.26-1.34,5.8l-15.12,0a.28.28,0,0,1,0-.55c2.81-.45,3-.73,3-3.7,0-5.57,0-8.36,0-13.93,0-3.07-.24-3.24-2.67-3.47-.29-.08-.34-.5,0-.55,3.7-.33,5.55-.46,9.25-.66.32,0,.35.5,0,.57-2.4.61-2.62.88-2.62,3.88,0,6,0,9,0,14.94,0,2.2.55,2.41,2.15,2.4h1.92c1.72,0,2.18-.29,3-1.14a13.63,13.63,0,0,0,2-3.74c.16-.28.48-.2.48.14"/><path class="cls-1" d="M108.25,132.12c-.29,1.63-1.15,5.25-1.35,5.79H91.78c-.5-.06-.44-.54,0-.57,2.82-.47,3-.76,3-3.83V119.09c0-3.17-.23-3.36-2.67-3.76-.38-.1-.3-.58,0-.57,3.71-.09,5.56-.11,9.27-.07a.29.29,0,0,1,0,.57c-2.41.48-2.63.74-2.63,3.81v15.3c0,2.25.54,2.46,2.14,2.46h1.92c1.73,0,2.19-.28,3-1.13a13.36,13.36,0,0,0,2-3.72.26.26,0,0,1,.48.14"/><path class="cls-1" d="M125.64,132.64c-.16,1.17-.74,4.48-.94,5.29l-15.59,0a.29.29,0,0,1,0-.57c2.75-.42,3-.59,3-3.73,0-5.72,0-8.58,0-14.31,0-3.17-.16-3.47-2.43-3.84-.36-.07-.47-.55,0-.57,3.88.16,5.82.27,9.7.56,3.14.24,4.38.33,4.64.32,0,1.3.15,3.48.31,5,0,.35-.38.43-.52.07a10.39,10.39,0,0,0-1.36-3.11c-.58-.78-1.28-1.06-3.17-1.2l-2.4-.16c-.67,0-.8.09-.8.79,0,3.34,0,5,0,8.34l3.1.12c2.52.11,2.62-.64,3.07-2.73.12-.34.51-.28.52,0,0,2.7,0,4,0,6.76-.06.36-.41.38-.51,0-.44-2-.54-2.9-3.06-3l-3.11-.11c0,3,0,4.46,0,7.44,0,2.44.47,2.9,2.46,2.94h1.88c1.89,0,2.35-.26,3.14-1.17a12.34,12.34,0,0,0,1.63-3.2c.17-.35.5-.15.48.12"/><path class="cls-1" d="M139.41,122.13c-.67-2.66-2.19-4.47-4.64-4.79-1.91-.25-3,1-3,3.06s1.11,3.16,3.85,5,5.19,3.7,5.19,6.94c0,3.55-3.1,6.08-7.35,6.08a18.38,18.38,0,0,1-4.82-.8c-.2-.63-.67-4.58-.7-5.11s.43-.5.51-.09c.7,2.92,2.58,5.24,5.52,5.26,2.21,0,3.17-1.48,3.17-3.6s-1.19-3.47-3.44-5c-2.87-1.93-5.2-3.8-5.19-7.2s2.6-5.83,6.83-5.24a31.1,31.1,0,0,1,4,1c.13,1.17.32,2.91.54,4.43,0,.36-.45.29-.51,0"/></g></g></svg>