<svg xmlns="http://www.w3.org/2000/svg" viewBox="0 0 198.86 177.22"><defs><style>.cls-1{fill:#f2cb35;}.cls-2{fill:#f5cb2f;}.cls-3{fill:#0f1010;}</style></defs><g id="Layer_2" data-name="Layer 2"><g id="Layer_2-2" data-name="Layer 2"><path class="cls-1" d="M116.33,74.8a2.92,2.92,0,0,1-.09.81c-.24.43-.43.34-.45.89-1.53,0-3.27-.43-4.67.35a9.37,9.37,0,0,1,3.9-.38.92.92,0,0,1,.46.14.72.72,0,0,1,.19.74,1.34,1.34,0,0,1-.81.85,4.14,4.14,0,0,1-1.43.33,9.44,9.44,0,0,1-4.26-1,19.2,19.2,0,0,1-2.32-1.35,6.15,6.15,0,0,1-2-1.78.56.56,0,0,1-.1-.46.55.55,0,0,1,.42-.24,9.4,9.4,0,0,1,4.35.59c1.36.39,2.52.87,3.89,1.26.25.07,1.07.08,1.13-.17.13-.5-.28-.89-.61-1.2a4.42,4.42,0,0,0-1.45-.9,9.36,9.36,0,0,0-3.29-.36c-.71,0-1.42,0-2.12.08-.37,0-.73.06-1.09.11-.2,0-.65.1-.81-.08a.32.32,0,0,1,0-.45c.08-.07.49-.39.58-.44a12.92,12.92,0,0,1,5.29-1.67,5.16,5.16,0,0,1,1.36.06,1.67,1.67,0,0,1,.63.3,3.64,3.64,0,0,1,.46.63.88.88,0,0,0,.48.32c.42.1.83-.19,1.24,0,.56.21.9,1,1,1.54a5.31,5.31,0,0,1,0,1.5"/><path class="cls-1" d="M84.47,66.06a1.6,1.6,0,1,1-1.59-1.73,1.67,1.67,0,0,1,1.59,1.73"/><path class="cls-1" d="M85.63,73.5c.43,1.07-1.26,2.18-2,2.62a6.3,6.3,0,0,1-2.74.83c-.68,0-1.8.06-2.11-.72s1.65-7.39,3.54-8.14,3,4.52,3.33,5.41"/><polyline class="cls-2" points="127.86 145.49 127.86 145.49 127.87 145.48 127.86 145.49"/><path class="cls-3" d="M81.52,99.27a1,1,0,0,1-.32,0,2.75,2.75,0,0,1-.93-.16,8.18,8.18,0,0,1-3-2,15.46,15.46,0,0,1-3.06-4.81A43.85,43.85,0,0,1,72,85.11c-1.32-5.43-2.33-12-4.39-19.07s-5.28-14.64-11-21A45.72,45.72,0,0,0,47.2,37.2c-3.38-2.14-6.81-3.93-10-5.82a43.15,43.15,0,0,1-8.5-6.16,24.36,24.36,0,0,1-5.34-7.43,23.59,23.59,0,0,1-1.94-7.3,32,32,0,0,1,0-5.7,30.47,30.47,0,0,1,.47-3.56l.18-.92A1.11,1.11,0,0,1,22.13,0a1.54,1.54,0,0,1,0,.32q0,.32-.12.93c-.13.81-.26,2-.36,3.56a33.59,33.59,0,0,0,.13,5.65,23.71,23.71,0,0,0,2,7.16,24.3,24.3,0,0,0,5.3,7.25,43.78,43.78,0,0,0,8.44,6c3.17,1.86,6.61,3.65,10,5.8a45.68,45.68,0,0,1,9.56,8A45.64,45.64,0,0,1,64,55a63.47,63.47,0,0,1,4.11,10.85c2,7.11,3,13.71,4.28,19.12a45.64,45.64,0,0,0,2.14,7.17A15.49,15.49,0,0,0,77.47,97,8.3,8.3,0,0,0,80.32,99a3.78,3.78,0,0,0,1.2.23"/><path class="cls-3" d="M22.13,0l-.27.24L21,.9a30,30,0,0,0-3,2.7,20,20,0,0,0-3.7,5.13,32.06,32.06,0,0,0-2.47,8,27.13,27.13,0,0,0,5,20.68,28.65,28.65,0,0,0,9.94,8.05,114.66,114.66,0,0,0,12.87,5.35c4.47,1.72,8.87,3.5,12.62,6.11a33.51,33.51,0,0,1,9.07,9.39,40.74,40.74,0,0,1,4.84,10.78c1,3.56,1.74,6.93,2.53,10a57.77,57.77,0,0,0,2.59,8,35.55,35.55,0,0,0,3,5.61,14.45,14.45,0,0,0,2.59,3.06c.7.59,1.13.83,1.11.86a6.65,6.65,0,0,1-1.19-.77,13.69,13.69,0,0,1-2.7-3A34.23,34.23,0,0,1,71,95.25a59.31,59.31,0,0,1-2.69-8.06c-.82-3-1.55-6.4-2.59-9.93a40.52,40.52,0,0,0-4.83-10.63A33.07,33.07,0,0,0,52,57.43c-3.69-2.56-8.05-4.32-12.5-6A112.29,112.29,0,0,1,26.52,46a29.16,29.16,0,0,1-10.11-8.23,27.48,27.48,0,0,1-4.94-21.08,31.69,31.69,0,0,1,2.58-8.11,20.24,20.24,0,0,1,3.83-5.14A28.89,28.89,0,0,1,21,.8c.37-.28.66-.48.86-.61A1.68,1.68,0,0,1,22.13,0"/><path class="cls-3" d="M74.53,108a1,1,0,0,1-.27-.14,8.4,8.4,0,0,1-.73-.49A15.86,15.86,0,0,1,71,105.15a22.28,22.28,0,0,1-3.09-4.36,40.28,40.28,0,0,1-2.78-6.52c-.85-2.47-1.62-5.24-2.63-8.13a78.1,78.1,0,0,0-3.73-9A49.81,49.81,0,0,0,53.08,68a31.52,31.52,0,0,0-8.63-7.56c-3.39-2.05-7.23-2.87-10.89-3.72a36.61,36.61,0,0,1-10.3-3.5,30.68,30.68,0,0,1-7.62-6.26,33.52,33.52,0,0,1-4.89-7.06A44.06,44.06,0,0,1,6.81,28.14c-.27-1.44-.41-2.57-.49-3.34,0-.38-.05-.68-.07-.87a1.13,1.13,0,0,1,0-.3.92.92,0,0,1,.06.29c0,.19.07.48.13.87.12.76.3,1.88.6,3.3a45.33,45.33,0,0,0,4.09,11.6A33.38,33.38,0,0,0,16,46.61a30.56,30.56,0,0,0,7.51,6.12,37.12,37.12,0,0,0,10.17,3.41c3.64.83,7.58,1.66,11.06,3.77a32.41,32.41,0,0,1,8.79,7.7,50.28,50.28,0,0,1,5.74,9.25A77.77,77.77,0,0,1,63,86c1,2.92,1.74,5.69,2.56,8.16a40.14,40.14,0,0,0,2.67,6.49,23.38,23.38,0,0,0,3,4.37,17.9,17.9,0,0,0,2.41,2.32c.6.48.94.69.93.72"/><path class="cls-3" d="M6.25,23.63S6,24,5.54,24.69a25.41,25.41,0,0,0-1.8,3.19,35.16,35.16,0,0,0-2.07,5.4A27.6,27.6,0,0,0,.43,40.8,31.07,31.07,0,0,0,1.56,50a22.72,22.72,0,0,0,5.09,9.17,30.3,30.3,0,0,0,9.53,6.71,70.79,70.79,0,0,0,12,4,114.09,114.09,0,0,1,12.2,3.62A48,48,0,0,1,45.89,76a28.77,28.77,0,0,1,4.89,3.19,31.3,31.3,0,0,1,6.69,8.41c1.67,2.93,3,5.76,4.25,8.32a126.24,126.24,0,0,0,6.34,11.91c.86,1.34,1.58,2.34,2.09,3l.58.76q.19.25.18.27l-.23-.24-.63-.72a34.54,34.54,0,0,1-2.18-3A112.57,112.57,0,0,1,61.34,96.1c-1.28-2.55-2.62-5.38-4.3-8.26a30.83,30.83,0,0,0-6.6-8.24,29.26,29.26,0,0,0-4.82-3.11A48.61,48.61,0,0,0,40.15,74,116,116,0,0,0,28,70.43a70.15,70.15,0,0,1-12.07-4.07A30.51,30.51,0,0,1,6.25,59.5a23,23,0,0,1-5.16-9.41A30.63,30.63,0,0,1,0,40.79a27.49,27.49,0,0,1,1.33-7.61,34.51,34.51,0,0,1,2.18-5.41,22.64,22.64,0,0,1,1.91-3.15c.24-.35.46-.58.59-.75s.21-.25.22-.24"/><path class="cls-3" d="M70.72,112.16a4.13,4.13,0,0,1-.66-.56,11.58,11.58,0,0,1-1.6-1.88c-1.28-1.72-2.9-4.37-5-7.56a84.28,84.28,0,0,0-8.31-10.47,77.86,77.86,0,0,0-5.64-5.51,40.4,40.4,0,0,0-6.83-4.94,28.82,28.82,0,0,0-8-2.49c-2.69-.53-5.31-1-7.79-1.46a60,60,0,0,1-7-1.78,35.24,35.24,0,0,1-5.78-2.46,29.63,29.63,0,0,1-7.31-5.36,19.59,19.59,0,0,1-1.61-1.86,3.78,3.78,0,0,1-.48-.72,6,6,0,0,1,.57.64c.37.42.91,1,1.68,1.78a31.61,31.61,0,0,0,7.34,5.15A36.45,36.45,0,0,0,20.08,75,61.61,61.61,0,0,0,27,76.75l7.79,1.42A29.32,29.32,0,0,1,43,80.72a40.32,40.32,0,0,1,6.93,5,76.84,76.84,0,0,1,5.66,5.58,81.22,81.22,0,0,1,8.26,10.61c2,3.24,3.6,5.9,4.82,7.66a21.77,21.77,0,0,0,2.07,2.57"/><path class="cls-3" d="M4.75,65.11s0,.33,0,1,0,1.57.08,2.78.19,2.68.4,4.38A23,23,0,0,0,6.8,78.8a28.29,28.29,0,0,0,3.55,6,18.79,18.79,0,0,0,5.87,5.37,33.55,33.55,0,0,0,8.34,3.05c3,.73,6.19,1.27,9.44,1.85a96.34,96.34,0,0,1,9.46,2,31.19,31.19,0,0,1,8.32,3.51,43.82,43.82,0,0,1,6.45,5c1.89,1.73,3.55,3.43,5.05,5,3,3.13,5.41,5.67,7.19,7.3.9.81,1.59,1.44,2.09,1.84a5.92,5.92,0,0,1,.73.65,7.42,7.42,0,0,1-.8-.56c-.53-.37-1.25-1-2.17-1.76C68.48,116.5,66,114,63,110.91c-1.52-1.54-3.19-3.21-5.08-4.91a43.22,43.22,0,0,0-6.41-4.9c-4.84-3-11.12-4.27-17.59-5.41-3.25-.57-6.44-1.12-9.48-1.87A33.28,33.28,0,0,1,16,90.68a19,19,0,0,1-6-5.55A28,28,0,0,1,6.41,79a22.43,22.43,0,0,1-1.52-5.68c-.18-1.71-.26-3.2-.3-4.41s0-2.16,0-2.79a6.4,6.4,0,0,1,.08-.73.68.68,0,0,1,0-.24"/><path class="cls-3" d="M73.29,120.41a3.36,3.36,0,0,1-.54-.29c-.34-.2-.83-.51-1.46-.92-1.25-.82-3.05-2-5.24-3.58s-4.78-3.41-7.6-5.57a43.49,43.49,0,0,0-9.7-6,42.74,42.74,0,0,0-11.09-2.67c-3.51-.41-6.69-.33-9.38-.46A18.79,18.79,0,0,1,22,99.73a7.7,7.7,0,0,1-1.53-.83,2.89,2.89,0,0,1-.47-.37c0-.06.7.46,2.09,1a19.72,19.72,0,0,0,6.19,1c2.66.07,5.88,0,9.42.34A41.52,41.52,0,0,1,49,103.49a42.28,42.28,0,0,1,9.8,6.13c2.79,2.17,5.36,4.07,7.51,5.66L71.42,119l1.4,1a2.31,2.31,0,0,1,.47.39"/><path class="cls-3" d="M20,98.53a5.28,5.28,0,0,1,.35.73c.22.49.56,1.2,1.05,2.09a61.49,61.49,0,0,0,4.89,7c4.39,5.7,14,10.76,25.1,10.74,2.76.12,5.48.19,8.09.49a24.71,24.71,0,0,1,7.37,1.86c4.44,2,7.64,5.14,10.26,7.63s4.77,4.53,6.57,5.46a13,13,0,0,0,2.92,1.09,3.8,3.8,0,0,1-.81-.1,4.66,4.66,0,0,1-1-.26,7.81,7.81,0,0,1-1.26-.53c-1.87-.88-4.11-2.87-6.75-5.36S71,124,66.64,122s-9.75-2-15.26-2.26a46.16,46.16,0,0,1-8.08-.89,35.74,35.74,0,0,1-7.19-2.43A26.75,26.75,0,0,1,26,108.65a54.21,54.21,0,0,1-4.76-7.2,19.53,19.53,0,0,1-1-2.14,4,4,0,0,1-.24-.78"/><path class="cls-3" d="M85.56,140.11a1.91,1.91,0,0,1-.5,0,9.26,9.26,0,0,1-1.43-.13,14.38,14.38,0,0,1-5-1.8,30.64,30.64,0,0,1-6.15-4.85c-1.06-1-2.12-2.14-3.22-3.3a17.13,17.13,0,0,0-3.64-3.19,19.65,19.65,0,0,0-9-2.35c-2.91-.17-5.56-.11-7.78-.17a38.84,38.84,0,0,1-5.25-.45c-.62-.1-1.08-.24-1.4-.31a1.71,1.71,0,0,1-.48-.15,14.93,14.93,0,0,1,1.91.23,50.09,50.09,0,0,0,5.23.26c2.21,0,4.85-.1,7.8,0A19.8,19.8,0,0,1,66,126.35a17.74,17.74,0,0,1,3.76,3.3c1.09,1.16,2.14,2.29,3.17,3.31a31.39,31.39,0,0,0,6,4.87,15.19,15.19,0,0,0,4.79,1.94,10.75,10.75,0,0,0,1.4.24,1.47,1.47,0,0,1,.49.1"/><path class="cls-3" d="M41.75,123.43c.06,0,.39.79,1.26,2.11a20.63,20.63,0,0,0,4.6,4.8,23.18,23.18,0,0,0,3.92,2.4,11,11,0,0,0,2.38.86,15.13,15.13,0,0,0,2.67.31,20.93,20.93,0,0,1,5.92.68,26.34,26.34,0,0,1,5.58,3.09,48.2,48.2,0,0,0,11,5.2,23.68,23.68,0,0,0,9.77,1c2.81-.32,5.1-.69,6.7-.71a14.1,14.1,0,0,1,1.84,0,2.36,2.36,0,0,1,.63.1c0,.05-.88,0-2.46.09s-3.84.52-6.67.89a23.62,23.62,0,0,1-10-.88,47.09,47.09,0,0,1-11.1-5.23,27,27,0,0,0-5.46-3,20.56,20.56,0,0,0-5.75-.68,16.65,16.65,0,0,1-2.77-.35,11.17,11.17,0,0,1-2.47-.93,22.64,22.64,0,0,1-4-2.51,19.32,19.32,0,0,1-4.54-5A12,12,0,0,1,42,124a2.72,2.72,0,0,1-.22-.6"/><path class="cls-3" d="M120.69,97.77s.31-.28.84-.87a13.52,13.52,0,0,0,2-2.84c1.45-2.65,2.61-6.89,3.67-12.18a173,173,0,0,1,4.36-18.5A59.55,59.55,0,0,1,135.92,53a42.42,42.42,0,0,1,7.18-9.71,30,30,0,0,1,2.25-2.12l1.14-1,1.22-.91c.82-.6,1.6-1.23,2.43-1.78s1.66-1.07,2.49-1.58c3.34-2,6.67-3.75,9.73-5.59a40.2,40.2,0,0,0,8-6,22.94,22.94,0,0,0,4.92-7.18,24.55,24.55,0,0,0,1.81-7,34.37,34.37,0,0,0,.09-5.48c-.11-1.5-.23-2.67-.35-3.45q-.08-.6-.12-.9a1.44,1.44,0,0,1,0-.31,1.1,1.1,0,0,1,.08.3l.18.89a34.32,34.32,0,0,1,.46,3.45,32.57,32.57,0,0,1,0,5.53,24.35,24.35,0,0,1-1.76,7.11,23.06,23.06,0,0,1-4.95,7.36,40.28,40.28,0,0,1-8.11,6.15c-3.07,1.86-6.39,3.61-9.71,5.62-.82.5-1.65,1-2.47,1.57s-1.58,1.17-2.39,1.76l-1.2.9-1.13,1a25.68,25.68,0,0,0-2.22,2.09,42.19,42.19,0,0,0-7.1,9.57A61.29,61.29,0,0,0,132,63.55,181.6,181.6,0,0,0,127.56,82c-1.11,5.28-2.35,9.54-3.88,12.2A12.72,12.72,0,0,1,121.62,97a5.28,5.28,0,0,1-.93.79"/><path class="cls-3" d="M176.58.14a25,25,0,0,1,4.13,3.33,20.24,20.24,0,0,1,3.79,4.95,30.67,30.67,0,0,1,2.63,7.84A27.48,27.48,0,0,1,183,36.92a23.41,23.41,0,0,1-4.13,4.69,31.37,31.37,0,0,1-5.3,3.79,87.41,87.41,0,0,1-12.48,5.45,76.22,76.22,0,0,0-12.36,5.48,31.77,31.77,0,0,0-5.19,3.74,35.13,35.13,0,0,0-4.16,4.51,37.19,37.19,0,0,0-5.44,9.94,93,93,0,0,0-2.73,9.57c-.74,3-1.45,5.64-2.24,7.94a38.06,38.06,0,0,1-2.45,5.73,32.89,32.89,0,0,1-2.06,3.35c-.27.37-.48.64-.63.82s-.23.26-.24.25a1.65,1.65,0,0,1,.19-.29l.58-.84c.49-.75,1.18-1.89,2-3.39a40.77,40.77,0,0,0,2.33-5.74c.76-2.29,1.44-5,2.15-7.93a94.11,94.11,0,0,1,2.68-9.64,37.61,37.61,0,0,1,5.46-10.11,35.59,35.59,0,0,1,4.22-4.59,32.7,32.7,0,0,1,5.27-3.82,77.1,77.1,0,0,1,12.45-5.54,85.56,85.56,0,0,0,12.4-5.4,30.8,30.8,0,0,0,5.21-3.71,23,23,0,0,0,4.06-4.56,27.28,27.28,0,0,0,4.17-20.28,31.16,31.16,0,0,0-2.51-7.76,20.63,20.63,0,0,0-3.66-4.95A35.41,35.41,0,0,0,177.64,1l-.8-.64a1.42,1.42,0,0,1-.26-.23"/><path class="cls-3" d="M127.79,104.92s.24-.31.69-.9a27.12,27.12,0,0,0,1.8-2.66,51.26,51.26,0,0,0,4.24-11A79.62,79.62,0,0,1,141.1,74a42.82,42.82,0,0,1,6.09-8.49,29.23,29.23,0,0,1,9-6.64c3.54-1.65,7.28-2.26,10.77-3.12a43.71,43.71,0,0,0,5.06-1.47,23.91,23.91,0,0,0,4.5-2.24,32,32,0,0,0,7-6.16A33.29,33.29,0,0,0,188,39.08a46.28,46.28,0,0,0,3.82-11.17c.28-1.37.45-2.44.56-3.17.06-.37.1-.64.13-.83a1,1,0,0,1,.06-.28,1,1,0,0,1,0,.28c0,.19,0,.47-.07.84-.07.74-.2,1.82-.46,3.21a44,44,0,0,1-3.66,11.31,33.49,33.49,0,0,1-4.52,6.89,32.32,32.32,0,0,1-7.06,6.3,24.05,24.05,0,0,1-4.59,2.31,44.14,44.14,0,0,1-5.13,1.51c-3.5.86-7.22,1.48-10.65,3.09a28.85,28.85,0,0,0-8.86,6.5,43.11,43.11,0,0,0-6,8.36,81.38,81.38,0,0,0-6.65,16.22,48,48,0,0,1-4.45,11,21.42,21.42,0,0,1-1.9,2.62,8.27,8.27,0,0,1-.57.62c-.13.14-.2.21-.21.2"/><path class="cls-3" d="M192.61,23.63s.08.07.22.24.35.4.59.75a22.86,22.86,0,0,1,1.91,3.16,33.72,33.72,0,0,1,2.18,5.42,28.07,28.07,0,0,1,1.34,7.63,31.45,31.45,0,0,1-1.09,9.32,23,23,0,0,1-5.21,9.41,30.55,30.55,0,0,1-9.73,6.85,71.45,71.45,0,0,1-12.11,4.06,111.57,111.57,0,0,0-12.16,3.62,38.08,38.08,0,0,0-10.28,5.63A32.25,32.25,0,0,0,141.7,88c-1.66,2.91-3,5.73-4.3,8.29a109.85,109.85,0,0,1-6.58,11.85,34.68,34.68,0,0,1-2.21,3l-.64.72c-.14.16-.22.24-.23.23a1.25,1.25,0,0,1,.19-.27l.59-.75c.51-.67,1.24-1.67,2.11-3A119.94,119.94,0,0,0,137,96.13c1.26-2.56,2.59-5.4,4.26-8.34a31.86,31.86,0,0,1,6.64-8.48,38.07,38.07,0,0,1,10.42-5.76,109.42,109.42,0,0,1,12.22-3.66,71.51,71.51,0,0,0,12-4,30.41,30.41,0,0,0,9.57-6.7A22.63,22.63,0,0,0,197.28,50a30.92,30.92,0,0,0,1.15-9.18,28.23,28.23,0,0,0-1.23-7.54,34.62,34.62,0,0,0-2.08-5.41,24.45,24.45,0,0,0-1.8-3.2c-.46-.7-.73-1.05-.71-1.06"/><path class="cls-3" d="M128,112.42s.21-.22.58-.64a19.1,19.1,0,0,0,1.49-2c1.23-1.75,2.8-4.43,4.84-7.68a80.77,80.77,0,0,1,8.26-10.67,77.33,77.33,0,0,1,5.67-5.62,41.08,41.08,0,0,1,6.93-5.07,28.53,28.53,0,0,1,8.19-2.59l7.83-1.43a45.63,45.63,0,0,0,12.72-4.07,30.85,30.85,0,0,0,7.37-5.17c.77-.73,1.31-1.36,1.69-1.78a4.84,4.84,0,0,1,.57-.64,4.56,4.56,0,0,1-.48.72A23.11,23.11,0,0,1,192,67.7a29.44,29.44,0,0,1-7.34,5.37,44.47,44.47,0,0,1-12.81,4.23l-7.81,1.47a27.84,27.84,0,0,0-8,2.54,40.87,40.87,0,0,0-6.84,5,74.26,74.26,0,0,0-5.64,5.55,83.54,83.54,0,0,0-8.31,10.53c-2.09,3.21-3.72,5.86-5,7.58a16,16,0,0,1-1.59,1.9,3.35,3.35,0,0,1-.67.56"/><path class="cls-3" d="M194.11,65.11a.68.68,0,0,1,0,.24,6.4,6.4,0,0,1,.08.73c0,.63.06,1.58,0,2.79s-.12,2.7-.3,4.41A22.86,22.86,0,0,1,192.45,79a28,28,0,0,1-3.55,6.17,19.1,19.1,0,0,1-6,5.55,33.28,33.28,0,0,1-8.47,3.14c-3,.75-6.23,1.3-9.48,1.87-6.47,1.14-12.75,2.36-17.59,5.41A43.22,43.22,0,0,0,141,106c-1.89,1.7-3.56,3.37-5.08,4.91-3,3.09-5.5,5.59-7.34,7.18-.92.79-1.65,1.39-2.17,1.76a7.42,7.42,0,0,1-.8.56,5.92,5.92,0,0,1,.73-.65c.49-.4,1.19-1,2.09-1.84,1.78-1.63,4.19-4.17,7.19-7.3,1.5-1.56,3.16-3.26,5-5a43.3,43.3,0,0,1,6.45-5,31.19,31.19,0,0,1,8.32-3.51,96.34,96.34,0,0,1,9.46-2c3.25-.58,6.43-1.12,9.44-1.85a33.55,33.55,0,0,0,8.34-3.05,18.64,18.64,0,0,0,5.86-5.37,27.94,27.94,0,0,0,3.56-6,23,23,0,0,0,1.58-5.56c.21-1.7.32-3.17.4-4.38s.09-2.14.08-2.78,0-1,0-1"/><path class="cls-3" d="M125.57,120.41A2.31,2.31,0,0,1,126,120l1.39-1,5.14-3.73c2.15-1.59,4.71-3.49,7.5-5.66a42.56,42.56,0,0,1,9.81-6.13,41.52,41.52,0,0,1,11.26-2.67c3.54-.39,6.76-.27,9.42-.34a19.77,19.77,0,0,0,6.19-1c1.39-.52,2.06-1,2.09-1a2.89,2.89,0,0,1-.47.37,8,8,0,0,1-1.53.83,18.84,18.84,0,0,1-6.26,1.17c-2.69.13-5.88,0-9.38.46A42.74,42.74,0,0,0,150.11,104a43.49,43.49,0,0,0-9.7,6c-2.82,2.16-5.41,4-7.6,5.57s-4,2.76-5.24,3.58c-.63.41-1.13.72-1.47.92a3.09,3.09,0,0,1-.53.29"/><path class="cls-3" d="M178.84,98.53a4,4,0,0,1-.24.78,19.53,19.53,0,0,1-1,2.14,54.21,54.21,0,0,1-4.76,7.2,26.75,26.75,0,0,1-10.13,7.75,35.74,35.74,0,0,1-7.19,2.43,46.16,46.16,0,0,1-8.08.89c-5.52.23-10.9.3-15.27,2.26s-7.54,5-10.19,7.43-4.88,4.48-6.75,5.36a7.81,7.81,0,0,1-1.26.53,4.66,4.66,0,0,1-1,.26,3.8,3.8,0,0,1-.81.1,13,13,0,0,0,2.92-1.09c1.8-.93,4-2.94,6.57-5.46s5.82-5.58,10.26-7.63a24.72,24.72,0,0,1,7.36-1.86c2.62-.3,5.34-.37,8.1-.49,11.11,0,20.71-5,25.1-10.74a61.49,61.49,0,0,0,4.89-7c.49-.89.82-1.6,1.05-2.09a4.13,4.13,0,0,1,.35-.73"/><path class="cls-3" d="M113.3,140.11a1.38,1.38,0,0,1,.49-.1,10.75,10.75,0,0,0,1.4-.24,15.19,15.19,0,0,0,4.79-1.94,31.39,31.39,0,0,0,6-4.87c1-1,2.08-2.15,3.17-3.31a17.74,17.74,0,0,1,3.76-3.3,19.8,19.8,0,0,1,9.28-2.38c3-.15,5.59,0,7.8,0a50.09,50.09,0,0,0,5.23-.26,14.93,14.93,0,0,1,1.91-.23,1.71,1.71,0,0,1-.48.15c-.32.07-.79.21-1.4.31a38.84,38.84,0,0,1-5.25.45c-2.22.06-4.87,0-7.78.17a19.65,19.65,0,0,0-9,2.35,16.89,16.89,0,0,0-3.64,3.19c-1.1,1.16-2.16,2.28-3.22,3.3a30.64,30.64,0,0,1-6.15,4.85,14.38,14.38,0,0,1-5,1.8,9.26,9.26,0,0,1-1.43.13,1.91,1.91,0,0,1-.5,0"/><path class="cls-3" d="M157.11,123.43a2.72,2.72,0,0,1-.22.6,12,12,0,0,1-.85,1.64,19.7,19.7,0,0,1-4.54,5,22.64,22.64,0,0,1-4,2.51,11.17,11.17,0,0,1-2.47.93,16.65,16.65,0,0,1-2.77.35,20.56,20.56,0,0,0-5.75.68,27,27,0,0,0-5.46,3,47.09,47.09,0,0,1-11.1,5.23,23.62,23.62,0,0,1-10,.88c-2.84-.37-5.09-.8-6.67-.89s-2.46,0-2.46-.09a2.36,2.36,0,0,1,.63-.1,14.1,14.1,0,0,1,1.84,0c1.6,0,3.89.39,6.7.71a23.68,23.68,0,0,0,9.77-1,48.2,48.2,0,0,0,11-5.2,26.34,26.34,0,0,1,5.58-3.09,20.9,20.9,0,0,1,5.91-.68,15.25,15.25,0,0,0,2.68-.31,11,11,0,0,0,2.38-.86,23.07,23.07,0,0,0,3.91-2.4,20.5,20.5,0,0,0,4.61-4.8c.87-1.32,1.2-2.14,1.26-2.11"/><path class="cls-3" d="M81.93,69.64l-.12.16c-.08.1-.2.26-.35.48a3.29,3.29,0,0,0-.41.86,2.06,2.06,0,0,0,0,1.3,1.09,1.09,0,0,0,1.31.69,1.12,1.12,0,0,0,.7-.58,3.24,3.24,0,0,0,.23-1,9,9,0,0,0-.21-2.37,4.07,4.07,0,0,0-.34-1.26c-.19-.4-.47-.79-.66-1.25a1.62,1.62,0,0,1,.08-1.51,1.46,1.46,0,0,1,1.53-.44,1.44,1.44,0,0,1,1,1.29,1.28,1.28,0,0,1-.26.87,1.36,1.36,0,0,1-.83.4A3.29,3.29,0,0,1,81.82,67a7.49,7.49,0,0,1-1.57-1.09A2.28,2.28,0,0,1,79.73,64a4,4,0,0,1,1-1.79l3-3a29.55,29.55,0,0,0,2.77-3.56l2.7-4c.91-1.36,1.77-2.81,2.6-4.32L93.07,45c.44-.76.9-1.53,1.35-2.32a49.61,49.61,0,0,1,3-4.71,24.05,24.05,0,0,1,4-4.16,14.11,14.11,0,0,1,2.52-1.63,13.64,13.64,0,0,1,2.88-1,15.22,15.22,0,0,1,12.11,2.48,11.59,11.59,0,0,1,1.26,1.06,8.81,8.81,0,0,1,1.14,1.22,11.79,11.79,0,0,1,1.62,2.93,20.44,20.44,0,0,1,.9,3.26c.23,1.11.44,2.23.61,3.36a51.14,51.14,0,0,1,.62,6.94,16.55,16.55,0,0,1-1.51,7,1.72,1.72,0,0,1-.55.77l-.36.28a1.2,1.2,0,0,1-.46.21,4.23,4.23,0,0,1-1.85-.2,10.19,10.19,0,0,1-3.4-1.41,1.19,1.19,0,0,1-.57-.82.89.89,0,0,1,.6-.83,2.75,2.75,0,0,1,1.9.12,7,7,0,0,1,3.15,2,4.21,4.21,0,0,1,.78,1.74,13.21,13.21,0,0,1,.29,1.87,22.78,22.78,0,0,1,.27,3.79,12.57,12.57,0,0,1-.66,3.78A21,21,0,0,1,121,74.13c-.66,1.11-1.34,2.2-1.95,3.34s-1.2,2.29-1.8,3.45-1.27,2.29-2,3.39a10.64,10.64,0,0,1-2.64,3,6.25,6.25,0,0,1-3.82,1,11.1,11.1,0,0,1-3.82-1,47,47,0,0,1-7.19-3,51,51,0,0,1-6.53-4c-1-.77-1.95-1.62-2.88-2.47a6.54,6.54,0,0,1-1.21-1.46,7.68,7.68,0,0,1-.62-1.8L85.78,71c-.12-.6-.26-1.21-.35-1.81a1.79,1.79,0,0,0-.32-.79,1,1,0,0,0-.32-.26l-.18-.1a.15.15,0,0,0-.13,0c-.18.11-.23.44-.21.73v2.73c0,1.21,0,2.41,0,3.61,0,2.4,0,4.76,0,7.11s.1,4.66-.07,6.94a22.54,22.54,0,0,1-1.21,6.67c-.36,1.06-.76,2.1-1.2,3.11a20.11,20.11,0,0,1-1.48,2.93,26.14,26.14,0,0,1-4.21,4.84c-1.54,1.44-3.06,2.83-4.46,4.3a3.93,3.93,0,0,0-.86,1.19,1.21,1.21,0,0,0,.14,1.31,5,5,0,0,0,2.55,1.29,36.8,36.8,0,0,0,5.73.25,50.75,50.75,0,0,0,10.78-.88c1.68-.39,3.3-.88,4.91-1.24a14.38,14.38,0,0,1,2.42-.4,2.35,2.35,0,0,1,2.16.95,2.63,2.63,0,0,1,.3,2.29,3.18,3.18,0,0,1-1.49,1.71,5.65,5.65,0,0,1-2.1.62c-.71.09-1.4.14-2.09.18-2.75.14-5.31.14-7.66.21s-4.51,0-6.43.11a3.52,3.52,0,0,0-1.33.32.81.81,0,0,0-.25,1.08,1.43,1.43,0,0,0,.15.27,1,1,0,0,1,.12.31,2.24,2.24,0,0,1,0,.63,1.2,1.2,0,0,1-.53,1,2.63,2.63,0,0,1-2-.13,13.89,13.89,0,0,1-1.54-.75c-.88-.52-1.53-1-2-1.27s-.63-.47-.63-.47l.66.43c.43.3,1.08.73,2,1.23a12.92,12.92,0,0,0,1.53.73,2.62,2.62,0,0,0,1.95.13,1.1,1.1,0,0,0,.46-.94,2.39,2.39,0,0,0,0-.59,1,1,0,0,0-.1-.26,1.69,1.69,0,0,1-.17-.29,1.2,1.2,0,0,1-.1-.68.81.81,0,0,1,.4-.58,3.32,3.32,0,0,1,1.39-.35c1.94-.1,4.09-.1,6.44-.14s4.92-.08,7.66-.23a10,10,0,0,0,4.1-.78,2.94,2.94,0,0,0,1.39-1.59,2.45,2.45,0,0,0-.27-2.12,2.14,2.14,0,0,0-2-.85,15.14,15.14,0,0,0-2.38.39c-1.6.37-3.22.86-4.91,1.25a50.67,50.67,0,0,1-10.83.89,35.36,35.36,0,0,1-5.78-.26,5.11,5.11,0,0,1-2.67-1.36,1.18,1.18,0,0,1-.31-.75,1.91,1.91,0,0,1,.13-.78,4.11,4.11,0,0,1,.91-1.26C73,109.36,74.5,108,76,106.52a26,26,0,0,0,4.19-4.79,20.7,20.7,0,0,0,1.46-2.9c.43-1,.83-2,1.19-3.09a22.79,22.79,0,0,0,1.2-6.61c.16-2.28.07-4.59.06-6.93s0-4.71,0-7.11c0-1.19,0-2.4,0-3.61V68.75a1,1,0,0,1,.33-.93c.84-.07,1.19.71,1.28,1.3s.24,1.2.36,1.81l.75,3.64a7.57,7.57,0,0,0,.58,1.72,6.46,6.46,0,0,0,1.18,1.42c.93.85,1.86,1.68,2.86,2.45a51.64,51.64,0,0,0,6.5,4,47.9,47.9,0,0,0,7.17,2.93,10.71,10.71,0,0,0,3.74,1,6.08,6.08,0,0,0,3.67-1,10.52,10.52,0,0,0,2.57-2.9c.72-1.09,1.37-2.22,2-3.37l1.8-3.46c.61-1.14,1.3-2.24,2-3.34,3-4.23,2.84-10,1-14.34a6.63,6.63,0,0,0-3-1.94,2.46,2.46,0,0,0-1.7-.12.62.62,0,0,0-.44.55,1,1,0,0,0,.47.62,9.87,9.87,0,0,0,3.3,1.35,4,4,0,0,0,1.72.21,1.25,1.25,0,0,0,.35-.16l.35-.28a1.44,1.44,0,0,0,.47-.68,16.19,16.19,0,0,0,1.48-6.83,50.55,50.55,0,0,0-.62-6.88c-.17-1.13-.38-2.24-.61-3.35a20,20,0,0,0-.89-3.21,11.55,11.55,0,0,0-1.58-2.86A7.69,7.69,0,0,0,120,34.9a13.65,13.65,0,0,0-1.24-1,14.93,14.93,0,0,0-11.86-2.43,12.89,12.89,0,0,0-2.82,1A13.45,13.45,0,0,0,101.6,34a23.83,23.83,0,0,0-4,4.1,48.6,48.6,0,0,0-2.93,4.69L93.31,45.1c-.42.78-.85,1.54-1.26,2.3-.84,1.51-1.71,3-2.63,4.34s-1.83,2.69-2.71,4a28.16,28.16,0,0,1-2.8,3.59l-3,3A3.82,3.82,0,0,0,80,64a2,2,0,0,0,.46,1.72,7.25,7.25,0,0,0,1.5,1.05,3.14,3.14,0,0,0,1.7.27,1.18,1.18,0,0,0,.71-.33,1.05,1.05,0,0,0,.21-.73,1.24,1.24,0,0,0-.89-1.12,1.28,1.28,0,0,0-1.33.36,1.43,1.43,0,0,0-.07,1.35c.17.44.45.82.64,1.25a4.07,4.07,0,0,1,.35,1.29,9.18,9.18,0,0,1,.19,2.41,3.42,3.42,0,0,1-.25,1.06,1.24,1.24,0,0,1-.78.64A1.19,1.19,0,0,1,81,72.47a2.13,2.13,0,0,1,0-1.35,3.67,3.67,0,0,1,.45-.87,3.86,3.86,0,0,1,.5-.61"/><path class="cls-3" d="M126.49,119.7s-.23.21-.7.57a6.37,6.37,0,0,1-.93.58,1,1,0,0,1-.34.09.26.26,0,0,1-.26-.28,2.08,2.08,0,0,1,.19-.79,40.71,40.71,0,0,1,1.85-3.64c.37-.7.77-1.46,1.13-2.28a3.9,3.9,0,0,0,.37-1.29c0-.18-.15-.42-.16-.68a3.31,3.31,0,0,1,0-.77c.09-1,.39-2,.59-3.09a4.63,4.63,0,0,0,.09-1.61,2.82,2.82,0,0,0-.89-1.37,3.79,3.79,0,0,0-1.6-.63,2.84,2.84,0,0,1-1.68-.89,4,4,0,0,1-.49-.85,6,6,0,0,0-.45-.82,5.94,5.94,0,0,0-1.26-1.43.73.73,0,0,0-.79-.17,2.52,2.52,0,0,0-.7.62c-.42.49-.7,1.15-1.13,1.71a28.68,28.68,0,0,1-2.74,3.26c-1,1.06-2,2.12-3.07,3.15a12.5,12.5,0,0,1-3.75,2.59,7,7,0,0,1-2.26.51,2.43,2.43,0,0,1-2.09-1,2.6,2.6,0,0,1-.29-2.25,3.37,3.37,0,0,1,1.39-1.75c1.23-.83,2.62-1.2,3.79-1.91s2.44-1.28,3.53-2a7.32,7.32,0,0,0,2.51-2.8,11.85,11.85,0,0,0,1.13-3.42,33.17,33.17,0,0,0,.31-3.38,4.86,4.86,0,0,1,1.07-3,19.09,19.09,0,0,1,2.11-2c.72-.54,1.41-1,2-1.53a17.35,17.35,0,0,0,2.89-2.84,9.13,9.13,0,0,0,1.31-2.2c.11-.27.16-.49.21-.63l.08-.22a6,6,0,0,1-.24.87A8.61,8.61,0,0,1,126,84.51a17.73,17.73,0,0,1-2.88,2.9c-.62.51-1.31,1-2,1.55A19.49,19.49,0,0,0,119,90.9a4.74,4.74,0,0,0-1,2.85,32.25,32.25,0,0,1-.29,3.41,12.09,12.09,0,0,1-1.14,3.49,7.67,7.67,0,0,1-2.59,2.91c-1.11.74-2.34,1.33-3.54,2s-2.6,1.11-3.77,1.91a3,3,0,0,0-1.27,1.6,2.27,2.27,0,0,0,.26,2,2.09,2.09,0,0,0,1.83.82,6.76,6.76,0,0,0,2.16-.48,12.55,12.55,0,0,0,3.66-2.53c1.07-1,2.09-2.09,3.06-3.14a29,29,0,0,0,2.72-3.22c.42-.55.68-1.18,1.14-1.73a2.72,2.72,0,0,1,.81-.69,1,1,0,0,1,1.06.2,5.88,5.88,0,0,1,1.32,1.51c.39.54.55,1.2.92,1.65.77,1,2.25.66,3.24,1.49a3.06,3.06,0,0,1,1,1.5,4.61,4.61,0,0,1-.1,1.71c-.21,1.08-.51,2.09-.6,3.07a3.46,3.46,0,0,0,0,.72c0,.23.17.41.16.71a4,4,0,0,1-.4,1.37c-.37.83-.78,1.58-1.16,2.28-.76,1.39-1.46,2.58-1.89,3.6a2.25,2.25,0,0,0-.19.74c0,.27.29.2.46.12a6.53,6.53,0,0,0,.93-.55c.25-.17.42-.31.55-.39l.19-.13"/><path class="cls-3" d="M119.17,52.51a3.67,3.67,0,0,1,.72-.09,19,19,0,0,1,2,0,8.81,8.81,0,0,1,1.37.19,5.52,5.52,0,0,1,.74.21,2.64,2.64,0,0,1,.7.45c.21.15.32.05.42-.22a2.43,2.43,0,0,0,.11-.82c0-.59,0-1.25-.53-1.55A12.25,12.25,0,0,0,123,50a6.37,6.37,0,0,0-1.62-.47,3.48,3.48,0,0,0-2.48,1.16,2.29,2.29,0,0,0-.58.9.73.73,0,0,0,.2.71,1.86,1.86,0,0,0,.65.24s-.07,0-.19,0a1,1,0,0,1-.53-.16.85.85,0,0,1-.29-.84,2.27,2.27,0,0,1,.59-1,3.54,3.54,0,0,1,2.64-1.29,6.4,6.4,0,0,1,1.7.46,11,11,0,0,1,1.76.71,1.32,1.32,0,0,1,.58.84,5.15,5.15,0,0,1,.07.94,2.6,2.6,0,0,1-.13.92.79.79,0,0,1-.3.42.53.53,0,0,1-.54-.06c-.26-.17-.41-.37-.64-.43a5.83,5.83,0,0,0-.71-.22,10.2,10.2,0,0,0-1.32-.23c-1.65-.08-2.7,0-2.69-.07"/><path class="cls-3" d="M118,57.39a2.45,2.45,0,0,1,.63.12l.73.18a3.85,3.85,0,0,1,1,.33,3,3,0,0,1,1,.76c.14.16.28.34.43.5s.32.37.48.53.35.28.42.17a1,1,0,0,0,.24-.63,2.19,2.19,0,0,0-.5-1.42,4.08,4.08,0,0,0-1.08-1.14,3.55,3.55,0,0,0-1.39-.45,5.08,5.08,0,0,0-1.35,0,2.91,2.91,0,0,0-1.1.31c-.14.09-.12.16,0,.26a2.29,2.29,0,0,0,.42.15,6.27,6.27,0,0,1,.69.29c.38.17.59.24.59.26a1.66,1.66,0,0,1-.63-.15,7,7,0,0,0-.7-.24,1.87,1.87,0,0,1-.47-.16.38.38,0,0,1-.18-.28.37.37,0,0,1,.18-.31,3.25,3.25,0,0,1,1.19-.37,5.07,5.07,0,0,1,1.41,0,4,4,0,0,1,1.51.47,2.31,2.31,0,0,1,.65.56c.17.21.35.42.52.66a2.42,2.42,0,0,1,.55,1.61,1.32,1.32,0,0,1-.32.8.41.41,0,0,1-.5.09A1.17,1.17,0,0,1,122,60a6.46,6.46,0,0,0-.46-.54c-.16-.18-.3-.36-.43-.52a2.91,2.91,0,0,0-.89-.74,3.84,3.84,0,0,0-.91-.35l-.72-.23a2.39,2.39,0,0,1-.59-.23"/><path class="cls-3" d="M116.2,75.72a1.71,1.71,0,0,0,.1-.55,11.15,11.15,0,0,0-.06-1.63,3,3,0,0,0-.37-1.08,1.11,1.11,0,0,0-1-.68,4.24,4.24,0,0,1-.78.1.85.85,0,0,1-.71-.51c-.2-.56-.83-.7-1.44-.77a9.11,9.11,0,0,0-4,.79,8.46,8.46,0,0,0-2.09.93,2.73,2.73,0,0,0-.47.31c-.12.13-.16.26-.06.3a3.7,3.7,0,0,0,1.16,0,18.3,18.3,0,0,1,2.58-.08,20.87,20.87,0,0,1,2.7.18,4.39,4.39,0,0,1,2.51,1.29,2.51,2.51,0,0,1,.46.6.59.59,0,0,1,.05.46.62.62,0,0,1-.35.31,2.34,2.34,0,0,1-1.5-.23c-.9-.32-1.82-.58-2.73-.83s-1.8-.52-2.69-.68a8.46,8.46,0,0,0-1.32-.22,2,2,0,0,0-1.18.14c-.22.21.15.6.45.87s.61.59,1,.84a19.23,19.23,0,0,0,2,1.39,12,12,0,0,0,2.1.91,10.55,10.55,0,0,0,2.08.43,4.82,4.82,0,0,0,1.94-.09,2.52,2.52,0,0,0,1.44-.91c.47-.54-.38-.63-.79-.78a6.09,6.09,0,0,0-1.38-.12,8.55,8.55,0,0,0-1.17,0,4.51,4.51,0,0,0-1.56.4,1.87,1.87,0,0,0-.46.32,1.06,1.06,0,0,1,.43-.37,4.58,4.58,0,0,1,1.58-.47,8.51,8.51,0,0,1,1.18-.07,5.93,5.93,0,0,1,1.42.1,6,6,0,0,1,.76.24.41.41,0,0,1,.31.36.81.81,0,0,1-.16.45,2.82,2.82,0,0,1-1.55,1,5.37,5.37,0,0,1-2,.11,10.41,10.41,0,0,1-2.14-.43,12,12,0,0,1-2.15-.91,20,20,0,0,1-2-1.41c-.34-.26-.64-.57-1-.85a3.63,3.63,0,0,1-.46-.49.58.58,0,0,1,0-.78,2.19,2.19,0,0,1,1.4-.23,9.25,9.25,0,0,1,1.35.22c.91.17,1.8.43,2.71.68s1.83.51,2.75.84c.45.15.92.38,1.29.24s0-.59-.26-.89a4.09,4.09,0,0,0-2.35-1.21,20,20,0,0,0-2.66-.19,19.7,19.7,0,0,0-2.56.07l-.63,0a1.17,1.17,0,0,1-.67-.09.38.38,0,0,1-.19-.4.7.7,0,0,1,.2-.32,2.64,2.64,0,0,1,.52-.35,9,9,0,0,1,2.13-.93,9.43,9.43,0,0,1,4.1-.77,3.34,3.34,0,0,1,.93.23,1.48,1.48,0,0,1,.4.27,2.36,2.36,0,0,1,.24.38c.14.26.3.43.56.44a5.48,5.48,0,0,0,.76-.1,1.25,1.25,0,0,1,1.17.78,2.93,2.93,0,0,1,.37,1.14,9.74,9.74,0,0,1,0,1.64,1.24,1.24,0,0,1-.16.55"/><path class="cls-3" d="M107.88,84.55a2.38,2.38,0,0,1,0,.47,13.05,13.05,0,0,0,0,1.36,28.66,28.66,0,0,0,.63,5,29.53,29.53,0,0,0,.82,3.35c.4,1.18.92,2.39,1.45,3.69.13.33.26.66.38,1a3.69,3.69,0,0,1,.25,1.13.27.27,0,0,1-.12.21c-.06.05-.19,0-.22,0a1.08,1.08,0,0,1-.31-.07,1.58,1.58,0,0,1-.51-.32,4,4,0,0,1-.72-.93,15.91,15.91,0,0,1-1-2.12,9,9,0,0,1-.5-2.37,13.92,13.92,0,0,1,0-2.42l0-.29a.65.65,0,0,1,.14-.34,1,1,0,0,1,.58-.33,5.35,5.35,0,0,1,1.18-.09,19.84,19.84,0,0,0,4.35-.39c.68-.12,1.35-.26,2-.43a6.06,6.06,0,0,0,1.71-.79,10.07,10.07,0,0,1,1.61-.87,1.53,1.53,0,0,1,.9-.09.83.83,0,0,1,.62.63,1.56,1.56,0,0,1-.21.79,2.33,2.33,0,0,0-.12.69c0,.47,0,.92,0,1.34a11.8,11.8,0,0,0,.32,2.11,12.31,12.31,0,0,0,.41,1.3c.11.29.18.44.17.44a7,7,0,0,1-.69-1.71,12.3,12.3,0,0,1-.38-2.13,11.64,11.64,0,0,1-.06-1.36,2.5,2.5,0,0,1,.12-.75,1.44,1.44,0,0,0,.19-.69.62.62,0,0,0-.47-.45,1.28,1.28,0,0,0-.76.1,9.31,9.31,0,0,0-1.56.86,6.14,6.14,0,0,1-1.77.83c-.64.18-1.31.32-2,.45a19.45,19.45,0,0,1-4.38.41,5.19,5.19,0,0,0-1.12.09.77.77,0,0,0-.42.22.36.36,0,0,0-.08.19l0,.29a13.28,13.28,0,0,0,0,2.36,8.41,8.41,0,0,0,.48,2.3,15.73,15.73,0,0,0,1,2.07,3.84,3.84,0,0,0,.66.87,1.58,1.58,0,0,0,.42.27,1,1,0,0,0,.23,0h0a9.12,9.12,0,0,0-.6-2c-.53-1.29-1-2.53-1.43-3.71a29.19,29.19,0,0,1-.8-3.39,27.34,27.34,0,0,1-.54-5,12.53,12.53,0,0,1,.09-1.37,2.84,2.84,0,0,1,.1-.46"/><path class="cls-3" d="M113.81,70.81a.77.77,0,0,1-.36-.1c-.23-.1-.51-.36-.9-.58a2.61,2.61,0,0,0-1.63-.11,20.21,20.21,0,0,0-2.2.39,13.72,13.72,0,0,0-2.51,1,15.63,15.63,0,0,0-2.64,1.6c-.09.07-.26.17-.25.22a.5.5,0,0,0,.06.32,2.81,2.81,0,0,0,.45.67,11.13,11.13,0,0,0,1.25,1.22,18.42,18.42,0,0,0,3,2.06,10.1,10.1,0,0,0,3.44,1.2,6.7,6.7,0,0,0,3.35.2,1.44,1.44,0,0,0,.93-1.06,2.22,2.22,0,0,0,.06-.72,1.14,1.14,0,0,0-.08-.33.8.8,0,0,1-.14-.4c.08-.42.51-.38.62-.49a.83.83,0,0,0,.38-.46,3.62,3.62,0,0,0,.19-1.25,5.1,5.1,0,0,0-.51-2.13,2,2,0,0,0-.49-.74,1.28,1.28,0,0,0-.63-.38,9.42,9.42,0,0,0-1.06-.06.86.86,0,0,1-.37-.08s.13,0,.37,0a6.68,6.68,0,0,1,1.09,0,1.41,1.41,0,0,1,.7.39,2.22,2.22,0,0,1,.54.77,5.13,5.13,0,0,1,.57,2.2,3.91,3.91,0,0,1-.18,1.33,1.17,1.17,0,0,1-.49.59c-.1.09-.26.1-.34.14s-.15.11-.15.16a2,2,0,0,1-.92,2.75,6.77,6.77,0,0,1-3.48-.17A10.24,10.24,0,0,1,108,77.77a18.43,18.43,0,0,1-3.09-2.1,10.16,10.16,0,0,1-1.28-1.26,3.8,3.8,0,0,1-.49-.74.77.77,0,0,1-.06-.51c.08-.23.22-.23.32-.35a16.77,16.77,0,0,1,2.72-1.62,14,14,0,0,1,2.57-1,18.56,18.56,0,0,1,2.23-.36,2.74,2.74,0,0,1,1.7.17c.41.26.66.52.88.63a2.76,2.76,0,0,0,.33.16"/><path class="cls-3" d="M81.69,68.89s-.09.14-.28.39l-.87,1.13a10.47,10.47,0,0,0-1.25,1.92,4.54,4.54,0,0,0-.47,3A1.71,1.71,0,0,0,80,76.59a4.21,4.21,0,0,0,2,0,8,8,0,0,0,2.11-.69,2.34,2.34,0,0,0,1.4-1.77,4.3,4.3,0,0,0-.41-2.49,11.8,11.8,0,0,0-1.39-2.38A14.13,14.13,0,0,1,83,68c-.26-.4-.64-.74-.9-1.21a5.07,5.07,0,0,1,0-3.13,8.93,8.93,0,0,1,.44-1.58,1,1,0,0,1,.28-.37.45.45,0,0,1,.53,0,1.22,1.22,0,0,1,.36.85,1.37,1.37,0,0,1-.14.91,1,1,0,0,1-.94.15,5.18,5.18,0,0,1-1.57-.8,9.59,9.59,0,0,1-1.4-1.09,3.7,3.7,0,0,1-1.06-1.49c-.24-.58-.38-1.16-.57-1.75a12.16,12.16,0,0,1-.41-1.83,9.6,9.6,0,0,1,.33-3.83A7.72,7.72,0,0,1,80,49.43c1-1,2.07-1.74,3.1-2.62S85.14,45,86.14,44A37,37,0,0,0,89.06,41a34.55,34.55,0,0,0,2.5-3.55.56.56,0,0,1,.38-.24.37.37,0,0,1,.37.29,5.57,5.57,0,0,1,.07.6,8.68,8.68,0,0,1,0,1.14,10,10,0,0,1-.47,2.23,19.45,19.45,0,0,1-2,4.09A14.5,14.5,0,0,0,88,54.36a17,17,0,0,0,1,4.58,30.3,30.3,0,0,0,1.67,4.49,25,25,0,0,0,2.41,4.11A6.24,6.24,0,0,0,96.83,70,5.38,5.38,0,0,0,101,68.59a5,5,0,0,0,1.55-6,8.26,8.26,0,0,0-1.15-1.86,25.66,25.66,0,0,0-3.29-2.94,19.21,19.21,0,0,1-1.62-1.52,2.5,2.5,0,0,1-.55-1,2.35,2.35,0,0,1,0-1.18,3,3,0,0,1,1.49-1.69,9.71,9.71,0,0,1,2.07-.64,8.3,8.3,0,0,1,4.2.29,12.93,12.93,0,0,1,3.48,2.14,6.2,6.2,0,0,0,.78.55.78.78,0,0,0,.76.13,3.6,3.6,0,0,0,1.05-1.46,5.15,5.15,0,0,0,.22-3.58,5.39,5.39,0,0,0-2.37-2.56,11.39,11.39,0,0,0-3.19-1.38,14.45,14.45,0,0,0-6.52-.21c-.26,0-.51.13-.77.18a3,3,0,0,1-.42,0,.45.45,0,0,1-.45-.28.52.52,0,0,1,.15-.48l.27-.29a6.94,6.94,0,0,1,.59-.51A7.46,7.46,0,0,1,100,43.14a17,17,0,0,1,5.41-.28A15.21,15.21,0,0,1,110,44.11a5.48,5.48,0,0,1,3,2.47,10.65,10.65,0,0,1,.43,3.13,18.87,18.87,0,0,1,0,2.31c0,1.25-.09,1.91-.09,1.91s0-.66,0-1.91a19.48,19.48,0,0,0-.08-2.3,10.51,10.51,0,0,0-.46-3.08,5.41,5.41,0,0,0-3-2.38,14.93,14.93,0,0,0-4.5-1.19,16.74,16.74,0,0,0-5.32.31,7.12,7.12,0,0,0-2.61,1.2,4.37,4.37,0,0,0-.56.49c-.16.16-.4.39-.35.48s.3.1.54.05.5-.13.77-.18a14.66,14.66,0,0,1,6.67.17A12,12,0,0,1,107.83,47a5.66,5.66,0,0,1,2.52,2.74,5.45,5.45,0,0,1-.22,3.85,6.66,6.66,0,0,1-.48.87,2,2,0,0,1-.74.77,1.09,1.09,0,0,1-1.1-.13,6.67,6.67,0,0,1-.85-.58,12.49,12.49,0,0,0-3.37-2.07,7.84,7.84,0,0,0-4-.27,9.3,9.3,0,0,0-2,.61,2.56,2.56,0,0,0-1.27,1.45,1.84,1.84,0,0,0,.42,1.82,18.57,18.57,0,0,0,1.58,1.46,25.84,25.84,0,0,1,3.34,3,9,9,0,0,1,1.22,2,5.53,5.53,0,0,1,.43,2.3,5.43,5.43,0,0,1-2.1,4.15,5.82,5.82,0,0,1-4.49,1.51,6.64,6.64,0,0,1-4-2.62,25.93,25.93,0,0,1-2.46-4.2,28.55,28.55,0,0,1-1.68-4.54,16.74,16.74,0,0,1-1-4.7,14.81,14.81,0,0,1,1.94-9.06,19.83,19.83,0,0,0,2-4A9.88,9.88,0,0,0,92,39.16a6.49,6.49,0,0,0,0-1.08c0-.16,0-.4,0-.49h0l-.05.06a38.27,38.27,0,0,1-2.53,3.56,39.39,39.39,0,0,1-2.95,3.09q-1.52,1.45-3.09,2.79c-1,.89-2.15,1.67-3.08,2.59a8.05,8.05,0,0,0-2.37,6.91,20.37,20.37,0,0,0,.94,3.51,5.67,5.67,0,0,0,2.35,2.45,4.88,4.88,0,0,0,1.48.77c.25.06.55.09.66-.06a1.19,1.19,0,0,0,.08-.7,1.08,1.08,0,0,0-.23-.66c-.14-.1-.33.06-.44.3a8.92,8.92,0,0,0-.42,1.52,4.9,4.9,0,0,0,0,3c.23.42.6.77.88,1.19s.5.83.78,1.23a11.55,11.55,0,0,1,1.39,2.42,4.39,4.39,0,0,1,.41,2.6A2.5,2.5,0,0,1,84.23,76a8.64,8.64,0,0,1-2.16.7,4.35,4.35,0,0,1-2.09,0,1.84,1.84,0,0,1-1.28-1.34,4.64,4.64,0,0,1,.5-3.09,11.14,11.14,0,0,1,1.29-1.92l1.2-1.48"/><path class="cls-3" d="M113.33,54.5a10.3,10.3,0,0,1-.32,1.91,8.46,8.46,0,0,1-.87,2.19,14.88,14.88,0,0,1-2.06,2.45l-1.3,1.4a7.06,7.06,0,0,0-1.27,1.63,1.66,1.66,0,0,0-.17,1,1.16,1.16,0,0,0,.6.86,2.38,2.38,0,0,0,1.13.26c.39,0,.86-.06.92-.49a4.48,4.48,0,0,1,.15-.64,1,1,0,0,1,.51-.5,1.72,1.72,0,0,1,.67-.19,2.34,2.34,0,0,1,.7,0,2.17,2.17,0,0,1,.7.17,2,2,0,0,1,.32.17.6.6,0,0,1,.23.35c.16.49,0,1,.12,1.42s.66.59,1.1.6a2.27,2.27,0,0,0,1.31-.56,2.71,2.71,0,0,1,.39-.17.67.67,0,0,1,.46.08.45.45,0,0,1,.21.46.57.57,0,0,1-.32.37,2.4,2.4,0,0,0-.64.37.41.41,0,0,0,.09.55,1.4,1.4,0,0,0,1.4,0A2.12,2.12,0,0,0,118.3,67a5,5,0,0,0-.22-3.29c-.37-1.11-1-2.15-1.44-3.29a11.56,11.56,0,0,1-.84-3.67,10.56,10.56,0,0,1,.5-3.88,7.36,7.36,0,0,1,2.43-3.21,4.2,4.2,0,0,1,1.93-.84,3.82,3.82,0,0,1,2.11.31,2.87,2.87,0,0,0,1.87.41c.55-.21.68-1,.7-1.66a28.24,28.24,0,0,0-1.5-8.51A25.7,25.7,0,0,0,122,35.28c-.73-1.32-1.63-2.56-2.48-3.86-1.74-2.56-3.52-5.17-5.35-7.79l-1.39-2a14.29,14.29,0,0,0-1.5-1.87,22.69,22.69,0,0,0-3.65-3.19,27.37,27.37,0,0,0-18.07-4.66,25.85,25.85,0,0,0-15.69,7.49,30.57,30.57,0,0,0-5.1,6.48,33.24,33.24,0,0,0-3,7.18,69.26,69.26,0,0,0-1.05,7.23c-.09,1.17-.18,2.32-.19,3.44A16.6,16.6,0,0,0,64.76,47a3.14,3.14,0,0,0,.19.76,2.22,2.22,0,0,0,.31.68,12.33,12.33,0,0,0,1,1.15l2.07,2.16c1.35,1.4,2.61,2.73,3.76,4a59.83,59.83,0,0,1,5.47,6.88,22.94,22.94,0,0,1,2.54,4.93c.42,1.19.63,1.82.63,1.82s-.25-.62-.69-1.8a22.91,22.91,0,0,0-2.6-4.88A58.47,58.47,0,0,0,72,55.91c-1.15-1.26-2.42-2.58-3.78-4L66.08,49.8a10.82,10.82,0,0,1-1-1.18,2.21,2.21,0,0,1-.36-.74,3.78,3.78,0,0,1-.21-.8,16.6,16.6,0,0,1-.23-3.32c0-1.14.08-2.29.17-3.47a67.74,67.74,0,0,1,1-7.28,33.2,33.2,0,0,1,3-7.29,31.12,31.12,0,0,1,5.15-6.58,26.27,26.27,0,0,1,15.94-7.63,27.77,27.77,0,0,1,18.36,4.74,23.5,23.5,0,0,1,3.72,3.24,17.4,17.4,0,0,1,1.53,1.92c.46.66.92,1.32,1.39,2q2.73,4,5.34,7.81c.85,1.3,1.75,2.55,2.49,3.9a26.42,26.42,0,0,1,1.85,4.15,28.36,28.36,0,0,1,1.5,8.66,3.87,3.87,0,0,1-.17,1.1,1.39,1.39,0,0,1-.77.88,3.08,3.08,0,0,1-2.14-.43,3.55,3.55,0,0,0-1.92-.29,3.86,3.86,0,0,0-1.77.77A7.08,7.08,0,0,0,116.6,53a10.14,10.14,0,0,0-.48,3.74,11,11,0,0,0,.8,3.58c.46,1.11,1,2.17,1.43,3.3a5.28,5.28,0,0,1,.21,3.48,2.44,2.44,0,0,1-1,1.38,1.63,1.63,0,0,1-1.7-.06.67.67,0,0,1-.11-.9,2.28,2.28,0,0,1,.71-.43c.23-.1.26-.3.1-.41a.39.39,0,0,0-.28,0,2.92,2.92,0,0,0-.31.14,2.44,2.44,0,0,1-1.44.59,1.85,1.85,0,0,1-.77-.18,1,1,0,0,1-.55-.59c-.12-.53,0-1-.1-1.42a.39.39,0,0,0-.15-.23,1.56,1.56,0,0,0-.28-.16,2.08,2.08,0,0,0-.64-.16,2,2,0,0,0-.65,0,1.63,1.63,0,0,0-.62.17c-.41.16-.48.57-.56,1a.7.7,0,0,1-.45.53,2.91,2.91,0,0,1-.65.09,2.51,2.51,0,0,1-1.21-.29,1.56,1.56,0,0,1-.49-2.12,6.87,6.87,0,0,1,1.31-1.66L110,61a15.88,15.88,0,0,0,2.08-2.42A8.56,8.56,0,0,0,113,56.4c.16-.61.24-1.09.3-1.41s.08-.49.08-.49"/><path class="cls-3" d="M93.72,59.46a3.48,3.48,0,0,0-1.32.14,2.19,2.19,0,0,0-1.09,1,4.19,4.19,0,0,0-.35,2c0,.78.14,1.63.22,2.54A8.59,8.59,0,0,0,91.9,68a6.65,6.65,0,0,0,1.9,2.51,4.51,4.51,0,0,0,3.19.78,4,4,0,0,0,1.61-.53,3.71,3.71,0,0,0,1.14-1.16,4.44,4.44,0,0,0,.71-3,7.88,7.88,0,0,0-4-6A8.77,8.77,0,0,0,95,59.87c-.82-.31-1.3-.38-1.29-.41a5.4,5.4,0,0,1,1.33.3,8.17,8.17,0,0,1,1.43.71,7.8,7.8,0,0,1,1.74,1.22,8.17,8.17,0,0,1,2.5,4.86,4.72,4.72,0,0,1-.73,3.19A3.83,3.83,0,0,1,98.75,71a4.22,4.22,0,0,1-1.72.57,4.77,4.77,0,0,1-3.41-.84,7,7,0,0,1-2-2.63,8.9,8.9,0,0,1-.72-2.88c-.06-.92-.18-1.77-.17-2.55a4.34,4.34,0,0,1,.4-2.1,2.29,2.29,0,0,1,1.2-1.07,2.16,2.16,0,0,1,1-.11,2.07,2.07,0,0,1,.35.07"/><path class="cls-3" d="M107.77,54.78a4.83,4.83,0,0,1-1.88.31,12.06,12.06,0,0,1-5-1.24,11.72,11.72,0,0,1-3-2.08,9.51,9.51,0,0,1-.67-.73,1.65,1.65,0,0,1-.5-.95,1.3,1.3,0,0,1,.49-1,3.56,3.56,0,0,1,1-.58,7.74,7.74,0,0,1,2.2-.5,14,14,0,0,1,2.34-.06,6.87,6.87,0,0,1,4.5,1.87,5.12,5.12,0,0,1,.77,1,2.29,2.29,0,0,1,.26.61.4.4,0,0,1-.15.42.47.47,0,0,1-.43,0c-.8-.42-1.26-1.07-2-1.39a7.58,7.58,0,0,0-4.36-.54l-1.06.16a3.23,3.23,0,0,0-1,.26.7.7,0,0,0-.3.29c0,.08,0,.07,0,.08s0,0,.11,0a9.21,9.21,0,0,1,.93-.31,8.22,8.22,0,0,1,3.6-.15,7.34,7.34,0,0,1,2.78,1.06,3.67,3.67,0,0,1,1.45,1.7,5.06,5.06,0,0,1,.24,1.41c0,.18-.16.25-.22.29l-.12,0,.1-.07c.06,0,.2-.11.18-.27a5.48,5.48,0,0,0-.29-1.35,3.52,3.52,0,0,0-1.43-1.61,7.48,7.48,0,0,0-2.72-1,8.25,8.25,0,0,0-3.5.19,9.21,9.21,0,0,0-.93.31.35.35,0,0,1-.36,0,.31.31,0,0,1,0-.38,1,1,0,0,1,.41-.41,3.31,3.31,0,0,1,1-.29l1.06-.17a7.8,7.8,0,0,1,4.53.56c.74.33,1.3,1,2,1.36.17,0,.19,0,.18-.11a2.31,2.31,0,0,0-.23-.52,4.82,4.82,0,0,0-.72-1,6.59,6.59,0,0,0-4.31-1.79,13.4,13.4,0,0,0-2.29.06,7.35,7.35,0,0,0-2.13.46c-.61.27-1.29.72-1.28,1.33a1.46,1.46,0,0,0,.44.8,7.41,7.41,0,0,0,.65.72A11.18,11.18,0,0,0,101,53.66,12.3,12.3,0,0,0,105.89,55a8.1,8.1,0,0,0,1.4-.09c.31-.06.47-.11.48-.1"/><path class="cls-3" d="M104,53.49s0-.14-.07-.35a1.5,1.5,0,0,0-.65-.7,3.08,3.08,0,0,0-1.39-.43,2.36,2.36,0,0,0-.83.1.82.82,0,0,0-.58.51.8.8,0,0,0,.27.73,2.36,2.36,0,0,0,.7.48,3.05,3.05,0,0,0,1.42.26,1.51,1.51,0,0,0,.9-.31c.17-.16.2-.3.23-.29s0,.16-.14.37a1.5,1.5,0,0,1-1,.46,3.1,3.1,0,0,1-1.56-.23,2.5,2.5,0,0,1-.8-.52,1.14,1.14,0,0,1-.36-1,1.11,1.11,0,0,1,.79-.73,2.64,2.64,0,0,1,1-.1,3.13,3.13,0,0,1,1.49.53,1.45,1.45,0,0,1,.64.85c.06.26,0,.4,0,.39"/><path class="cls-3" d="M120.32,59s0-.12-.08-.3a1.59,1.59,0,0,0-.61-.61,3.27,3.27,0,0,0-1.2-.45.88.88,0,0,0-1.12.63c-.09.47.41.89.82,1.09a2.25,2.25,0,0,0,1.24.25,1.16,1.16,0,0,0,.95-.61s0,.14-.1.34a1.25,1.25,0,0,1-.82.48,2.45,2.45,0,0,1-1.39-.21,2.3,2.3,0,0,1-.69-.49,1.06,1.06,0,0,1-.3-.92,1.08,1.08,0,0,1,.58-.75,1.4,1.4,0,0,1,.87-.08,3.08,3.08,0,0,1,1.28.55,1.57,1.57,0,0,1,.6.74c.06.23,0,.35,0,.34"/><path class="cls-3" d="M111.78,83.3a2.22,2.22,0,0,0-.23-.6,2.29,2.29,0,0,0-1.47-.85,5.91,5.91,0,0,0-2.6.06,2.86,2.86,0,0,0-1.34.63.92.92,0,0,0-.32.62,1.78,1.78,0,0,0,.19.76,4,4,0,0,0,2.24,2.1,2.74,2.74,0,0,0,2.37-.66,3.46,3.46,0,0,0,1-1.42c.14-.4.14-.64.17-.64a1.44,1.44,0,0,1-.06.67,3.29,3.29,0,0,1-1,1.55,2.91,2.91,0,0,1-2.58.76,4.28,4.28,0,0,1-2.44-2.23,2,2,0,0,1-.21-.9,1.16,1.16,0,0,1,.41-.82,3.14,3.14,0,0,1,1.48-.69,6,6,0,0,1,2.71,0,2.33,2.33,0,0,1,1.52,1,.94.94,0,0,1,.13.66"/><path class="cls-3" d="M108.29,54.62s-.13-.1-.37-.28-.57-.45-1-.77a10.2,10.2,0,0,0-3.6-1.93,10,10,0,0,0-4.09.15,17.11,17.11,0,0,1-1.69.35,7.26,7.26,0,0,1,1.65-.56,9.29,9.29,0,0,1,4.19-.23,5.93,5.93,0,0,1,2.15.94c.58.4,1.11.77,1.52,1.11a5.17,5.17,0,0,1,1.24,1.22"/><path class="cls-3" d="M74,171.32s0-.18-.16-.29-.35.42-.53.84a17.62,17.62,0,0,1-.72,1.61A4.47,4.47,0,0,1,71,175.3a7,7,0,0,1-3,.39c-.54,0-1.11,0-1.71,0a3.29,3.29,0,0,1-.91-.19,1.33,1.33,0,0,1-.71-.67,5.13,5.13,0,0,1-.27-2c0-.68,0-1.38,0-2.1,0-1.48,0-3,0-4.67l2.69-.17a10,10,0,0,1,1.35,0,2.27,2.27,0,0,1,1.35.42,2.42,2.42,0,0,1,.69,1.27l.17.7.08.34a.16.16,0,0,0,.13.13c.12,0,.13-.22.12-.47V166c0-1,0-2,0-3v-.77c0-.13,0-.3,0-.29s-.11,0-.16,0-.07.14-.1.28l-.08.38c-.06.26-.12.52-.19.78a2,2,0,0,1-1,1.33,4.37,4.37,0,0,1-1.62.39l-3.44.24c0-1.56,0-3.15,0-4.75,0-.78,0-1.57,0-2.36a4.82,4.82,0,0,1,.08-1.23.73.73,0,0,1,.58-.41c.21,0,.4-.05.6-.08l2.4-.27a3.91,3.91,0,0,1,2.48.32,5.09,5.09,0,0,1,1.39,2.11c.15.37.29.81.41,1.16,0,.07.1.15.12.15s0,0,0-.06a1.73,1.73,0,0,0,0-.56c-.07-1.09-.15-2.19-.22-3.27l-.06-.81v-.21c0-.07,0,0,0,0l-.25,0-1.6.2c-2.14.25-4.22.54-6.27.81l-3,.41-1.51.21-.74.1c-.23,0-.57,0-.64.12-.2.25.58.1,1,.15a2.25,2.25,0,0,1,.76.13,1.06,1.06,0,0,1,.6.56,4.1,4.1,0,0,1,.23,1.49c0,.48,0,1,0,1.44,0,3.8,0,7.42,0,10.81,0,.85,0,1.68,0,2.5a2.86,2.86,0,0,1-.3,1.23,1.72,1.72,0,0,1-1,.69,9.9,9.9,0,0,1-1.16.23l-.55.08a.13.13,0,0,0,0,.24s.12,0,.22,0h15c.11,0,.22,0,.24,0l0-.26c.28-1.59.5-2.82.65-3.65s.25-1.27.25-1.27-.06.44-.19,1.28-.34,2.07-.6,3.66l-.06.34c0,.08-.12,0-.18,0H70.75l-3.19,0-7.77,0H57.86a.59.59,0,0,1-.33,0,.35.35,0,0,1,.08-.64l.58-.09a10.77,10.77,0,0,0,1.13-.23,1.5,1.5,0,0,0,.9-.59,2.75,2.75,0,0,0,.26-1.12c.05-.81,0-1.64,0-2.49,0-3.39,0-7,0-10.81,0-.48,0-1,0-1.44a3.86,3.86,0,0,0-.21-1.37c-.16-.41-.64-.52-1.12-.53a5.93,5.93,0,0,0-.73,0h-.19a.43.43,0,0,1-.26-.09.36.36,0,0,1,0-.53.6.6,0,0,1,.43-.16l.37-.05.75-.11,1.5-.2,3.06-.41c2-.28,4.14-.57,6.26-.82l1.59-.2.56-.06c0,.06,0,.29,0,.35l0,.2,0,.81c.08,1.08.15,2.16.23,3.26a1.78,1.78,0,0,1,0,.68.41.41,0,0,1-.13.2.3.3,0,0,1-.29,0,.61.61,0,0,1-.28-.3c-.16-.43-.27-.8-.43-1.18a4.82,4.82,0,0,0-1.28-2,3.65,3.65,0,0,0-2.28-.28l-2.39.27c-.38.06-.87.05-1,.31a4.46,4.46,0,0,0,0,1.12v6.81l3.14-.22a4.13,4.13,0,0,0,1.51-.35,1.78,1.78,0,0,0,.85-1.17c.07-.25.13-.5.19-.76l.08-.38a.7.7,0,0,1,.18-.43.39.39,0,0,1,.54,0c.14.22.06.34.08.47V163c0,1,0,2,0,3v2.2c0,.13,0,.22,0,.39a.39.39,0,0,1-.36.33.42.42,0,0,1-.37-.31l-.08-.36-.17-.68a2.24,2.24,0,0,0-.6-1.15,3.91,3.91,0,0,0-2.54-.34l-2.48.15v4.46c0,.72,0,1.42,0,2.1a5.14,5.14,0,0,0,.25,1.91,1.6,1.6,0,0,0,1.47.78c.58,0,1.16,0,1.7,0a6.87,6.87,0,0,0,2.92-.35,4.29,4.29,0,0,0,1.54-1.75c.33-.61.55-1.15.74-1.59l.24-.58c.06-.17.21-.3.35-.27a.24.24,0,0,1,.16.22.24.24,0,0,1,0,.1"/><path class="cls-3" d="M91.48,170.83a.42.42,0,0,0-.08-.21c-.09-.16-.39-.06-.43.26a22.3,22.3,0,0,1-1.09,2.42,5.35,5.35,0,0,1-1.17,1.52,3,3,0,0,1-2.14.76c-.83,0-1.69,0-2.62,0a2.28,2.28,0,0,1-1.43-.35,2.07,2.07,0,0,1-.52-1.45c-.07-4.12-.06-9-.08-14.45,0-.68,0-1.36,0-2.07a2.78,2.78,0,0,1,.67-2,5.28,5.28,0,0,1,2-.81.15.15,0,0,0,.08-.23s0,0-.11,0l-.28,0-1.1.07-4.49.32-2.3.17-.58,0-.29,0a.15.15,0,0,0-.13.06.15.15,0,0,0,.16.19l.58.07a3.89,3.89,0,0,1,1.19.28,1.42,1.42,0,0,1,.76,1,10.84,10.84,0,0,1,.16,2.33c0,1.53,0,3,0,4.51,0,3,0,5.81,0,8.53,0,.68,0,1.35,0,2a3.84,3.84,0,0,1-.19,1,1.55,1.55,0,0,1-.67.8,6.16,6.16,0,0,1-1.87.52c-.16,0-.32,0-.37.1a.13.13,0,0,0,0,.21c.06.05.22,0,.38,0H90.1s0,0,0-.07l.07-.25c.19-.67.34-1.29.48-1.85.26-1.12.46-2,.6-2.58l.2-.9s0,.32-.15.91-.29,1.47-.54,2.59c-.13.57-.27,1.19-.45,1.87l-.07.26s0,.13-.07.17H88.28l-5.55,0-6.73,0h-.68a.48.48,0,0,1-.29-.08.39.39,0,0,1,0-.6.47.47,0,0,1,.27-.12l.23,0a5.68,5.68,0,0,0,1.78-.5,1.77,1.77,0,0,0,.72-1.59c0-.65,0-1.32,0-2,0-2.72,0-5.57,0-8.53,0-1.48,0-3,0-4.51a10.56,10.56,0,0,0-.16-2.26,1.09,1.09,0,0,0-.6-.79,3.78,3.78,0,0,0-1.09-.26l-.58-.06a.43.43,0,1,1,0-.85l.29,0,.58,0,2.3-.16,4.51-.32,1.1-.07.27,0A.39.39,0,0,1,85,154a.45.45,0,0,1-.23.67,5.5,5.5,0,0,0-1.94.75,2.57,2.57,0,0,0-.57,1.86c0,.68,0,1.37,0,2.05,0,5.44,0,10.33,0,14.44a1.87,1.87,0,0,0,.45,1.31,2,2,0,0,0,1.29.31c.92,0,1.8,0,2.61,0a3.58,3.58,0,0,0,3.22-2.18,22.51,22.51,0,0,0,1.13-2.39c0-.13.11-.28.24-.32a.22.22,0,0,1,.28.07.3.3,0,0,1,0,.23"/><path class="cls-3" d="M108.59,170.84a.26.26,0,0,0-.1-.19.22.22,0,0,0-.25,0c-.11,0-.13.18-.19.32a20.42,20.42,0,0,1-1.13,2.45,5.27,5.27,0,0,1-1.22,1.52,3.24,3.24,0,0,1-2.21.66c-.84,0-1.72,0-2.67,0a1.69,1.69,0,0,1-1.37-.55,3,3,0,0,1-.36-1.53c0-4.17,0-9.14,0-14.65,0-.69,0-1.39,0-2.11a4.57,4.57,0,0,1,.14-1.08,1.61,1.61,0,0,1,.61-1,3,3,0,0,1,1.05-.43l.54-.13c.17,0,.41-.06.44-.12s0-.21,0-.22h-1.63l-4.58,0-2.34,0h-.59c-.12,0-.16.1-.12.19a.24.24,0,0,0,.14.09l.3.05.59.11a2,2,0,0,1,1.49.88,4.19,4.19,0,0,1,.33,1.68c0,1.1,0,2.18,0,3.26v6.29c0,2,0,4,0,5.94,0,.48,0,1,0,1.44a2.67,2.67,0,0,1-.43,1.38,2.27,2.27,0,0,1-1.25.69,13.36,13.36,0,0,1-1.32.26h0c-.17,0-.28.14-.23.21s.24.12.44.11h7.71l6.87,0c.09,0,.07,0,.12-.17l.09-.33c.06-.22.11-.43.17-.63l.29-1.16c.17-.71.31-1.33.43-1.82s.2-.88.26-1.14.09-.39.09-.39a3.81,3.81,0,0,1-.06.4q-.07.39-.21,1.14c-.11.5-.25,1.12-.4,1.84-.09.36-.18.75-.28,1.16,0,.21-.1.42-.16.64l-.09.33c0,.08,0,.35-.25.28l-6.87,0-4.23,0H92.56a.72.72,0,0,1-.65-.23A.34.34,0,0,1,92,176a.56.56,0,0,1,.35-.16h0c.44-.07.88-.15,1.3-.26a2.11,2.11,0,0,0,1.12-.6,2.41,2.41,0,0,0,.36-1.25c0-.46,0-.93,0-1.41,0-1.91,0-3.89,0-5.94s0-4.14,0-6.29c0-1.07,0-2.16,0-3.25a3.84,3.84,0,0,0-.29-1.54,1.74,1.74,0,0,0-1.3-.74l-.58-.11-.29-.05a.46.46,0,0,1-.34-.23.44.44,0,0,1,0-.43.39.39,0,0,1,.38-.2h2.93l4.58,0h1.12a3.17,3.17,0,0,1,.6,0,.42.42,0,0,1,.17.68.49.49,0,0,1-.33.16l-.26,0-.53.12a2.88,2.88,0,0,0-1,.39,2.34,2.34,0,0,0-.65,1.84c0,.7,0,1.4,0,2.09,0,5.51,0,10.48,0,14.65a2.82,2.82,0,0,0,.31,1.41,1.49,1.49,0,0,0,1.22.48c.93,0,1.83,0,2.65,0a3.13,3.13,0,0,0,2.12-.61,5,5,0,0,0,1.22-1.47,21.38,21.38,0,0,0,1.17-2.41c.07-.13.1-.29.23-.34a.26.26,0,0,1,.29,0,.25.25,0,0,1,.08.22"/><path class="cls-3" d="M125.75,171.35a.3.3,0,0,0-.2-.28c-.12,0-.24.1-.29.28l-.24.6a16,16,0,0,1-.77,1.66,4.6,4.6,0,0,1-.67.95,2.79,2.79,0,0,1-1,.81,9.58,9.58,0,0,1-3.09.25,9.81,9.81,0,0,1-1.77-.1,1.61,1.61,0,0,1-.88-.4,1.74,1.74,0,0,1-.46-.89,9.26,9.26,0,0,1-.14-2v-7l2.73.09a4.14,4.14,0,0,1,2.67.67,2.78,2.78,0,0,1,.66,1.3l.17.7c0,.22.07.52.19.58s.18-.09.15-.37v-2.22c0-1,0-2,0-3.06v-1.16c0-.08,0-.12-.11-.12a.17.17,0,0,0-.14.16l-.08.38c-.06.26-.12.52-.19.79a2,2,0,0,1-1,1.35,3.66,3.66,0,0,1-1.66.25l-3.46-.12v-7.52a11.32,11.32,0,0,1,0-1.29.61.61,0,0,1,.19-.36.69.69,0,0,1,.38-.13c.24,0,.45,0,.66,0,.85.07,1.7.11,2.56.19a3.77,3.77,0,0,1,2.48.9,7.29,7.29,0,0,1,1.28,2.35l.21.63c.07.2.11.48.2.53s.16,0,.14-.19l0-.67-.21-3.38,0-.63-.77-.06-1.66-.11c-2.22-.17-4.39-.27-6.53-.4l-3.17-.19-1.56-.09c-.27,0-.53,0-.49.09a.26.26,0,0,0,.15.16l.35.06a3.73,3.73,0,0,1,1.51.52,2,2,0,0,1,.63,1.45c.09,1,0,2,.06,3,0,3.94,0,7.67,0,11.17,0,.88,0,1.74,0,2.58a8.94,8.94,0,0,1-.1,1.27,1.79,1.79,0,0,1-.59,1.14,5.94,5.94,0,0,1-2.33.66c-.15,0-.22.14-.15.26a.22.22,0,0,0,.15.09h1.41l8,0h5.87s0-.05,0-.1c.3-1.63.54-2.9.7-3.76s.26-1.31.26-1.31-.06.46-.2,1.32-.37,2.14-.64,3.78c0,.05,0,.16-.06.19H109.46a.4.4,0,0,1-.33-.19.37.37,0,0,1,0-.38.48.48,0,0,1,.32-.21,5.69,5.69,0,0,0,2.22-.62c.59-.49.55-1.43.59-2.23s0-1.71,0-2.58V159.28c0-1,0-2-.06-3a1.74,1.74,0,0,0-.53-1.26,3.36,3.36,0,0,0-1.38-.46,2.56,2.56,0,0,1-.4-.08.48.48,0,0,1-.33-.4.39.39,0,0,1,.36-.4,2.76,2.76,0,0,1,.42,0l1.56.09,3.18.18c2.14.12,4.32.23,6.51.39l1.66.12.9.06c.2-.05.15.16.16.28l0,.21,0,.42.21,3.37,0,.66a.5.5,0,0,1-.11.43.38.38,0,0,1-.5,0,.62.62,0,0,1-.21-.36l-.09-.31-.21-.62a7,7,0,0,0-1.21-2.24,3.53,3.53,0,0,0-2.3-.82c-.85-.08-1.71-.12-2.55-.18-.42,0-.91-.13-.92.23s0,.82,0,1.23c0,.84,0,1.67,0,2.5,0,1.61,0,3.19,0,4.75l3.19.12a3.67,3.67,0,0,0,1.53-.22,1.72,1.72,0,0,0,.83-1.19c.07-.25.12-.51.18-.76l.09-.39a.44.44,0,0,1,.38-.36.37.37,0,0,1,.39.37v1.17c0,1,0,2.06,0,3.06,0,.5,0,1,0,1.49v.92a.48.48,0,0,1-.05.23.33.33,0,0,1-.47.16.58.58,0,0,1-.24-.38l-.07-.36-.17-.69a2.56,2.56,0,0,0-.58-1.19,4.09,4.09,0,0,0-2.52-.61l-2.5-.09c0,1.61,0,3.14,0,4.6,0,.74,0,1.46,0,2.17a9.41,9.41,0,0,0,.12,2,1.63,1.63,0,0,0,.4.81,1.68,1.68,0,0,0,.8.37,10.34,10.34,0,0,0,1.74.1,9.87,9.87,0,0,0,3-.21,2.69,2.69,0,0,0,1-.77,4.26,4.26,0,0,0,.67-.93,13.77,13.77,0,0,0,.79-1.63l.25-.6c.05-.17.2-.33.35-.29a.27.27,0,0,1,.19.31"/><path class="cls-3" d="M139.34,161a.26.26,0,0,0,.16.17.21.21,0,0,0,.26,0c.09-.09.05-.23,0-.39-.08-.64-.2-1.59-.36-2.8,0-.31-.09-.63-.13-1l0-.25s0-.06,0-.08l-.08,0-.54-.14a23,23,0,0,0-2.33-.62,10.24,10.24,0,0,0-2.75-.21,5.51,5.51,0,0,0-2.87,1,4.58,4.58,0,0,0-1.8,2.74,6.19,6.19,0,0,0,.22,3.6,7.88,7.88,0,0,0,2.36,3.09c1,.9,2.26,1.59,3.41,2.5a5.58,5.58,0,0,1,2.35,3.76,5.18,5.18,0,0,1-.29,2.33,2.72,2.72,0,0,1-1.71,1.65,4.91,4.91,0,0,1-4.62-1.11,6.61,6.61,0,0,1-1.5-2,7.52,7.52,0,0,1-.47-1.17,5.94,5.94,0,0,1-.18-.6c-.06-.23-.1-.4-.19-.4s-.11.12-.07.32l.06.62.14,1.23c.11.82.21,1.63.34,2.43a5.05,5.05,0,0,0,.11.56l.44.12,1.17.28a15.72,15.72,0,0,0,2.34.34,9,9,0,0,0,4.45-.78,5.8,5.8,0,0,0,3-3,5.5,5.5,0,0,0,0-4,7.89,7.89,0,0,0-2.4-3.06c-1.94-1.65-4.25-2.66-5.53-4.56a4.3,4.3,0,0,1-.5-3.08,2.52,2.52,0,0,1,1.73-2.12,4.07,4.07,0,0,1,2.42.24,4.56,4.56,0,0,1,1.71,1.13,6.44,6.44,0,0,1,1.44,2.42,6.27,6.27,0,0,1,.26.95s0-.07-.08-.23l-.23-.7a6.73,6.73,0,0,0-1.47-2.36,4.64,4.64,0,0,0-1.68-1.08,4,4,0,0,0-2.33-.21,2.35,2.35,0,0,0-1.58,2,4.1,4.1,0,0,0,.49,2.94c1.22,1.81,3.53,2.82,5.51,4.48a8.18,8.18,0,0,1,2.48,3.15,5.75,5.75,0,0,1,0,4.24,6,6,0,0,1-3.1,3.18,9.17,9.17,0,0,1-4.59.82,14.85,14.85,0,0,1-2.38-.35c-.4-.08-.79-.18-1.18-.28l-.3-.07-.14,0c-.09,0-.21,0-.21-.16s-.08-.43-.12-.64c-.13-.81-.24-1.62-.34-2.44l-.15-1.24-.06-.63a.77.77,0,0,1,0-.36.35.35,0,0,1,.39-.27c.38.1.36.46.42.61s.11.4.18.59a7.43,7.43,0,0,0,.46,1.13,6.48,6.48,0,0,0,1.42,1.92,4.66,4.66,0,0,0,4.33,1.06,2.44,2.44,0,0,0,1.55-1.49,4.94,4.94,0,0,0,.27-2.19,5.37,5.37,0,0,0-2.24-3.58c-1.12-.88-2.37-1.6-3.41-2.52a8,8,0,0,1-2.42-3.19,6.5,6.5,0,0,1-.22-3.74,4.88,4.88,0,0,1,1.91-2.86,5.75,5.75,0,0,1,3-1,10.05,10.05,0,0,1,2.79.24c.86.18,1.64.42,2.35.64l.52.15.17,0a1,1,0,0,1,0,.17l0,.26c0,.34.08.66.11,1,.14,1.22.24,2.17.31,2.81,0,.15.06.32,0,.43a.26.26,0,0,1-.31,0c-.16-.08-.15-.2-.15-.2"/></g></g></svg>