<svg xmlns="http://www.w3.org/2000/svg" viewBox="0 0 215.58 61.2"><defs><style>.cls-1{fill:#0f1010;}</style></defs><g id="Layer_2" data-name="Layer 2"><g id="Layer_2-2" data-name="Layer 2"><path class="cls-1" d="M43,46a2.32,2.32,0,0,1,0-.23c0-.14-.08-.44-.38-.51s-.65.24-.8.65-.36,1-.57,1.52a44.16,44.16,0,0,1-1.85,4.16A14.43,14.43,0,0,1,37.75,54a9.24,9.24,0,0,1-2.47,2.23,8.9,8.9,0,0,1-3.61.89c-1.3.09-2.65.08-4.06.1s-2.88.08-4.43,0a8.13,8.13,0,0,1-2.35-.48A3.45,3.45,0,0,1,19,55a7.72,7.72,0,0,1-.58-2.5,25.08,25.08,0,0,1-.11-2.61c0-1.76,0-3.57,0-5.44q0-5.7-.05-12L25.16,32a30.92,30.92,0,0,1,3.49-.11A6,6,0,0,1,32.12,33a6.25,6.25,0,0,1,1.77,3.26c.16.6.3,1.19.44,1.79l.21.88a.44.44,0,0,0,.37.37c.13,0,.27-.13.32-.38V38c0-.62,0-1.25,0-1.88,0-1.26,0-2.53,0-3.81q0-3.84,0-7.82c0-.66,0-1.33,0-2,0-.33,0-.75,0-.77a.35.35,0,0,0-.47,0,.46.46,0,0,0-.16.26l-.1.48-.21,1c-.14.66-.31,1.33-.5,2a7.58,7.58,0,0,1-.87,2A4.13,4.13,0,0,1,31.19,29a11,11,0,0,1-4.16,1l-8.85.63q0-6,0-12.24c0-2,0-4,0-6.08V10.72a4.66,4.66,0,0,1,.19-1.65A1.47,1.47,0,0,1,19,8.34a2.81,2.81,0,0,1,.83-.28c.54-.11,1.05-.15,1.56-.21l6.2-.71A24.12,24.12,0,0,1,30.75,7,6,6,0,0,1,33.92,8a8.65,8.65,0,0,1,2.14,2.51,20.12,20.12,0,0,1,1.43,2.91c.21.5.4,1,.58,1.52s.33,1.08.5,1.47a1,1,0,0,0,.34.42h0a.56.56,0,0,0,.12-.18,1.67,1.67,0,0,0,.06-.64L39,15.17c-.28-2.83-.48-5.65-.62-8.45l-.1-2.1,0-.65-.66.08c-1.38.18-2.76.34-4.14.51C28,5.22,22.6,6,17.3,6.67l-7.88,1-3.88.53-1.93.26-1,.12a1.18,1.18,0,0,0-.71.22.23.23,0,0,0,0,.36.38.38,0,0,0,.24.08h.47c.64,0,1.29,0,1.94,0a6.18,6.18,0,0,1,2,.34,2.72,2.72,0,0,1,1.51,1.43,10.7,10.7,0,0,1,.6,3.82c0,1.25,0,2.49,0,3.72,0,9.83,0,19.18,0,27.92,0,2.19,0,4.33-.09,6.47a7.42,7.42,0,0,1-.77,3.14,4.35,4.35,0,0,1-2.66,1.77,25,25,0,0,1-3,.61c-.48.07-1,.14-1.43.21a.36.36,0,0,0-.1.67.48.48,0,0,0,.22.06H40.44s.09,0,.09,0l.15-.7c.81-4.07,1.34-7.26,1.72-9.41l.41-2.46c0-.28.08-.49.1-.63S43,46,43,46s0,.29-.08.85-.19,1.38-.35,2.47c-.33,2.16-.81,5.36-1.59,9.45l-.18.85c0,.13-.1.11-.19.11H38.2l-3.63,0-8.23.05-20.08.11H.91a1,1,0,0,1-.47-.13.87.87,0,0,1,.21-1.6c.56-.11,1-.16,1.5-.24a24.23,24.23,0,0,0,2.91-.6A3.8,3.8,0,0,0,7.4,55.84a6.88,6.88,0,0,0,.69-2.9c.12-2.08.05-4.24.06-6.43,0-8.74,0-18.09-.05-27.92,0-1.23,0-2.47,0-3.7a10.34,10.34,0,0,0-.55-3.56C7.09,10.24,5.83,10,4.6,9.93c-.62,0-1.26,0-1.89,0l-.49,0a1,1,0,0,1-.65-.23.92.92,0,0,1-.35-.63.88.88,0,0,1,.25-.7A1.68,1.68,0,0,1,2.54,8l1-.13,1.92-.26,3.89-.53L17.21,6c5.31-.73,10.71-1.47,16.17-2.11l4.12-.51,1.41-.17c.06,0,.06,0,.06.07v.79l0,.52.1,2.1c.14,2.79.33,5.6.62,8.41l.09.81a2.27,2.27,0,0,1-.11.95,1.19,1.19,0,0,1-.33.48.76.76,0,0,1-.71.11,1.49,1.49,0,0,1-.72-.76,2.75,2.75,0,0,1-.16-.42l-.12-.38-.26-.76c-.17-.5-.36-1-.55-1.48a19.84,19.84,0,0,0-1.39-2.81,8,8,0,0,0-1.95-2.3,5.17,5.17,0,0,0-2.81-.82,22.85,22.85,0,0,0-3.09.1l-6.18.71c-.51.06-1,.1-1.5.2s-.86.25-1,.6a4,4,0,0,0-.14,1.39v1.53q0,3.06,0,6.08,0,5.85,0,11.53L27,29.3a10.93,10.93,0,0,0,3.91-.91,4.58,4.58,0,0,0,2.21-3c.18-.64.34-1.3.48-2l.22-1,.11-.51a1.13,1.13,0,0,1,.35-.59.9.9,0,0,1,1.55.73v2.49c0,2.65,0,5.26,0,7.82v6.39a.74.74,0,0,1,0,.15l0,.15a.93.93,0,0,1-.89.82,1,1,0,0,1-.92-.78l-.21-.91c-.14-.6-.27-1.19-.43-1.76a5.72,5.72,0,0,0-1.57-3,5.4,5.4,0,0,0-3.15-1,30,30,0,0,0-3.42.09l-6.43.4q0,6.06,0,11.54c0,1.87,0,3.68,0,5.44,0,.87,0,1.73.09,2.57a7.39,7.39,0,0,0,.54,2.37A2.94,2.94,0,0,0,21,56.38a7.66,7.66,0,0,0,2.22.48c1.5.11,3,0,4.4,0s2.76,0,4-.07A8.49,8.49,0,0,0,35.14,56a8.81,8.81,0,0,0,2.41-2.15,13.89,13.89,0,0,0,1.58-2.39c.84-1.58,1.43-3,1.9-4.11l.61-1.51c.17-.44.56-.76.92-.68a.6.6,0,0,1,.4.57A.73.73,0,0,1,43,46"/><path class="cls-1" d="M88.1,44.74a1.19,1.19,0,0,0-.19-.55.49.49,0,0,0-.62-.14c-.27.12-.39.43-.52.8A51.46,51.46,0,0,1,84,51.09a18.71,18.71,0,0,1-1.25,2A12.23,12.23,0,0,1,80.93,55a6.63,6.63,0,0,1-2.46,1.49,11.71,11.71,0,0,1-3,.47c-2.13.07-4.36.06-6.77.07a11.66,11.66,0,0,1-1.84-.14A3.62,3.62,0,0,1,65,56.16a3.43,3.43,0,0,1-1-1.74,9.62,9.62,0,0,1-.33-2c-.16-10.65-.13-23.26-.2-37.31,0-1.75,0-3.53,0-5.34A15.45,15.45,0,0,1,63.79,7a4.55,4.55,0,0,1,1.4-2.53,7.48,7.48,0,0,1,2.55-1.32c.88-.31,1.84-.55,2.69-.78a.43.43,0,0,0,.23-.64c-.08-.09-.1-.11-.33-.1l-.71.05-2.84.21-11.61.82-5.94.43-1.5.1L47,3.33a.37.37,0,0,0-.35.17.41.41,0,0,0,.43.55l1.51.17a10.3,10.3,0,0,1,3,.73A3.17,3.17,0,0,1,52.9,6a4.29,4.29,0,0,1,.67,1.48,28,28,0,0,1,.42,6q0,5.93,0,11.65c0,7.64,0,15,0,22,0,1.75,0,3.49-.08,5.22A10.56,10.56,0,0,1,53.47,55a3.82,3.82,0,0,1-1.72,2,15.57,15.57,0,0,1-4.81,1.35l-.6.1a.7.7,0,0,0-.39.17.36.36,0,0,0,0,.58.44.44,0,0,0,.17.07c.05,0,0,0,.07,0h1.92l17.36,0,14.33,0h4.73c0-.05,0-.07.07-.19s.13-.43.19-.65c.48-1.73.87-3.34,1.22-4.78.7-2.88,1.21-5.13,1.55-6.66.16-.76.29-1.34.37-1.73,0-.2.08-.35.1-.45a.44.44,0,0,1,0-.14s0,0,0,.15,0,.25-.06.45c-.06.39-.16,1-.31,1.75-.29,1.54-.75,3.8-1.41,6.69-.34,1.45-.71,3.06-1.17,4.81l-.18.66c0,.09-.08.34-.17.43H82.88l-3,0-14.33.07-17.36.07H46.22l-.22,0a1.08,1.08,0,0,1-.36-.17.92.92,0,0,1-.4-.72,1,1,0,0,1,.32-.77,1.31,1.31,0,0,1,.69-.31l.59-.1a15.49,15.49,0,0,0,4.6-1.29,3.17,3.17,0,0,0,1.45-1.73,9.35,9.35,0,0,0,.44-2.41c.1-1.68.07-3.42.07-5.17,0-7,0-14.39-.07-22,0-3.81,0-7.7,0-11.64a27.68,27.68,0,0,0-.4-5.85,2.83,2.83,0,0,0-1.59-2.07,9.78,9.78,0,0,0-2.82-.66L47,4.74a1.1,1.1,0,0,1-1-1.56,1.06,1.06,0,0,1,.9-.54l.75-.06,1.5-.1,5.95-.42,11.63-.82L69.59,1,70.3,1a1,1,0,0,1,.91.39A1.11,1.11,0,0,1,70.65,3c-1,.26-1.81.47-2.69.77A6.81,6.81,0,0,0,65.62,5a3.86,3.86,0,0,0-1.19,2.18,15.24,15.24,0,0,0-.31,2.63c-.07,1.78,0,3.56,0,5.31,0,14,0,26.7,0,37.28a9,9,0,0,0,.3,1.89,3,3,0,0,0,.87,1.52,5.42,5.42,0,0,0,3.36.81c2.38,0,4.65,0,6.74,0a11.62,11.62,0,0,0,3-.43,6.43,6.43,0,0,0,2.35-1.39,13.6,13.6,0,0,0,3-3.83,57.87,57.87,0,0,0,2.92-6.16c.13-.35.29-.73.61-.85a.57.57,0,0,1,.71.19.72.72,0,0,1,.14.6"/><path class="cls-1" d="M132.29,44.77s.05-.25-.25-.52a.63.63,0,0,0-.67-.07c-.27.11-.33.48-.48.85a49.78,49.78,0,0,1-2.92,6.3,16.06,16.06,0,0,1-1.31,2,13.84,13.84,0,0,1-1.86,1.9,6.32,6.32,0,0,1-2.58,1.35,14.39,14.39,0,0,1-3.11.36c-2.16,0-4.42,0-6.87,0a8.28,8.28,0,0,1-1.88-.27,3,3,0,0,1-1.65-1.14,7.88,7.88,0,0,1-.94-3.92c0-10.78-.06-23.61-.1-37.86,0-1.78,0-3.58.06-5.42a13.51,13.51,0,0,1,.36-2.79,4.23,4.23,0,0,1,1.57-2.48A8.11,8.11,0,0,1,112.36,2c.46-.12.93-.22,1.4-.32s1-.16,1.15-.32.09-.59-.15-.64a2.83,2.83,0,0,0-.61,0h-.72l-2.89,0L98.71.8l-6,0-1.53,0c-.21,0-.24,0-.33.15a.41.41,0,0,0,0,.39.51.51,0,0,0,.38.23l.76.14c.51.09,1,.18,1.53.29a10.75,10.75,0,0,1,2.13.68,3.64,3.64,0,0,1,1.7,1.57,10.51,10.51,0,0,1,.84,4.31c.09,2.86,0,5.65,0,8.43V33.3q0,7.92,0,15.34c0,1.24,0,2.47-.12,3.7A6.73,6.73,0,0,1,97,55.91a6,6,0,0,1-3.21,1.76c-1.15.29-2.29.48-3.42.68h0c-.45,0-.76.36-.6.58a.71.71,0,0,0,.46.27,3.93,3.93,0,0,0,.71,0h9l10.92,0,17.74.07c.13,0,.2,0,.21-.07l.12-.38.24-.85c.14-.56.29-1.1.43-1.63.26-1.06.51-2.06.74-3,.44-1.86.82-3.44,1.12-4.72s.5-2.27.65-2.93c.08-.34.13-.59.17-.76a1.23,1.23,0,0,1,.07-.25.86.86,0,0,1,0,.26c0,.17-.06.43-.12.76-.11.67-.3,1.67-.57,3s-.6,2.87-1,4.74l-.71,3-.41,1.65-.24.85a4.45,4.45,0,0,1-.14.49c0,.31-.35.18-.5.21l-17.74.07-10.92,0h-9c-.45,0-1.23.09-1.67-.58a.87.87,0,0,1,.15-1.06,1.44,1.44,0,0,1,.9-.4h0c1.11-.2,2.25-.39,3.36-.68a5.43,5.43,0,0,0,2.88-1.56,6.29,6.29,0,0,0,1-3.24c.09-1.19.1-2.41.1-3.65,0-4.94,0-10.07,0-15.34s0-10.7,0-16.25c0-2.77,0-5.59-.06-8.4a10.11,10.11,0,0,0-.75-4c-.6-1.18-2-1.6-3.38-1.91-.49-.12-1-.2-1.5-.29l-.75-.13a1.24,1.24,0,0,1-.87-.57,1.1,1.1,0,0,1,0-1.07,1,1,0,0,1,.94-.51l1.52,0,6,0L110.54,0l2.9,0h1.27a2,2,0,0,1,.26.05,1.07,1.07,0,0,1,.44,1.72,1.36,1.36,0,0,1-.83.39l-.69.14c-.46.1-.91.2-1.36.32a7.19,7.19,0,0,0-2.48,1,3.63,3.63,0,0,0-1.33,2.12,13.63,13.63,0,0,0-.34,2.66c-.09,1.8-.06,3.6-.07,5.38,0,14.24,0,27.07,0,37.84a7.44,7.44,0,0,0,.83,3.67c.67,1,2,1.18,3.17,1.24,2.4.06,4.71,0,6.84,0a14,14,0,0,0,3-.33A6,6,0,0,0,124.59,55a13.23,13.23,0,0,0,1.83-1.84,16,16,0,0,0,1.32-2,55.53,55.53,0,0,0,3-6.23c.07-.18.15-.35.21-.51a.71.71,0,0,1,.36-.38.69.69,0,0,1,.75.12.6.6,0,0,1,.21.57"/><path class="cls-1" d="M176.61,46.08s0-.09,0-.24a.69.69,0,0,0-.48-.48c-.32-.08-.63.26-.76.72s-.38,1-.61,1.56a41,41,0,0,1-2,4.26A12.51,12.51,0,0,1,171,54.35a7.43,7.43,0,0,1-2.72,2.1,11.61,11.61,0,0,1-3.78.61c-1.34,0-2.73,0-4.19,0a26.71,26.71,0,0,1-4.58-.24,4.46,4.46,0,0,1-2.26-1,4.56,4.56,0,0,1-1.19-2.29,25.1,25.1,0,0,1-.34-5.3c0-1.81,0-3.68,0-5.6V30.18l7,.23a26.58,26.58,0,0,1,3.52.27,6.28,6.28,0,0,1,3.37,1.45,7,7,0,0,1,1.69,3.34c.16.6.29,1.21.43,1.81s.19,1.34.52,1.51c.13.07.26,0,.36-.17a.55.55,0,0,0,.07-.33v-.47c0-.63,0-1.26,0-1.9V32.07q0-3.87,0-7.88v-3a.31.31,0,0,0-.32-.33.51.51,0,0,0-.39.43l-.21,1c-.15.67-.3,1.34-.49,2a7.9,7.9,0,0,1-.82,2,4,4,0,0,1-1.65,1.49,9.74,9.74,0,0,1-4.28.64l-8.91-.32c0-4.24,0-8.56,0-12.93,0-2.14,0-4.29,0-6.45V7.08A11,11,0,0,1,152,5.39a1.5,1.5,0,0,1,.49-.91,1.71,1.71,0,0,1,1-.33,13.3,13.3,0,0,1,1.69.06c2.19.16,4.38.27,6.62.47a19.59,19.59,0,0,1,3.35.58,6.43,6.43,0,0,1,3,1.75,18.75,18.75,0,0,1,3.28,6.05c.2.53.38,1.08.55,1.63l.25.81a1,1,0,0,0,.28.57c.24.16.5,0,.41-.53l-.16-1.71q-.37-4.39-.54-8.74l0-1.08,0-.55v0l-2-.14L165.83,3c-5.72-.43-11.32-.71-16.84-1l-8.2-.48-4-.23-.5,0h-.34l-.1,0c-.26,0-.36.14-.34.28a.61.61,0,0,0,.4.45,1.77,1.77,0,0,0,.43.09l.49.09a9.27,9.27,0,0,1,3.86,1.33,3.68,3.68,0,0,1,1.21,1.74,8.64,8.64,0,0,1,.42,2c.24,2.64.13,5.2.15,7.74,0,10.16-.05,19.81-.08,28.85,0,2.26,0,4.47,0,6.66a21.1,21.1,0,0,1-.26,3.27,4.51,4.51,0,0,1-1.51,2.92,7.61,7.61,0,0,1-3,1.18c-1,.23-2,.37-3,.53-.42.06-.61.39-.41.7a.47.47,0,0,0,.4.24h3.66l20.73.08,8.5,0,3.75,0h2.91c.06,0,0-.11.08-.25.88-4.2,1.44-7.49,1.84-9.71.19-1.12.34-2,.44-2.54.05-.28.09-.5.11-.65a.91.91,0,0,1,.05-.21s0,.3-.09.87-.21,1.43-.37,2.55c-.36,2.23-.88,5.53-1.72,9.75,0,.09,0,.4-.16.46h-6.84l-8.5,0-20.74,0h-3.65a1,1,0,0,1-.83-.48.93.93,0,0,1,0-1,1.14,1.14,0,0,1,.8-.51c1-.16,2-.31,3-.53a7.2,7.2,0,0,0,2.76-1.09,4,4,0,0,0,1.31-2.6,22.14,22.14,0,0,0,.24-3.18c0-2.17,0-4.4,0-6.65,0-9,0-18.69,0-28.85,0-2.53.08-5.12-.16-7.67A4.6,4.6,0,0,0,140.25,4a8.92,8.92,0,0,0-3.58-1.19l-.49-.09a3.09,3.09,0,0,1-.55-.12,1.26,1.26,0,0,1-.82-1,.88.88,0,0,1,.27-.73,1.18,1.18,0,0,1,.63-.28l.15,0a.94.94,0,0,1,.17,0l.25,0,.5,0,4,.23,8.21.46c5.52.33,11.15.61,16.82,1l4.27.29,2.3.16.28,0s.11,0,.11,0v.63l0,.54,0,1.08c.11,2.89.29,5.8.54,8.71l.16,1.71,0,.22a1.51,1.51,0,0,1,0,.3,1,1,0,0,1-.29.56.94.94,0,0,1-1.23.06,1.57,1.57,0,0,1-.52-.91l-.25-.82c-.17-.54-.35-1.07-.54-1.6a18.25,18.25,0,0,0-3.13-5.8c-1.46-1.59-3.8-1.89-6-2.13s-4.41-.31-6.6-.47c-1.06,0-2.37-.34-2.42.63a9.79,9.79,0,0,0-.07,1.56V8.71c0,2.16,0,4.31,0,6.45q0,6.24,0,12.29l8.26.32a9.38,9.38,0,0,0,4-.57,4.4,4.4,0,0,0,2.14-3.09c.19-.64.33-1.31.48-2l.22-1a1.12,1.12,0,0,1,1-.92.93.93,0,0,1,1,.93v1c0,.67,0,1.34,0,2,0,2.67,0,5.31,0,7.89,0,1.3,0,2.58,0,3.85v2.37a1.13,1.13,0,0,1,0,.3.94.94,0,0,1-.1.28.91.91,0,0,1-.46.47.8.8,0,0,1-.71-.05,1.39,1.39,0,0,1-.59-1l-.2-.91c-.13-.61-.26-1.21-.42-1.79a6.41,6.41,0,0,0-1.53-3.08,5.74,5.74,0,0,0-3.07-1.33,28.3,28.3,0,0,0-3.45-.26l-6.49-.24c0,4.16,0,8.14,0,11.9,0,1.92,0,3.79,0,5.6a24.46,24.46,0,0,0,.31,5.2,3.53,3.53,0,0,0,3.12,3.06,25.66,25.66,0,0,0,4.51.26c2.9,0,5.63.26,7.87-.55a7.14,7.14,0,0,0,2.63-2,12.67,12.67,0,0,0,1.73-2.4,42.71,42.71,0,0,0,2-4.21l.65-1.55c.13-.44.5-.86.88-.74a.69.69,0,0,1,.49.54.49.49,0,0,1,0,.25"/><path class="cls-1" d="M211.7,19.31s0,.26.42.44a.6.6,0,0,0,.68-.09.65.65,0,0,0,.14-.44c0-.18-.05-.37-.08-.58-.22-1.65-.54-4.09-1-7.23-.1-.78-.2-1.61-.32-2.48,0-.22-.05-.44-.08-.67a.62.62,0,0,0,0-.2L211.23,8c-.45-.11-.91-.24-1.37-.38a59.78,59.78,0,0,0-6-1.59,26,26,0,0,0-7.1-.55A14.27,14.27,0,0,0,189.31,8a13.7,13.7,0,0,0-1.6,1.36,12.22,12.22,0,0,0-1.33,1.69,11.91,11.91,0,0,0-1.75,4.06,15,15,0,0,0-.4,4.61,15.81,15.81,0,0,0,1,4.7,20.34,20.34,0,0,0,6.12,8c1.34,1.14,2.78,2.2,4.28,3.24s3.06,2,4.53,3.23a20.13,20.13,0,0,1,4,4.15,11.55,11.55,0,0,1,2.08,5.53,13.72,13.72,0,0,1-.75,6A7,7,0,0,1,201,58.84,12.64,12.64,0,0,1,189.13,56a16.92,16.92,0,0,1-3.85-5.17,22.61,22.61,0,0,1-1.23-3c-.18-.51-.33-1-.47-1.57-.07-.25-.14-.57-.2-.73a.5.5,0,0,0-.3-.32c-.07,0-.15,0-.21.21a1.55,1.55,0,0,0,0,.66l.16,1.6c.12,1.06.25,2.12.37,3.18.26,2.11.54,4.21.87,6.28.08.49.18,1.08.28,1.46,0,0,0,0,0,0l.38.1.75.19c1,.26,2,.51,3,.73a39.45,39.45,0,0,0,6,.88,23.37,23.37,0,0,0,11.52-2,16.91,16.91,0,0,0,4.65-3.25,14,14,0,0,0,3-4.61,14.34,14.34,0,0,0,0-10.45,20.47,20.47,0,0,0-6.22-7.9c-2.54-2.12-5.25-3.85-7.77-5.65s-4.95-3.64-6.51-6.11a9.29,9.29,0,0,1-1.4-4,13.55,13.55,0,0,1,.12-4,8,8,0,0,1,1.48-3.48,5.79,5.79,0,0,1,3-2,10.58,10.58,0,0,1,6.25.6,12.08,12.08,0,0,1,4.41,2.91A17,17,0,0,1,211,16.85a17.58,17.58,0,0,1,.67,2.46l-.06-.15-.14-.47c-.12-.41-.32-1-.6-1.79a17.34,17.34,0,0,0-3.78-6.12A11.92,11.92,0,0,0,202.78,8a10.25,10.25,0,0,0-6-.53A5.22,5.22,0,0,0,194,9.31a7.45,7.45,0,0,0-1.38,3.3,10.68,10.68,0,0,0,1.26,7.61c1.5,2.35,3.92,4.16,6.41,5.94s5.25,3.5,7.82,5.64a20.87,20.87,0,0,1,6.42,8.12,14.94,14.94,0,0,1,0,10.91,14.75,14.75,0,0,1-3.16,4.83A17.29,17.29,0,0,1,206.55,59a24,24,0,0,1-11.84,2.11,40.21,40.21,0,0,1-6.14-.89c-1-.22-2-.47-3-.73l-.76-.2-.38-.1-.34-.09s-.07,0-.09,0l0-.1-.05-.18c-.16-.64-.22-1.08-.32-1.63-.34-2.09-.61-4.19-.87-6.31-.13-1.06-.25-2.12-.38-3.19l-.16-1.61a2.2,2.2,0,0,1,.06-.94.91.91,0,0,1,1-.67,1.16,1.16,0,0,1,.83.74c.12.34.16.56.23.82.13.52.28,1,.45,1.52a22,22,0,0,0,1.2,2.93,16.62,16.62,0,0,0,3.68,5,12.21,12.21,0,0,0,5.33,2.83,11.2,11.2,0,0,0,5.89-.08,6.37,6.37,0,0,0,4-3.87,12.92,12.92,0,0,0,.71-5.68,11,11,0,0,0-2-5.24,19.62,19.62,0,0,0-3.86-4c-1.43-1.17-3-2.16-4.48-3.21s-2.95-2.12-4.31-3.29a20.76,20.76,0,0,1-6.26-8.24,16,16,0,0,1-1-4.87,15.45,15.45,0,0,1,.43-4.77A12.7,12.7,0,0,1,186,10.79,14.13,14.13,0,0,1,187.35,9,13.21,13.21,0,0,1,189,7.63,14.73,14.73,0,0,1,196.69,5a26.19,26.19,0,0,1,7.21.61A61.59,61.59,0,0,1,210,7.31c.46.14.91.28,1.35.39l.43.1c.07.1,0,.35.08.43s.05.44.07.66c.1.87.2,1.7.29,2.49.35,3.15.63,5.59.82,7.24,0,.21,0,.41.06.59a.77.77,0,0,1-.18.52.68.68,0,0,1-.79.09.66.66,0,0,1-.39-.51"/></g></g></svg>