<svg xmlns="http://www.w3.org/2000/svg" viewBox="0 0 181.64 76.97"><defs><style>.cls-1{fill:#1e1e1c;}.cls-2{fill:#e31718;}</style></defs><g id="Layer_2" data-name="Layer 2"><g id="Layer_2-2" data-name="Layer 2"><path class="cls-1" d="M43.17,43.41c-.28,0-.26-1.91-1.51-4.53A12.14,12.14,0,0,0,38.59,35a11.62,11.62,0,0,0-5.42-2.58,11.81,11.81,0,0,0-6,.46,12.13,12.13,0,0,0-4.26,2.58c-2.12,2-2.78,3.81-3,3.69-.09,0-.05-.52.26-1.34a10.24,10.24,0,0,1,2-3.14,11.81,11.81,0,0,1,4.56-3.18,12.39,12.39,0,0,1,12.92,2.39,12.07,12.07,0,0,1,3.13,4.59c1.09,3,.62,5,.46,5"/><path class="cls-2" d="M61.11,32.68c-.16,0-.16-.75-.8-1.76a4,4,0,0,0-1.57-1.38,3.61,3.61,0,0,0-1.21-.34,11.88,11.88,0,0,0-1.56,0c-2.32.08-5.08.15-8.14.2l-1.17,0c-.4,0-.74,0-1.27,0a5,5,0,0,1-2.74-1.1,5.09,5.09,0,0,1-1-1.13,5.76,5.76,0,0,1-.38-.69c-.11-.23-.2-.52-.25-.63a3.21,3.21,0,0,0-1.28-1.52,3,3,0,0,0-.94-.4,3.85,3.85,0,0,0-.49-.08H37.7l-2.55,0-4.81-.05L26,23.71l-1,0a3.46,3.46,0,0,0-.79.06,3.55,3.55,0,0,0-1.37.61,3.62,3.62,0,0,0-.94,1,4.34,4.34,0,0,0-.31.61,5.91,5.91,0,0,1-.36.71,4.35,4.35,0,0,1-2,1.69c-1.33.54-2.12.25-2.1.16s.75-.17,1.76-.81a4,4,0,0,0,1.38-1.56c.08-.18.15-.36.23-.58A4.6,4.6,0,0,1,22,23.32a4.72,4.72,0,0,1,1.87-1A5.22,5.22,0,0,1,25,22.17l1,0,4.35-.09,4.81,0,2.55,0H38l.4,0a5,5,0,0,1,2.28.74,5.14,5.14,0,0,1,2,2.43c.11.29.15.4.22.56a2.22,2.22,0,0,0,.23.43,3.25,3.25,0,0,0,2.38,1.46c.28,0,.74,0,1.11,0l1.17,0c3.06.05,5.82.12,8.14.2a11.81,11.81,0,0,1,1.74.13,4.78,4.78,0,0,1,1.55.61,4.35,4.35,0,0,1,1.69,2c.54,1.33.25,2.12.16,2.1"/><path class="cls-2" d="M12.06,28.55c0,.26-1.86.5-4.85.67L6,29.28l-.63,0-.32,0-.27,0a3.35,3.35,0,0,0-2,1,3.31,3.31,0,0,0-1,2.18c0,1.06,0,2.16,0,3.28,0,9.15-.43,16.57-.95,16.57S0,44.93,0,35.78c0-1.17,0-2.21,0-3.39a5,5,0,0,1,1.6-3.33,4.84,4.84,0,0,1,3.06-1.27H5.4l.63,0,1.18.06c3,.17,4.85.41,4.85.67"/><path class="cls-1" d="M18,52.44a8.32,8.32,0,0,1-1.33,3.05,33.65,33.65,0,0,1-5.61,7.12c-.35.34-.72.67-1.1,1l-.59.5c-.12.08-.16.15-.37.28l-.43.21c-.15.06-.38.1-.58.16a1.36,1.36,0,0,1-.66-.09,1.16,1.16,0,0,1-.54-.42,2.76,2.76,0,0,1-.28-.61,6.21,6.21,0,0,1-.11-1.84c.07-1.16.22-2.3.37-3.48s.3-2.39.5-3.64.39-2.52.6-3.82.5-2.62.75-4c.49-2.7,1.2-5.45,1.87-8.27A154.46,154.46,0,0,1,20.65,10.71c1.65-3.43,3.12-6.13,4.21-8A13.94,13.94,0,0,1,26.7,0c.26.14-2,4.26-5,11.19A188.57,188.57,0,0,0,12.1,39c-.66,2.8-1.38,5.52-1.88,8.19-.27,1.33-.56,2.63-.79,3.91S9,53.68,8.79,54.9s-.41,2.43-.57,3.61-.35,2.31-.44,3.37a5.64,5.64,0,0,0,0,1.44c0,.16.07.23.35.12l.27-.12.23-.18.58-.45c.38-.31.75-.6,1.09-.92a40.26,40.26,0,0,0,5.86-6.62A31.42,31.42,0,0,1,18,52.44"/><path class="cls-1" d="M19.23,49.64c-.09,0,.08-.64.66-1.63a3.38,3.38,0,0,1,.75-.89,1.08,1.08,0,0,1,.65-.24.8.8,0,0,1,.64.38,2.14,2.14,0,0,1,.33.84,5.14,5.14,0,0,1,.12.72c0,.47.06,1,.06,1.46a44.68,44.68,0,0,1-.72,7l-.09.49-.05.25s0,.06,0,0L21.12,58a1.1,1.1,0,0,0-.25,0c-.06,0,0,0-.08-.06s-.12-.09-.24-.2a2.62,2.62,0,0,0-.29-.2h0c.12-.19.28-.54.42-.83l.89-1.88,1.89-4a9.75,9.75,0,0,1,3-3.7,3.06,3.06,0,0,1,1.32-.49,1.93,1.93,0,0,1,1.55.5,2.65,2.65,0,0,1,.73,1.16,5.42,5.42,0,0,1,.27,1.11,14.5,14.5,0,0,1-.14,3.89A4.35,4.35,0,0,0,30.43,56a2.56,2.56,0,0,0,1.65,1.34A3.11,3.11,0,0,0,33.77,57c.95-.46,1.42-.87,1.51-.78s-.25.63-1.19,1.32a3.4,3.4,0,0,1-2.13.71,3.44,3.44,0,0,1-2.53-1.67,5.32,5.32,0,0,1-.56-3.5,14.14,14.14,0,0,0,0-3.5,2.47,2.47,0,0,0-.54-1.35.41.41,0,0,0-.36-.09,1.49,1.49,0,0,0-.63.27,8.41,8.41,0,0,0-2.43,3.1q-.24.48-.45,1c-.17.42-.34.7-.5,1L23,55.47l-.93,1.88c-.17.32-.29.59-.52,1l-.08.11-.14.14,0,0a.78.78,0,0,1-.53.14.75.75,0,0,1-.41-.18.79.79,0,0,1-.23-.33,1.09,1.09,0,0,1,0-.21v-.15l0-.09v-.08l.06-.24.1-.48a60.82,60.82,0,0,0,1-6.75c0-.48.05-.94.05-1.36,0-.2,0-.42,0-.56a1.32,1.32,0,0,0,0-.26.24.24,0,0,0-.41-.13,2.67,2.67,0,0,0-.47.45c-.7.82-1.07,1.33-1.17,1.26"/><path class="cls-2" d="M61.11,45.68c.52,0,1,4.07,1,9.09,0,.63,0,1.25,0,1.84,0,.29,0,.59,0,.87v.42c0,.17,0,.34,0,.51a4.33,4.33,0,0,1-1.76,2.91,3.52,3.52,0,0,1-2.1.68c-.52,0-.78-.17-.78-.29,0-.29,1.06-.39,2-1.41a3.4,3.4,0,0,0,.89-2.07V57.9l0-.42c0-.28,0-.58,0-.87,0-.59,0-1.21,0-1.84,0-5,.42-9.09.94-9.09"/><path class="cls-1" d="M52.71,57.08c0,.08-.38.48-1.32,1a4.53,4.53,0,0,1-1.92.52,1.81,1.81,0,0,1-.65,0,2.12,2.12,0,0,1-.68-.2,2.34,2.34,0,0,1-.65-.42l-.3-.27c-.09-.11-.16-.22-.24-.33a6.18,6.18,0,0,1-.9-3.13c0-.28,0-.57,0-.86v-.59c0-.07,0-.11,0-.13s-.07.1-.09.12h0s0,0-.05.06l-.31.37-.65.74A36.25,36.25,0,0,1,42,56.83a11.84,11.84,0,0,1-1.75,1.33,4.06,4.06,0,0,1-1.15.49,1.68,1.68,0,0,1-1.67-.48,2.48,2.48,0,0,1-.53-1.31,6.79,6.79,0,0,1,0-1.09c0-.34,0-.67.08-1s.08-.68.17-1a9.05,9.05,0,0,1,4-5.37A9.32,9.32,0,0,1,45.4,47c1-.07,1.62.07,1.61.16s-.56.2-1.51.47a10.41,10.41,0,0,0-3.69,1.73,8.21,8.21,0,0,0-3.22,4.76,7,7,0,0,0-.11.8c0,.31,0,.6,0,.89a5.23,5.23,0,0,0,0,.81,1.15,1.15,0,0,0,.16.48l.14,0a2.6,2.6,0,0,0,.68-.31A12.4,12.4,0,0,0,41,55.62c1-.89,1.91-1.86,2.79-2.8l.64-.71.88-1c.1-.11.21-.25.29-.33l.25-.17.5-.34.24-.16c.08-.06.16-.13.22-.11a.9.9,0,0,1,.5.11c.18.12.2.15.25.3l.15.36c.08.06,0,.42,0,.68s-.07.55-.11.82l-.05.4,0,.29,0,.39c0,.26,0,.52,0,.77a5.39,5.39,0,0,0,.52,2.55,1.87,1.87,0,0,0,1.58,1,4.64,4.64,0,0,0,1.68-.21c.94-.26,1.48-.47,1.54-.36"/><path class="cls-1" d="M130.34,56.7c.06.06-.12.4-.62.92a5.34,5.34,0,0,1-1,.84,3.4,3.4,0,0,1-1.84.53,3.19,3.19,0,0,1-2.15-1.11,7.55,7.55,0,0,1-1.36-2.24,15.61,15.61,0,0,1-.84-2.71l-.08-.36c0-.13,0-.06,0-.09l0,0s-.06,0-.06,0l-.15.2-.44.55c-.31.4-.65.8-1,1.2a30.82,30.82,0,0,1-2.24,2.37,12.1,12.1,0,0,1-1.76,1.39,4.57,4.57,0,0,1-1.11.53,2,2,0,0,1-1.57-.09,2.08,2.08,0,0,1-1-1.23,4.22,4.22,0,0,1-.18-1.17,7.55,7.55,0,0,1,.27-2.06,10.14,10.14,0,0,1,3.91-5.57A8.89,8.89,0,0,1,121.34,47a4.49,4.49,0,0,1,1.23,0c.28,0,.42.07.42.13s-.57.2-1.53.49a9.89,9.89,0,0,0-3.66,1.92,9.54,9.54,0,0,0-3.16,5,6.6,6.6,0,0,0-.18,1.64c0,.53.24,1.09.33,1.05s.62-.05,1.1-.39a11.6,11.6,0,0,0,1.51-1.21c.75-.71,1.46-1.48,2.13-2.24l1-1.14.51-.61.77-1,.45-.3.22-.15a.65.65,0,0,1,.2,0,.87.87,0,0,1,.49.1.74.74,0,0,1,.29.26,1.57,1.57,0,0,1,.23.45l.09.7.1.64.06.34a15.85,15.85,0,0,0,.64,2.51c.52,1.53,1.38,2.75,2.37,2.87a4,4,0,0,0,2.46-.81c.57-.36.88-.59,1-.52"/><path class="cls-1" d="M71.78,75.7s-.12.19-.43.5a3.89,3.89,0,0,1-.68.49,1.86,1.86,0,0,1-1.16.27,2.06,2.06,0,0,1-1.26-.86,6.06,6.06,0,0,1-.79-1.59,19.38,19.38,0,0,1-.83-4.26A94.85,94.85,0,0,1,69.05,43,116,116,0,0,1,74.71,25a83.2,83.2,0,0,1,4.64-9.52,38.75,38.75,0,0,1,6.81-9c.37-.33.78-.63,1.17-.95s.87-.56,1.31-.84l.76-.31.38-.15.51-.1a2.31,2.31,0,0,1,1.91.82,4.87,4.87,0,0,1,.87,1.49,10.52,10.52,0,0,1,.47,1.51,26.62,26.62,0,0,1,.51,3,94.83,94.83,0,0,1,.28,12.3c-.24,8.32-1,16.89-1.63,25.65-.15,2.19-.31,4.37-.46,6.53a39.15,39.15,0,0,0-.06,6.3A5.11,5.11,0,0,0,92.49,63c.06.1,0,0,.05,0a5.14,5.14,0,0,0,.83-1c.27-.41.52-.85.77-1.3,1-1.81,1.78-3.72,2.57-5.62,3.1-7.65,5.64-15.24,8.12-22.44q1.88-5.4,3.64-10.53c.3-.85.61-1.7.91-2.53l.47-1.26c.16-.43.33-.87.5-1.3l.41-1c.16-.36.31-.72.47-1.05a3.31,3.31,0,0,1,.89-1.26,1.4,1.4,0,0,1,.36-.19.55.55,0,0,1,.23,0,.48.48,0,0,1,.28.11,1.29,1.29,0,0,1,.41.82,7.21,7.21,0,0,1,0,1.9c0,.36-.08.75-.13,1.12l-.1.77q-.19,1.24-.39,2.46c-.27,1.61-.53,3.19-.79,4.74-.48,3.1-.86,6.08-1.17,8.94-1.2,11.41-1,20.81.51,27a16.74,16.74,0,0,0,1.42,4,3.22,3.22,0,0,0,2.09,1.93,2.23,2.23,0,0,0,1.59-.72c.29-.32.45-.48.47-.46a2.32,2.32,0,0,1-.34.57,2.37,2.37,0,0,1-1.75.94,3.56,3.56,0,0,1-2.48-2,17.17,17.17,0,0,1-1.61-4c-1.72-6.31-2.1-15.8-1-27.3.28-2.88.62-5.89,1.08-9,.24-1.56.49-3.15.74-4.77q.18-1.2.36-2.43l.07-.58,0-.21a1.21,1.21,0,0,0,0-.19c0-.08-.1.07-.13.11l-.08.2-.11.29-.89,2.4c-.29.84-.59,1.68-.89,2.53l-3.57,10.54c-2.44,7.22-4.95,14.82-8.06,22.56-.8,1.93-1.62,3.87-2.64,5.78-.26.48-.53,1-.84,1.43a5.87,5.87,0,0,1-1.22,1.41,1.61,1.61,0,0,1-1.42.34,1.76,1.76,0,0,1-1-1,6.34,6.34,0,0,1-.44-1.78,18.8,18.8,0,0,1-.12-3.34c0-1.09.09-2.18.16-3.27.13-2.18.29-4.36.46-6.55.68-8.77,1.39-17.32,1.66-25.58a94.66,94.66,0,0,0-.24-12.08,25.49,25.49,0,0,0-.46-2.84,5.83,5.83,0,0,0-1-2.35.76.76,0,0,0-.65-.32l-.21,0-.29.12-.59.23c-.37.25-.76.45-1.12.71s-.71.55-1,.85a37.29,37.29,0,0,0-6.58,8.65A82.34,82.34,0,0,0,76,25.47a117.62,117.62,0,0,0-5.79,17.81A100.28,100.28,0,0,0,67.25,70.2a20.68,20.68,0,0,0,.67,4.16c.34,1.14.89,2.12,1.65,2.27a2.32,2.32,0,0,0,1.67-.56c.34-.26.52-.4.54-.37"/><path class="cls-1" d="M155.58,53.57s-.12.14-.39.18a2.14,2.14,0,0,1-1.16-.27,3.59,3.59,0,0,1-1.38-1.27,4,4,0,0,1-.55-2.49,3,3,0,0,1,.61-1.5,3.06,3.06,0,0,1,1.46-1,5.09,5.09,0,0,1,1.77-.24,3.25,3.25,0,0,1,1.91.81,5.45,5.45,0,0,1,1.3,3.74,12,12,0,0,1-.1,2,5.83,5.83,0,0,1-.81,2.05,8.07,8.07,0,0,1-3,2.75,5.28,5.28,0,0,1-3.95.42,4.69,4.69,0,0,1-2.64-2.44,4.38,4.38,0,0,1-.34-3.08,6.84,6.84,0,0,1,2.39-3.42c.76-.59,1.27-.8,1.33-.71s-.3.46-.89,1.16a7.42,7.42,0,0,0-1.71,3.22,3.25,3.25,0,0,0,.41,2.2,3.34,3.34,0,0,0,1.91,1.65,3.79,3.79,0,0,0,2.76-.41,6.75,6.75,0,0,0,2.4-2.21,4,4,0,0,0,.58-1.43,9.61,9.61,0,0,0,.12-1.69,4.12,4.12,0,0,0-.77-2.7,1.87,1.87,0,0,0-1-.47,4,4,0,0,0-1.24.11,1.71,1.71,0,0,0-1.34,1.38A3.14,3.14,0,0,0,154.37,53c.66.55,1.19.5,1.21.62"/><path class="cls-1" d="M146.9,58.1s-.1.2-.43.41a1.64,1.64,0,0,1-1.77,0,4.61,4.61,0,0,1-1.64-2.21A23.72,23.72,0,0,1,142,53c-.33-1.23-.62-2.64-1.08-4a2.68,2.68,0,0,0-.39-.77s0,0-.06,0-.09-.05-.13,0a.37.37,0,0,0-.25,0,3.35,3.35,0,0,0-1.36,1.41,27.23,27.23,0,0,0-2.17,4.73l-1,2.68-.15.38-.27.67a1.68,1.68,0,0,1-.72.86,1.3,1.3,0,0,1-1.06,0,1.24,1.24,0,0,1-.7-.75,14.49,14.49,0,0,1-.5-2.26,17.47,17.47,0,0,1-.23-1.75,114.33,114.33,0,0,1-.34-12.46c.07-3.82.23-7.25.4-10.13.36-5.75.78-9.3,1-9.29s.21,3.58.15,9.33c0,2.88-.07,6.3-.06,10.1s0,8,.45,12.28c0,.57.15,1.11.22,1.66a9.37,9.37,0,0,0,.19,1.07h0l.11-.29,1-2.67a28.48,28.48,0,0,1,2.41-5,7.43,7.43,0,0,1,.87-1.09,3,3,0,0,1,1.32-.85,1.83,1.83,0,0,1,1.77.44,3.4,3.4,0,0,1,.65,1.27c.46,1.53.66,2.9.93,4.14a25.91,25.91,0,0,0,.82,3.27,4.35,4.35,0,0,0,1.16,2,1.41,1.41,0,0,0,1.33.18c.33-.11.52-.19.55-.14"/><path class="cls-1" d="M150.24,27.71c.13.21-1.34,1.27-3.39,3.33a61.44,61.44,0,0,0-7.13,8.81,71,71,0,0,0-5.63,9.86,20.39,20.39,0,0,0-1.19,3.17,2.73,2.73,0,0,0-.1.85c0,.18.07.27,0,.33s-.19,0-.33-.21a2,2,0,0,1-.22-1,12.28,12.28,0,0,1,.74-3.53A45.69,45.69,0,0,1,138.38,39a41.39,41.39,0,0,1,7.7-8.76c2.33-1.91,4.06-2.66,4.16-2.48"/><path class="cls-1" d="M170.76,50.22c-.14.05-.36-.47-1-1.07a5,5,0,0,0-3.59-1,4,4,0,0,0-2.29.84,1.31,1.31,0,0,0-.48.92,1.44,1.44,0,0,0,.49,1,19.44,19.44,0,0,0,2.69,2.24,15.9,15.9,0,0,1,1.57,1.27,5.58,5.58,0,0,1,.78.87,2,2,0,0,1,.39,1.57,2.36,2.36,0,0,1-.86,1.26,3.72,3.72,0,0,1-1.08.59,7.49,7.49,0,0,1-2.13.44,7.33,7.33,0,0,1-2.09-.16,5,5,0,0,1-1.05-.4,2.24,2.24,0,0,1-.94-1,1.7,1.7,0,0,1-.1-.5,1.14,1.14,0,0,1,.18-.59,1.47,1.47,0,0,1,.67-.54,3.35,3.35,0,0,1,1-.22,10,10,0,0,1,1.73,0,20,20,0,0,1,2.94.46,17.26,17.26,0,0,1,4,1.4c.91.48,1.32.9,1.25,1s-.55-.13-1.49-.4a26.6,26.6,0,0,0-4-.86,21.59,21.59,0,0,0-2.8-.25,9.32,9.32,0,0,0-1.5.06,2.09,2.09,0,0,0-.61.15l-.05,0s-.21-.21-.2-.2,0,0,0,0a.93.93,0,0,0,.32-.08,1.57,1.57,0,0,0,1,.46,5.9,5.9,0,0,0,1.64.09,6.07,6.07,0,0,0,1.66-.36,1.64,1.64,0,0,0,.94-.7.61.61,0,0,0-.14-.31,5.82,5.82,0,0,0-.55-.61c-.43-.41-.93-.8-1.43-1.19a17.53,17.53,0,0,1-2.87-2.53,3.77,3.77,0,0,1-.57-.89,2.09,2.09,0,0,1-.2-1.19,2.73,2.73,0,0,1,1-1.82,5.05,5.05,0,0,1,3.11-1,5.3,5.3,0,0,1,4.08,1.74,2.85,2.85,0,0,1,.56,1.08c.07.27.08.41,0,.43"/><path class="cls-1" d="M176.29,47.84c.22.07.1,1-.16,2.49-.13.73-.28,1.6-.4,2.56a11.33,11.33,0,0,0-.08,3,2.63,2.63,0,0,0,.43,1.17,1.34,1.34,0,0,0,.84.5,5.67,5.67,0,0,0,2.29-.2c1.4-.35,2.31-.68,2.42-.47s-.6.86-2,1.55a5.57,5.57,0,0,1-2.9.59,2.87,2.87,0,0,1-1.85-1,4,4,0,0,1-.79-1.92,10,10,0,0,1,.2-3.48A17.42,17.42,0,0,1,175,50c.55-1.43,1.06-2.25,1.26-2.18"/><path class="cls-1" d="M178.7,44.47c.11.18.05.5-.32.8a1.44,1.44,0,0,1-.88.31,1.55,1.55,0,0,1-1.22-.61,1.91,1.91,0,0,1-.39-1.08,1.85,1.85,0,0,1,.16-.82c.2-.45.55-.6.73-.48a1.24,1.24,0,0,1,.4.62,3.47,3.47,0,0,0,.37.77c0,.05,0,.06.09.11a.66.66,0,0,0,.35.1c.29.05.59.08.71.28"/></g></g></svg>