<svg xmlns="http://www.w3.org/2000/svg" viewBox="0 0 241.17 217.7"><defs><style>.cls-1{fill:#1e1e1c;}.cls-2{fill:#e2ad11;}.cls-3{fill:#010202;}</style></defs><g id="Layer_2" data-name="Layer 2"><g id="Layer_2-2" data-name="Layer 2"><path class="cls-1" d="M224.85.61c-4.14-3.2-18.24,7.32-19.13,5.12-2.35-5.75-11.26-2.32-20.1,3.92-6.15,4.34-12.25,9.69-13.41,12.93-1.54,4.28,2.26,7.54,1.71,9.88-.11.48-9,9.77-9.35,6.59-.46-4.25,1.85-14.16,1.88-14.33.55-3.14,5.53-6.68-2-10.88-3.76-2.1-7,2.22-9.56,5-2,2.2-13.91,18.05-16.2,19.49-1.11.71-5.87-1.42.33-12.75a8.85,8.85,0,0,1,5.82-4.1,6,6,0,0,0,3-1.13c1.44-1.43.94-2.1.9-3.55-.17-5.88-5.56-7.25-12.82-7.66C129.78,8.75,125,16.51,121.8,23c-2.63,5.36-6.3,2.06-7.26-.43C108.17,6,99.23,7,93.87,11.47c-4.45,3.71-9.22,14.36-15.76,5.24C71.28,7.2,62.09,6,57.2,11.48c-12.88,17.9-18.07,1.38-30.82,2.84-5.39.25-8.71,5.8-12.09,7.4C1.34,13.5,0,31,7.45,32.75c-3.16,12,7.54,20.5,13.46,21.48,7.26,1.2,6.34,8.35,4.58,7.37-5.32-2.93-13.14,3.45-10.93,8.72C4.18,69.39-.06,79.22,2.91,84.94c-2.21,1.7-5.65,8.39.84,17.29,1.72,2.35,7.48,5.61,8.84,8.32,5.81,11.66,10,20.22,1.08,35.53-8,13.73,9.92,12.44,18.11,10,12.74-3.21,3.13,15.34,12,12.67,8.31-2.94,8.35-8.08,17.75-9.23a203.79,203.79,0,0,1,23.78-1c-17.61,3.86-15.33,13.51-9.06,18.85,4.34,3.69,1,16.26.27,23.37-.62,5.78.65,13.36,5.9,15.85,14.76,7,9-19.86,7.6-21.07,10,2.4,3.13-13.05,7.07-11.2,8.44-.55,3.29-9,8.67-7.87,7.16,1.46,5.6-8,5.6-8-.6-2.16,21.64.16,35.33,3.28l1.85.44,1.62.42a21.4,21.4,0,0,1,6.3,2.45c10.36,7.83,32.06,3.89,36.62-1.47,4.84-5.68,2.7-12.91,1.64-15.59-1.64-4.16-4.84-6.56.09-7.36,3.72-.6,10.46-3.92,10.85-17,.69-22.7,1.81-28.94,2.33-30.12,2.74-6.23,4.45-7.54,7.11-5.41,3.09,2.47,8.83.16,7.66-8.28-.63-4.52,3.88-10.22-1.54-19.08-1.62-2.64-8.19-1.76-8.35.24-4.29-6.8-11.54-3.51-14.28-1.27-3.38,2.86-6.26-2.94-3.42-4.46,3.72-2,44.16-30.93,45.89-36.52S229,3.82,224.85.61M146.07,120.08a13.21,13.21,0,0,0-5.82-1.59,46.59,46.59,0,0,0,3.94-15.59,9.25,9.25,0,0,0,4.92,1.11c-1.85,6.39-3.62,12.7-3,16.07"/><path class="cls-2" d="M125.94,159.77c-.64-4.21-62.78-11.9-76.23-.63-9.17,7.69-7-6.89,1.89-10.74,9.68-4.17,82.51-14.66,119.38.32,8.63,3.51,12.54,4.8,13.44,8.5,2,8.06-15,15-22.35,9.34a1.92,1.92,0,0,1-.52-2.43c6.63-12.55-71.77-14.75-71.77-14.75,11,.71,41.15,5.07,51,12,3.15,2.2,2.62,3.58-.63,3.51-5.45-.12-21.09-4-32.53-.24-2.09.69,0,2.78-.11,5.5-.06,1.45-.83,1.92-1.74,1.87a1.91,1.91,0,0,1-1.76-1.84c-.17-2,1.07-3,.12-4.18-1.8-2.28-4.83-.23-5.18,2.56s1.26,4.93,1.05,7.93c-.1,1.36-1.06,2.94-2.22,2.92s-2.12-1.51-2.21-2.88c-.2-3,2.25-5.81-.93-7.94-1.35-.9-4.11-1.3-4.58,2.37-.57,4.4,1.07,8.11,2.45,14.08.79,3.45-.11,5.92-2.69,5.89-1.37-.08-2.46-2-2.66-4.15-.4-4.28,1.34-11.32-1.14-14.66-1.49-2.64-2.82,0-3.14,3.37-.52,5.36,4.29,28.17,4.26,32.67-.07,8.52-7,7-7-4.05,0-6.16,2.88-24.95-1.52-31.72-16.36-11.28,39.43-12.09,47.34-12.57"/><path class="cls-2" d="M197.05,134.11q0,.51,0,1c0,1.13-.17,4.34-2,6.39-3.58,4.08-10.14,5.78-9.76-6.94a12,12,0,0,1,.26-2.15c1.67-7.81,13.16-57.22,15.09-59.92A5.87,5.87,0,0,1,206.88,70c2.43.54,1.49,5.58.22,7.45-6.09,8.91-9.6,51-10,56.63"/><path class="cls-2" d="M133.37,14.65c-12.66,9.57-15.78,36.08-16.06,42.62,0-15.36-11.11-40.37-11.11-40.37a6.31,6.31,0,0,0-7.57-3.11,3.11,3.11,0,0,0-1.49,4.28c3.85,10.12,5.37,46.88-4,53.77-2.33,1.72-2.32,5.39-.6,7.64,1.9,2.48,6.08,3.07,10.72-5.69s5.26-22.94,4.61-35.21a75.21,75.21,0,0,1,3.87,27c-1.45,18,17,17.84,13.56,9.5-5.59-13.55,5.39-53.76,15-56.46,7.86-2.22-1.73-7.79-7-4"/><path class="cls-2" d="M59.63,64.77c-1.31-2.67-4.32,0-4.45,1.22C54.63,69.51,47,109,47,109c-4.54-16.75-16.5-36.76-18-41.85C27,60.13,17.41,66.85,20,70c5.73,7,9.27,60.18-1.6,78.05-5,8.2,9.08,3.34,12,0,2-2.34,4.06-12.7,4.65-16.85,2.13-14.79,0-34.12.27-35.72,0,0,6.59,15.83,8.54,25,2.14,10.1,9.91,7,10.67,3.1.87-4.44-1.52-20.95,1.84-33.25,3.28,18.43,10.21,37.26,12,39.89,5.29,7.43,13.68-2.76,9.14-7.28C68.46,113,59.19,70.63,59.89,66.8a3.32,3.32,0,0,0-.26-2"/><path class="cls-2" d="M69.21,136.46c3-5.15,9-20.43,8.63-29.55-1.19-1.64-1.07-2.87-.17-3.32-.81-12.38-3.52-24.42-5.54-27.47a2.51,2.51,0,0,1-.45-1.79c.44-2.56,4.8-1.25,4.47-.73A25.14,25.14,0,0,1,79.76,79c3,1.71,7.29,6.12,10.91,10.19,3.8,4.27,11.5,18.65,11.74,19.81,2.27-.47,4.88,7,2.76,7.89,1,3,2.65,4.56,2.7,8.06-.69,11.31-10.32,8.72-10.53-.59a61,61,0,0,0-1.56-6.52c-4.82-.86-8.94-4.64-9.66-5a54.68,54.68,0,0,1-6.35,25.83c-3.27,6.21-7.73,3.18-10,.92a2.56,2.56,0,0,1-.54-3.11m24.3-26.63c-3.1-9-7.28-15.65-10.51-19.16A114.47,114.47,0,0,1,86.06,107c1.83,1.32,4.13,3,7.45,2.87"/><path class="cls-2" d="M166.9,76c-4-5.07-5.74-14.56-6.15-24.57a13.62,13.62,0,0,0,1.38-.93c2.24-1.23,2.28-7.59-1.46-6.42.18-11,1.74-21,3.35-23.6a2.12,2.12,0,0,0,.28-1.72c-.75-2.43-4.54-1.65-5.55-.37a17.12,17.12,0,0,0-1,1.54c-3.2,3.21-14,16-22.36,28.33-1.5-.23-4.29,1.78-2.27,3.43-5.59,8.71-9.45,16.72-7.9,20.37,2.32,5.48,5.46,5.13,7.81,3.7a5.52,5.52,0,0,0,2.72-5.51c-.69-5,1.21-10.76,4.12-16.39a37.66,37.66,0,0,0,12.22-.29c.37,12.5,2.39,23.4,3.67,24.88,4.2,5.81,8.68,2.77,10.92.54a2.21,2.21,0,0,0,.24-3M142.73,48.87A118.09,118.09,0,0,1,153,35.07,97.3,97.3,0,0,0,152,47a56.91,56.91,0,0,1-9.3,1.84"/><path class="cls-2" d="M143.2,74.09c-1.16-2.84-4.1-7.29-10.51-3.92-2.14.89-12.31,17.92-16.81,31.62-1.13-7.67-2.89-21.2-6.34-26.19-.89-1.11-4.16-2.64-5.21.1a2.28,2.28,0,0,0,.35,1.92c1.93,3.27,4,15.95,4,29-.07,2.8-.86,23-5.36,28.51a2.72,2.72,0,0,0,.36,3.33c2.3,2.47,6.86,5.81,10.77-.72,1-1.39,2-9.31,2.43-19.33,2-4,14,31.55,24.23,15.06,2.21-3.91-1.81-5.72-4.7-6.4a13.13,13.13,0,0,1-7.38-4.33c-2.83-3.06-5.92-11.51-9.92-13.3,4.65-12.52,13.65-28.26,23-32.67a2,2,0,0,0,1-2.69"/><path class="cls-2" d="M156.61,86.77c-1.49-2.46-7.24-13.5-13.93-9-5.63,3.77-1.71,6.93,1.23,8.49-4.86,3-12.63,9.24-14.08,21.06-1.94,15.81,1.69,22.42,11.41,25.89,13,3.33,18.42-12.37,18.93-20.38.91-14.44-1.83-23.18-3.56-26m-4.15,26.16c-1.42,10.65-7.89,17.26-10.18,14.76-10.05-11-1.8-30.73,6.5-38.36,3.67,4.59,4.86,14.75,3.68,23.6"/><path class="cls-2" d="M186,89.5a7.25,7.25,0,0,0,1.1,2.25c1.47,2,4.53,5.11,7.15-.21,3.59-7.3-8.13-14.13-9.32-14.7-2.53-1.2-13.1-4.28-20.51,4.47S159.2,99.66,166.29,106c4.46,4,4.46,4,8.57,6.66,3,1.94,10.2,3.84,3.28,12.53s-13.21-2.17-11.81-4.34c2.31-3.58-2.57-5.68-5.34-4.58a5.25,5.25,0,0,0-3.37,4.93c-.1,3.87,5.59,11.56,11.24,13.26s10.31,2.1,15.25-4.13,5.83-13,3.28-17.36c-3.7-6.29-7.41-6-14.52-10.9-8.19-5.67-5.16-13.82-3-16,2.26-2.68,13.69-4.58,16.12,3.44"/><path class="cls-2" d="M80.88,74.69a3.89,3.89,0,0,0,1,6.09c2.89,1.82,7.16,1.2,9.06-7.5,3.47-15.91-18.86-59.19-21.36-60.75a7.06,7.06,0,0,0-4-.79c-2.51.17-3.84,2.48-2.49,4.19,6.1,7.7,22.75,53,17.82,58.76"/><path class="cls-2" d="M186,25c-.77,1.67-4.46,8.4-.68,13.13,3.18,4,3.66.18,3.65-2.52,2.62,3.48,7.51,8.8,13.39,7.89,7.85-1.21,9.37-6.35,9.12-14.3-1.75-11.34-10.39-12.79-14.25-11.78-7,1.82-10.35,5.64-11.23,7.58M197.8,21.1c5.32-.72,10.33,4.4,10.9,8.48,1,6.88-4,10.35-7.64,10.27a14.21,14.21,0,0,1-8.7-3.9c-2.73-2.64-2.44-7.89-.19-11,1.47-2,3.36-3.59,5.63-3.9"/><path class="cls-2" d="M216,6c0-.06,1.72-1.09,1.77-1.12,2-1.08,4.24-1.39,6,.14,0,0,10.45,16.53,7.25,15.43A13.49,13.49,0,0,1,229.45,18c-2.83-4.89-4.79-8.39-7.7-11.29a3.57,3.57,0,0,0-2.14-.6S215.71,7.41,216,6"/><path class="cls-2" d="M215.42,7.85c-2.7,2.44-6.37,4.16-9.53,6.46-.56.41-1.32.84-1.7.26-1.12-1.72-4.44-3.39-6.86-4.06-4.21-1.17-17.19,9.82-18.74,14.34a7.5,7.5,0,0,0-.45,2.16c.28,1.67-.07,2.53.7,3.08,1.66,1.17,1.45,3.11,0,4.48l-11,10.09a1.21,1.21,0,0,0-.15,1.62c2,5.22,7.65,11.33,6.51,10.91a1.18,1.18,0,0,1-.57-.44c-5.54-6.88-5.66-5.79-8.94-12a1.22,1.22,0,0,1,.22-1.63l11.68-9.82a1.21,1.21,0,0,0,.11-1.75c-1.61-1.75-1.92-5-1.56-6.63,0-.1,2.1-7.24,19.45-16.83a5.66,5.66,0,0,1,6.13.4c1.06.8,2.17,1.05,3,2.25.38.53,2.15.1,2.7-.26,1.17-.75,2.64-1.19,3.79-1.9,1.64-1,6.63-2.06,5.18-.75"/><path class="cls-2" d="M181.12,63.19a1.19,1.19,0,0,0,1.58.28l12.74-7.71c1.73-1,26.5-19.88,27.05-20.3,4.13-3.18,8.55-6.25,11.16-10,.26-.38,3.4,1,1.78,2.68l-.12.14c-2,2.8-5.1,5.52-8.26,8.24-.5.42-30.49,21.33-31.07,21.72l-12.39,8.16c-.52.35-2.75-.36-3.13-.84-3-2.86-4.32-5.48-3.86-5.76.3-.19,2.6,1.89,4.52,3.44"/><path class="cls-2" d="M16.33,77.63c-1.74-2.89-3.13-3.13-4.63-2.95-3.25.4-7.24,8.21-4.62,9.8.27.16,3.43-1.73,3.73-2,4.57-3.66,9.89,21.56,9.39,21.47,1.25.22-.68-21-3.87-26.35"/><path class="cls-2" d="M62.47,22.16c-.09-.19.21-.37.34-.19a79.42,79.42,0,0,1,10,24.13c.12.59-.91.89-1,.3a84.24,84.24,0,0,0-5.07-15c-1.3-3-3.09-6.87-4.22-9.2"/><path class="cls-2" d="M194.88,82.15c.32.51-.51,1.21-.82.7a17.43,17.43,0,0,0-13.38-8.72c-2.57-.31-2.54-.84,2.89-.13,3.81.51,8.13,3.11,11.31,8.15"/><path class="cls-2" d="M161.15,133.63a14,14,0,0,1-3.53-4.26c-.81,1.22-4.62,4.93-7.37,5.67-1,.28-1.91-.9-1.13-1,2.73-.25,8.26-5.42,8.5-6.41a20.47,20.47,0,0,0,4.32,4.9c1.3,1.12.63,2.21-.79,1.08"/><path class="cls-2" d="M107.26,96.73c.07,1-.9,1.17-1.08,0-.82-5.52-.28-9.28-2.16-15.67-.28-1,0-1.61.64-.27,1.58,4.29,2.22,10.46,2.6,15.92"/><path class="cls-2" d="M85.47,127.68a41.48,41.48,0,0,0,1.47-9.58c0-1,.48-1.54.69-.06a42.83,42.83,0,0,1-1,9.39c-.43,2.21-1.64,2.14-1.17.25"/><path class="cls-2" d="M150.75,55.16a.5.5,0,0,1,.52.5A46.3,46.3,0,0,0,151.89,66c.22,1-.08,1.61-.65.23-.78-2.64-.86-6.55-1-9.95,0-.51-1.53,0-2.35-.29-.47-.17-.82-.62-.76-.72.29-.48,1.83,0,3.66-.1"/><path class="cls-2" d="M24.37,153.93c-1,0-1.86-.7-.7-.82,4.87-.51,7.91-2.05,9.74-7.94.34-1.1,1.3-.79,1,.38-1.33,5.24-5.13,8.21-10,8.38"/><path class="cls-2" d="M194.76,145.81c-.93.47.87-1.32,1.61-2,2.11-1.83,3.21-4.07,3.06-7.68,0-.56.23-3.18.91-1.87a10.53,10.53,0,0,1-2.91,10,10.37,10.37,0,0,1-2.67,1.54"/><path class="cls-2" d="M211.9,77.07c1.86-2.82,3.12-3.07,4.43-2.92,2.85.33,5.55,7.78,3,9.36-.25.15-2.86-1.61-3.1-1.84-3.67-3.45-10.51,11.36-7.89,3.62a41.93,41.93,0,0,1,3.51-8.22"/><path class="cls-2" d="M10.23,91.1c-2.31-2.47-3.72-2.41-5.15-1.91C2,90.26,2.19,99.44,5.24,99.81c1.25.15,1.29-1.88,1.53-2.18,3.7-4.54,12.08,20.85,11.57,20.86,1.27,0-3.87-22.87-8.11-27.39"/><path class="cls-2" d="M185,170.35c8.6-6.65,2.6-15.13,2.15-11-.82,7.49-12.45,14.7-26.57,10-1.63-.54,12,8.74,24.42,1"/><path class="cls-2" d="M151,102.12a9.27,9.27,0,0,1-4.92-1.11,46.59,46.59,0,0,1-3.94,15.59,13.29,13.29,0,0,1,5.83,1.59c-.59-3.37,1.19-9.68,3-16.07"/><path class="cls-2" d="M210.6,86.94c1.86-2.82,3.12-3.07,4.43-2.92,2.85.33,5.55,7.78,3.05,9.36-.25.16-2.86-1.61-3.1-1.84-3.67-3.44-10.51,11.36-7.89,3.63a41.2,41.2,0,0,1,3.51-8.23"/><path class="cls-2" d="M8.66,27.35a3.36,3.36,0,0,0,2,2.48,2.12,2.12,0,0,0,.41.12,2.75,2.75,0,0,0,1.37-.3c.11,0,.12-.35.17-.53a1.77,1.77,0,0,0-.44-.11,1.12,1.12,0,0,0-.44.09,1.68,1.68,0,0,1-1.95-.65c-.66-1.39-.84-2.89,1.36-3.15A1.77,1.77,0,0,1,13,26.47a5.87,5.87,0,0,1,.46,2.14,41.2,41.2,0,0,1-.27,4.57,10,10,0,0,0,.13,4.38c.35,1,.51,2.09.89,3.09A14.41,14.41,0,0,0,21,48.12c2.42,1.35,5,2.48,7.45,3.7a22.39,22.39,0,0,1,5.25,3.26A5.78,5.78,0,0,1,36,59.84c0,.59-.18,1.18-.27,1.8a3.29,3.29,0,0,0,3.24-1.06,6.84,6.84,0,0,0,1.53-7.07c-.16-.47-.37-.94-.52-1.42s-.16-.73-.26-1.2c.61.2,1.09.34,1.55.51,2.22.85,4.42,1.72,6.64,2.55,1.56.58,3.16,1,4.7,1.67a7.66,7.66,0,0,0,2.82.43A3.84,3.84,0,0,0,58.81,53a12.4,12.4,0,0,0,.09-1.85l.49.1a4.3,4.3,0,0,0,3.22-.38A2.7,2.7,0,0,0,64.15,49a9.32,9.32,0,0,0,.1-1.4,4.53,4.53,0,0,0-1.69-3.31c-.36-.34-.73-.66-1.13-1,.46-.24.87-.44,1.26-.67a2.7,2.7,0,0,0,.79-4.12,14.39,14.39,0,0,0-2.85-2.29,24.92,24.92,0,0,0-3-1.47L47.42,30.09a.8.8,0,0,1-.18-.15s.08-.08.1-.08a8,8,0,0,0,4.48-2.23,6.79,6.79,0,0,0,2.45-4.91A3.6,3.6,0,0,0,53,19.78c-1.22,1.56-2.32,2.16-4.68,2.49a23.32,23.32,0,0,1-4.42.15,20.3,20.3,0,0,1-7.39-1.87,22.14,22.14,0,0,0-5.58-2,13.26,13.26,0,0,0-10.41,2.21A54.5,54.5,0,0,0,16,24.69a6.25,6.25,0,0,0-1.14,1.58.87.87,0,0,0,.2,1.19,18.46,18.46,0,0,1,5.6-6,14,14,0,0,1,8.58-2.6A16,16,0,0,1,35.68,21c2.11,1,4.2,2.13,6.33,3.14a13.49,13.49,0,0,0,6.78,1.16A5.24,5.24,0,0,0,53,23a2.84,2.84,0,0,1,.24-.23,3.2,3.2,0,0,1-.37,2.66,7.38,7.38,0,0,1-3.1,2.73,9.56,9.56,0,0,1-4.57.79,10.85,10.85,0,0,1-6.92-2.23A26.64,26.64,0,0,1,35.4,23.7a7.47,7.47,0,0,0-3.93-2.58,3.19,3.19,0,0,0-3.85,2.48c0,.16-.06.31-.1.49a3.26,3.26,0,0,0-.51-.21c-.88-.26-1.75-.56-2.65-.74a1.46,1.46,0,0,0-1.48.58,2.76,2.76,0,0,0-.47,2.39A1.9,1.9,0,0,0,25,27.23a.83.83,0,0,0,.34-1.16c-.22-.37-.59-.38-1,0l-.78.59c-.59-.87-.65-1.55-.16-2.05A2.35,2.35,0,0,1,25.77,24a2.18,2.18,0,0,1,1.76,1.54,6,6,0,0,1-2,6.06,3.2,3.2,0,0,1-2,.79A7.58,7.58,0,0,1,19.14,31a1.18,1.18,0,0,1-.57-1.43A1.41,1.41,0,0,1,20,28.8a3,3,0,0,1,1.76.91c.36.34.71.71,1.1,1a1.49,1.49,0,0,0,1.26.42,1.29,1.29,0,0,0-.06-.22,6.51,6.51,0,0,0-5.08-3c-1.65.08-2.36,1.37-1.48,2.76a3.56,3.56,0,0,0,1,1.1,11.21,11.21,0,0,0,2.23,1.15,5.32,5.32,0,0,0,4.59-.24,5.69,5.69,0,0,0,2.9-5.24c0-.87-.13-1.75-.13-2.62a3.05,3.05,0,0,1,1.37-2.91c1.09-.65,2.12-.24,3.14.32a1.54,1.54,0,0,1,.76,1.61,1.86,1.86,0,0,1-.91,1.68,4.57,4.57,0,0,0-.34-.7c-.18-.25-.39-.57-.78-.32a1,1,0,0,0,.15,1.78,1.47,1.47,0,0,0,1.93-.65,8,8,0,0,0,.47-1,11.65,11.65,0,0,0,.3-1.14c.6.72,1.15,1.4,1.73,2a11.66,11.66,0,0,0,7.23,4.05,10.61,10.61,0,0,1,2.64.75c3.91,1.64,7.8,3.34,11.68,5,.78.34,1.53.77,2.29,1.17.29.16.58.33.86.52a18.26,18.26,0,0,1,1.91,1.35,2.05,2.05,0,0,1,.61,2.46A2.25,2.25,0,0,1,61,42.36a5,5,0,0,1-1.53-.23c-1.34-.45-2.65-1-4-1.44-2.55-.9-5.12-1.76-7.65-2.71-1.85-.69-3.63-1.53-5.46-2.24a11.37,11.37,0,0,0-2.09-.5c-.17,0-.37.13-.55.2.13.21.21.5.4.61a10.21,10.21,0,0,0,1.14.4c3.91,1.58,7.9,2.95,11.93,4.21a34.36,34.36,0,0,1,7.59,3.24,5.09,5.09,0,0,1,2.44,2.65,3.22,3.22,0,0,1-.08,2.78,3,3,0,0,1-3.2,1.22,13.82,13.82,0,0,1-3.07-.95c-2-.87-3.91-1.86-5.88-2.77-4.09-1.87-8.18-3.71-12.27-5.57a2.61,2.61,0,0,0-.61-.22.68.68,0,0,0-.85.43,1,1,0,0,0,.13.11l12.91,5.86c1.76.8,3.54,1.54,5.29,2.37a4.56,4.56,0,0,1,2.12,1.86,2.44,2.44,0,0,1-1.61,3.4,10.55,10.55,0,0,1-4-.38c-1.17-.34-2.32-.79-3.49-1.16a50.78,50.78,0,0,1-7.4-3.06c-2.42-1.21-4.84-2.44-7.31-3.54a14.2,14.2,0,0,0-7-1.39.15.15,0,0,1-.1,0,13.19,13.19,0,0,0,.29-1.8A1.89,1.89,0,0,0,25.5,42,1.62,1.62,0,0,0,24,43.08a1,1,0,0,0,.06.79,1,1,0,0,0,.79.3c.14,0,.24-.4.36-.63,0-.06,0-.13.05-.19.11-.33.28-.43.6-.2A1.37,1.37,0,0,1,26.12,45a2.31,2.31,0,0,1-3.55.68A3.29,3.29,0,0,1,21,42.07a4.28,4.28,0,0,1,1.42-1.91c.71-.62,1.47-1.19,2.14-1.84a4,4,0,0,0,1-4.19,2.26,2.26,0,0,0-.19-.42l-.21,0A5.11,5.11,0,0,0,25,35.06a4.08,4.08,0,0,1-2.48,4,2.94,2.94,0,0,1-3.72-1.31,1.29,1.29,0,0,1,1.12-1.92,3.19,3.19,0,0,0,.27.69c.14.2.36.47.56.48a.94.94,0,0,0,.63-.4A1.14,1.14,0,0,0,21,35.13c-.49-.46-1.19-.63-1.55-.31a8.57,8.57,0,0,0-1.35,1.41,1.94,1.94,0,0,0,.73,2.91c.53.26,1.09.44,1.64.65.35.14.71.25,1,.37-.36.69-.74,1.29-1,1.94a2.58,2.58,0,0,0,1,3.41,5.08,5.08,0,0,0,1.48.72,8.39,8.39,0,0,0,3.35.13,20.35,20.35,0,0,1,2.21-.17,16.13,16.13,0,0,1,7.19,2.09,7,7,0,0,1,3.09,2.94,8.62,8.62,0,0,1,.81,7.09,1,1,0,0,1-1,.82c-.14-.74-.27-1.46-.39-2.18A5,5,0,0,0,36,53.33a15.09,15.09,0,0,0-3.14-1.68c-2.19-.75-4.44-1.32-6.68-1.91A17.58,17.58,0,0,1,19,45.93a15.81,15.81,0,0,1-5-8.16A8.24,8.24,0,0,1,13.71,35c.13-1.3.28-2.6.43-3.9a9.14,9.14,0,0,0-.56-4.85,2.5,2.5,0,0,0-2.09-1.67c-2.66,0-3.06,1.49-2.83,2.79m3.19-3.63a3.85,3.85,0,0,1,2.31,1.54l.24-.21,2.16-2a19.88,19.88,0,0,0,1.87-1.67,6.93,6.93,0,0,1,2.91-2c.42-.15,1.12-.39,1.53-.55a14.66,14.66,0,0,1,12,.26,27.77,27.77,0,0,0,9.49,2.73A13.14,13.14,0,0,0,51,20.67a2.34,2.34,0,0,0,1.18-1.18,4.05,4.05,0,0,1,.61-.77l.47.2a.57.57,0,0,0,.11.16A4.42,4.42,0,0,1,55,23a7.7,7.7,0,0,1-2.65,4.9,8.1,8.1,0,0,1-3,1.86,5,5,0,0,0,.54.33C52,31,54,31.94,56,32.91c1.83.88,3.66,1.78,5.44,2.75a10.16,10.16,0,0,1,2,1.48,4,4,0,0,1,.12,6.08v.83a5.66,5.66,0,0,1,1.6,3.11,7.86,7.86,0,0,1,0,1.19c-.18.54-.44,1.37-.61,1.91a5.19,5.19,0,0,1-3.89,2.09,1.5,1.5,0,0,1-.29.06c-.37,0-.53.19-.62.57a4.55,4.55,0,0,1-4.94,3.77,14.21,14.21,0,0,1-4.86-1c-2.61-1-5.19-2-7.78-3.07l-.95-.41c0,.29,0,.45.08.61a14.08,14.08,0,0,1-.07,5.45,5,5,0,0,1-5.77,4c-.23,0-.45,0-.68,0l-.11-.19c1.11-2.76.61-4.75-1.66-6.72l-.63-.5a36,36,0,0,0-6.18-3.38c-2.14-1-4.32-2-6.37-3.15A15.92,15.92,0,0,1,12.2,32.9c.08-.71.23-1.41.35-2.17a4,4,0,0,1-1.81,0,3.88,3.88,0,0,1-2.56-2c-1.69-3.28,1.84-5.56,3.67-5"/><path class="cls-2" d="M30.08,51.82a1.42,1.42,0,0,1,1.65-.34,21.93,21.93,0,0,1,2.81,1.34,8.36,8.36,0,0,1,3,2.81,2.94,2.94,0,0,1,.34,3c0,.09-.07.21-.15.25-.28.18-.6.48-.88.45s-.36-.49-.35-.83a3.24,3.24,0,0,0-.72-1.94A13,13,0,0,0,31.62,53c-.52-.32-1-.72-1.54-1.13"/><path class="cls-2" d="M52.19,21.82a1.79,1.79,0,0,1-.29,1.71A3.46,3.46,0,0,1,49.45,25a8.78,8.78,0,0,1-5.85-1.23c-.11-.07-.27-.25-.25-.32a.6.6,0,0,1,.34-.32,2.65,2.65,0,0,1,.69-.06c.89,0,1.78,0,2.67,0a8.91,8.91,0,0,0,3.77-.78c.43-.19.88-.31,1.37-.48"/><path class="cls-2" d="M51.41,44.19c-.2-.27-.41-.52-.58-.8a2.61,2.61,0,0,1-.22-.56c.47.08.8.12,1.12.19s.48.22.31.58a4.05,4.05,0,0,0-.21.67l-.43-.1v0"/><path class="cls-3" d="M205,77.18c-.84-4.45-14.9,49.68-12.84,60.06.52,2.57,1.53,3.58,2.06,1-.17-5.83,4.84-47.24,10.78-61.1"/><path class="cls-3" d="M161.4,21.27c-2.76,7.28-8.27,24.32-1.43,53.26.57,2.41,1.82,3.55,2.93,3.82A1.43,1.43,0,0,0,164.27,76c-5.65-6.36-7.83-39.89-2.87-54.72"/><path class="cls-3" d="M58.9,70.05c1,11,1.2,22.7,12.64,52,1.91,4.89,5,1.72,3.87.82-4.59-4.48-12.74-28.36-16.51-52.79"/><path class="cls-3" d="M79.14,80.37c10.14,9.23,17,17.29,25.16,42.2,1.63,5,4.51,4.69,3.57,2.36C100.53,111,95.26,90.56,79.14,80.37"/><path class="cls-3" d="M85.09,110.28c3.85,4.25,12.47,8.25,11.44,4.54-.34-1.23-3.1,1.53-11.44-4.54"/><path class="cls-3" d="M141.49,53c6.29.18,13.84-.05,11.55-2.35-.6-.6-2,2.26-11.55,2.35"/><path class="cls-3" d="M80,85.37c4.2,12.55,7.34,27.62.17,48.33-1.72,5-5.31,6.81-5,4.31,6.48-2.69,11.17-34.48,4.85-52.64"/><path class="cls-3" d="M109.59,80.17c4.76,12.58,5.63,21.51,5.15,49.09a16.43,16.43,0,0,1-2.34,8.23c-.73,1-1.43,1-1.79.19a1.44,1.44,0,0,1,.24-1.47c4.63-5.75,4.22-39.89-1.26-56"/><path class="cls-3" d="M150.63,128.44c7.49-5.29,11-20.43,6.62-36.18-1.45-5.18-6.44-13.23-9.48-13.71a.79.79,0,0,0-.5,1.47c4.15,2.25,8,9.71,9.71,16.72,3,11.9.61,25.07-6.35,31.7"/><path class="cls-3" d="M147.64,88.46c-11,7.18-15.54,30.77-9.3,38.25-8.55-9.33-3.31-29.92,9.3-38.25"/><path class="cls-3" d="M187.09,118.14c-1.22,6.52-3.54,10.74-7.31,14.07,9.62-4.29,6.78-17.5,7.31-14.07"/><path class="cls-3" d="M171.73,78.94c-4.56,3.78-9.95,8-8.32,15.57-4-12.26,11.2-16.88,8.32-15.57"/><path class="cls-3" d="M141.61,75.13c-12,5.37-20,23.6-23.32,32.79,3-13.52,10.25-26.17,19.89-33.53,3.1-2.37,3.43.74,3.43.74"/><path class="cls-3" d="M138,135c.19-.64-1.55-1.15-2.18-1.37-11.08-3.87-10.87-11.36-18-17.73,8.41,9.93,6.27,13.6,16.07,20.13,1.55,1,3.91-.46,4.07-1"/><path class="cls-3" d="M193,87.78c-.54.19-1.52-1-1.74-1.56-2.47-6-5.19-7.17-10.42-9.32,4.7,1,10.31,4,12.15,8.5.62,1.51.49,2.22,0,2.38"/><path class="cls-3" d="M161.63,119.55c-3,5.7.83,8.41,5.45,12.37-5.27-2.77-9.68-8.45-7.29-13.21.73-1.45,2.63-.64,1.84.84"/><path class="cls-3" d="M29.23,72.32c2.73,11.08,9.32,34.81,2.28,68.25-1.08,5.13-5.24,6.52-5.07,4,4.31.07,9.07-44.68,2.79-72.26"/><path class="cls-3" d="M56,85.76c-2.85,4.87-7.25,35-4.64,37.79,1.11,1,2.67,0,2-3.36a20.55,20.55,0,0,1-.35-3.12c-.27-7.89.46-22.51,3-31.31"/><path class="cls-3" d="M138.47,17.37c-11.34,4.52-23.68,47.05-16.68,59.19.54.94,1.94,1.69,2.56,1.09a1,1,0,0,0,.06-1.44c-7.19-7.8.14-47.06,14.06-58.84"/><path class="cls-3" d="M150.15,145.37c14,1.93,20.89,4.43,29.75,9.08,1.72.91,2.71,3.47,1.51,3.75a4.5,4.5,0,0,1-2.74-.63c-9.15-5.74-16.55-9.55-28.52-12.2"/><path class="cls-3" d="M84.29,195.2c1.76,7.79,2.4,11.89,1.88,15.55-.14.95-.93,1.69-1.35,1.25a1.75,1.75,0,0,1-.3-.75,3.77,3.77,0,0,1,0-1.38,31.43,31.43,0,0,0-.23-14.67"/><path class="cls-3" d="M69.84,15.46c9.4,11.76,23.94,49.32,18.67,61.46-.43,1-1.72,1.88-2.38,1.35a1.06,1.06,0,0,1-.2-1.43c6.18-8.49-6.1-47.06-16.09-61.38"/><path class="cls-3" d="M104.6,25.35C107,30.52,108,51.07,105,63.9c-1.86,7.88-4.7,11.52-7.76,14.43-.62.59-2.57,1-2.93.22s.15-1.26,1.09-1.76c3.1-1.64,5.55-4.73,7.66-11.75,3.41-11.33,3.36-31.65,1.55-39.69"/><path class="cls-3" d="M153.85,32.92c-5.45,4.55-14,11.59-22,33.1-.76,2-.12,3.33.75,3.81a1.26,1.26,0,0,0,1.82-1.34c-1.11-6.55,9.72-27.87,19.47-35.57"/><path class="cls-3" d="M89.55,152.15c-10.27-2.09-23.17-4.39-39.7,1.8-2,.76-2.73,1.91-2.59,2.9a1.27,1.27,0,0,0,2.17.65c4.55-4.85,23.46-7,40.12-5.35"/><path class="cls-3" d="M124.58,162.8c2.69.63,6.46.25,14.6,1.37,1.62.09,3.42-.5,1.71-1-2.58-.79-10.51-1.16-16.31-.35"/><path class="cls-1" d="M145.36,112.41a14.17,14.17,0,0,1-1.18,3,7.31,7.31,0,0,1,2.82.69.64.64,0,0,1,.42.53c0,.19,0,.35-.4.21a5.64,5.64,0,0,0-3.83-.84c.35.06,1.8-3.55,1.58-4.54.31-.12.56.1.63.51a1.08,1.08,0,0,1,0,.44"/><path class="cls-1" d="M148.72,106.7a13.43,13.43,0,0,1,.91-3.5,8.92,8.92,0,0,1-3.13-.79s-.43-.89.28-.61a5.71,5.71,0,0,0,3.83.81c-.35-.06-1.47,3.56-1.24,4.55-.37.14-.65.11-.65-.46"/></g></g></svg>