<svg id="Layer_1" data-name="Layer 1" xmlns="http://www.w3.org/2000/svg" viewBox="0 0 228.93 182.12"><defs><style>.cls-1{fill:#e31718;}.cls-2{fill:#1e1e1c;}</style></defs><path class="cls-1" d="M397.56,310.16l-1,.16a2.38,2.38,0,0,0-1.82,1.41l-1.11,2.62a.24.24,0,0,0,.24.33c1.92-.2,10-.93,12,.91a.24.24,0,0,1,.07.19l-.07,1.05a.25.25,0,0,0,.27.26l.73-.08a.23.23,0,0,0,.21-.2l.7-4.16a.37.37,0,0,0,0-.11l-.27-.89a.57.57,0,0,1,0-.13l8.89-40.08,1.82,43.1a.24.24,0,0,0,.31.22.23.23,0,0,0,.17-.22l.13-3.46.17,2.3a.24.24,0,0,0,.15.21c2.62,1.09,5.16,2.47,8.16,2a.26.26,0,0,0,.2-.2c.44-2.58,5.74-37.38,18.12-59.29a.23.23,0,0,0,0-.27,12.89,12.89,0,0,0-8.29-4.51c-.08,0-2.26,5.2-2.16,4.95l2.39-7.25a.25.25,0,0,0-.23-.33h-.69a.24.24,0,0,0-.22.15c.18-.42-16.88,51.18-14.74,59.77-.05-4.89-3.4-44.92,3.61-52,.63-.63.14-1.82-.66-2.2a32.63,32.63,0,0,0-4.89-1.42,1,1,0,0,0-1.18.57.23.23,0,0,1-.26.13,39.75,39.75,0,0,0-7.48-.63.25.25,0,0,0-.22.35l.41.87c.51,1.09.08,2.64-.15,3.83-1.72,8.93-10,40.84-13.13,51.83a.22.22,0,0,1-.19.17" transform="translate(-306.48 -234.23)"/><path class="cls-1" d="M396.81,381.21c-.57-3.15-4.69-26.32-5.32-43.23,0-.13-1-5.64-1-5.77s1,4.05,1,3.9c-.32-10.11.34-13.44,2.11-15.15.57-.55.12-1.58-.6-1.92a30.12,30.12,0,0,0-4.44-1.23.93.93,0,0,0-1.13.65s-1.6-.49-7.31-.6c1.39,7.52-16.3,60.12-15.79,60.43.82-1.23,8.21-.1,9.37,1.07l.31.36a.5.5,0,0,0,.87-.24l.49-2.8-.28-.87,3-12.07,14.87,8.4-3.31-1.5.77,10.57,3.1.73,1.05-.65,2,.24a.27.27,0,0,0,.29-.32M376.5,361l2.35.59,6.67-27.8,3.67,32.72Z" transform="translate(-306.48 -234.23)"/><path class="cls-1" d="M464.94,316.09c-.57-3.14-4.69-26.32-5.32-43.23,0-.13-1-5.64-1-5.77s1,4.05,1,3.9c-.32-10.11.34-13.43,2.11-15.15.57-.55.12-1.58-.6-1.92a31.42,31.42,0,0,0-4.44-1.23.93.93,0,0,0-1.13.65s-1.6-.49-7.31-.6c1.39,7.52-16.25,62.3-15.79,60.43.7-2.84,8.21-.1,9.37,1.07l.31.37a.5.5,0,0,0,.87-.24l.49-2.8-.28-.88,3-12.06L461.06,307l-3.31-1.5.77,10.58,3.1.72,1.05-.64,2,.23a.27.27,0,0,0,.29-.32m-20.31-20.17,2.35.59,6.67-27.8,3.67,32.71Z" transform="translate(-306.48 -234.23)"/><path class="cls-1" d="M509.6,379.4l-2.7.62s-1.16.56-.94,1.11-5.81.93-5.43-.39c.34-1.16,7.37-47.43,9.12-59,.05-.29-4.88.4-4.84.16.11-.76.2-1.31.24-1.59s5.1-1.21,5.25-1.24l6.59-1.52a.19.19,0,0,1,.18,0l3.88-.93c.11.06,1.1,1.47.48,2.16-.34.38-2.45.21-2.46.27l-.31,3.08a4.11,4.11,0,0,0-2.21.86,3.64,3.64,0,0,1,2.49-.53l-6.54,30.3a6.39,6.39,0,0,0-1.75.93,10.83,10.83,0,0,1,2.22-.78Z" transform="translate(-306.48 -234.23)"/><path class="cls-1" d="M391.49,313.64l-2.7.63s-1.16.55-1,1.09-5.8.94-5.41-.35c.34-1.13,7.67-46.08,9.51-57.34,0-.28-4.88.43-4.84.19.12-.74.2-1.27.25-1.54s5.1-1.21,5.25-1.24l6.59-1.52a.22.22,0,0,1,.18,0l3.88-.93c.11.07,1.09,1.43.46,2.1-.34.37-2.45.22-2.45.28l-.33,3a4.34,4.34,0,0,0-2.22.86,3.78,3.78,0,0,1,2.5-.54l-6.74,29.46a7.16,7.16,0,0,0-1.76.91,12.24,12.24,0,0,1,2.23-.77Z" transform="translate(-306.48 -234.23)"/><path class="cls-1" d="M316.88,392.2l-2.73-.81-.33.49a.84.84,0,0,1-.91.35,9.35,9.35,0,0,1-6.16-4.75c-.23-.4-.44-1.08-.05-1.31,1.24-.72,14.71-28.58,24.21-54.85,6.83-18.9,10-36.6,12.62-44.56a34.74,34.74,0,0,0,4.46.88c.38,0,.77-.66,1.16-.59a7.56,7.56,0,0,1,4.56,2.55l-1.88,17.33,2.87-18.78,1.22.35-8.05,52.66L363,287s2.53.52,5.24.8c.13,0,.26-.49.39-.47,2.94.32,5.68,1,5.76,2.21.16,2.46-.1,7.57-.1,7.57l.84-9.29,1,.28s-11.86,88.7-13.42,89.41c-.48.22-1.73.08-3.23.47-.2,0-.4-.41-.6-.36-3.3.82-7.47,2.12-7.79,1.47-.5-1,7.81-27.18,9.18-51.39,0,0-16.24,49.11-17.22,49.49s-9.75-.22-9.81-.69,3.56-13.09,3.56-13.09A66.68,66.68,0,0,1,328.91,383c-.16.25-.73.58-1,.44l-.24-.54c-.45,0,10.38-8.89,12-47.64.75,1.2-17.42,50.21-21.74,56.37-.28.39-.63.71-1.08.57" transform="translate(-306.48 -234.23)"/><path class="cls-1" d="M409.09,354a8.19,8.19,0,0,1,2.84-1.32s-6.07,25.71-5.55,27.21l-3.16.27-.89,1.4s-4.88-.31-5.09-1.45,5.24-21.57,5.24-21.57c0,.24-1.07,3.67-1.11,4,0,.09-.45-.4-.38-.46.22-.41,1-2.9,1.4-4.13,0,0-1.3,0-1.55-.4s-.23-6.57.64-7.25a10,10,0,0,1,3.62-1.95l7.92-30,5.34.26.38-.56c.43,0,4.68.35,4.6.77-.11.62-1,3.77-1,3.77l-3.91.66,2.74-.06-6.39,19.46s17.87-19.34,19.75-23.67c.76-.54,9,3.31,9,3.31a1.54,1.54,0,0,1-1.44,2.1c-2.88.27-17.13,18.09-24.1,24.23,1.43,4.37,17.83,23.55,17.82,23.84,0,1.51-1,3.16-3.55,4.69-.74.45-1.59.33-2.56.69-.34.13-.95,1.14-1.11.8-5.23-11.06-13.65-21.69-16.4-26.51a7.39,7.39,0,0,0-3.15,1.89" transform="translate(-306.48 -234.23)"/><path class="cls-1" d="M447.43,345.21s-9.15,31.84-1,32.15c0,0,12.28,1.66,15.19-32.16,0,0,1.79-20.58-13.55-24,0,0-2.7-3.48,11.92-3.18.17,0,3.85,3.18,4.61,5.05,0-1.81-3.66-4.77-3.58-4.76a3.85,3.85,0,0,1,2.91,1.05c10.61,10.39,10.39,56.33-15.91,62.43-21.69,3.12-8.74-48-1.89-55.42.76-.83,4.39-.21,4.91.83.29.57.94.45,1.47.22a1.32,1.32,0,0,1,1.54.4c.92,1,2.31,2.81,2.06,3.72-.38,1.35-12.43,21.09-9.16,44.36,0,0-3.58-11.67.44-30.7" transform="translate(-306.48 -234.23)"/><path class="cls-1" d="M487.92,350s-11.17,5-16.88,25.46c0,0,19.24-11.76,23.69-22.61a42.44,42.44,0,0,1-8.05,10.13,64.67,64.67,0,0,1-14.34,10.64c5-3.26,13.43-9.61,18.87-16.49,2.32-2.94,4.32-6.2,4.9-9,1-4.79-5.9-3.57-14-2.65-14.15,1.6-10.86-13.21-2.86-22.66,6.55-7,18.78-4.9,19.41-4.24,1,0,.59,5.82.38,5.64l-2.25-.73,2.64,1.39s-1.52,2.46-2.06,2.52c0,0-2.52-2.53-4.55-2.56-9.77-.14-17.28,15.39-9.68,14.51,8.49-1,18-1.18,20.17,2.4,4.12,6.78-5.59,19.39-5.59,19.39S476.11,392,470,378.54s8.81-31.48,8.81-31.48,8.93-.48,9.13,2.9" transform="translate(-306.48 -234.23)"/><path class="cls-1" d="M385.8,252.7c3.32-1.55-1.05-6.43,3-8.68a3.65,3.65,0,0,1,1.89-.41c.35,0,.91.24,1,.57.75,2.21-1.56,7.12.9,7.07,2.67-.06.54-4.5,1.19-6.1.36-.88,1.74.53,3.1,1.84,1.49,1.75,6.93-1.87,8.31-.47,1.77,1.81-.88,5.71,1.27,6.57,3.43,1.38.18-7.16,1.09-7.56,1.06-.35,3.75,4.15,7.5,2.73,2.52-.95-.26,3.86,2.14,3.81,1.86-.21-.29-4.93.86-5,1.49-.16,6.93,1.52,8.81,3.57,2,2.23-2.05,10.68,2.4,10,2.7-.41,1.52-3.7.66-8a26.5,26.5,0,0,1-.06-4.75c0-1.13,1.57-.59,2.42-.44,3.74.67,3-1,4.41-1,.89,0,1.83-1.61,2.81-1.62,2.19,0-.09,6.18,1.06,6.45,1.68.4,1.37-2.21,3.24-1.65.87.26,2.7,1,3,.15.25-.69,1.34-3.42,3.32-3.73,2.42-.38,0,4.52,2.28,4.61s.6-6.31,1.38-6.55c1.45-.46,1.63,1.44,3.47,1.68,1.07.13,2.15-1.86,3-1.22.38.29,1.95.58,2.18,1.29,1.18,3.92-1.09,9.08,1.3,9.09,3-.43.32-4.33.78-7.71.39-2.88,2.85-.92,2.86-1.38a25.62,25.62,0,0,0-1-8.36,4.92,4.92,0,0,0-4.6-3.2h-73a3.34,3.34,0,0,0-3,1.82,28.36,28.36,0,0,0-2.29,7.62c-.07.38,1-.25,1.11.12.75,2.73-1.06,5.79-.58,7.7a1.41,1.41,0,0,0,1.73,1.21" transform="translate(-306.48 -234.23)"/><path class="cls-1" d="M364.91,257.36a1.1,1.1,0,0,0,1-1.23l-7.72.09,8.14-1-.31-.75-3.31.33,3.55-.51,0-.44-.32,0-.46-2-21.59,1.43c-.6.07-.57,5.55-.57,5.55l.72-.3.06.54.55-.05Z" transform="translate(-306.48 -234.23)"/><path class="cls-1" d="M384.7,275.37c-.06-2.94,2.3-9.3,4.11-14.88.09-.57-1.66-1.09-2.24-1.05-1.76,2,.72,6.57-2.25,6.33-3.61-.22-.33-7.53-.33-7.53s1.13-2.1.39-2l-58.66,5.31A9.89,9.89,0,0,0,317,269.4a.25.25,0,0,1,0,.08l-8.52,72.4c-.57,5.39.95,10.68,6.39,8.76,8.58-4.42,6-24.43,5.31-38.71-.5-10.47.63-17.87,5-13.76.69.65.63,1.16.24,3.72-.48,3.14-2.09,6.69,1.8,6.92,3-.32,1.06-5,1-8.24,0-3.62,2.5-8.91,4-13.26,1.19-3.38-1.32-6.06.19-7.2,2.59-1.95,4.19,4.77,2.54,10.36-.66,3.38,3.2,4.81,4.36,1.69.69-2.28-1.3-4.82-.36-7.37a2.38,2.38,0,0,1,2.44-1.39c1.63.24,3,1.64,5.3.79s.52-2.84,2.82-4.05c1.21-.15,2.21,3.78,3.47,4.16a.91.91,0,0,0,1.15-.63h0a.91.91,0,0,1,1-.66l2.32.39c.45.07,1,.73,1.17,1.41a5.84,5.84,0,0,1-.35,2.44c-.42,1.52.75,3.53,2.22,2a2.38,2.38,0,0,0,.63-1.9c-.24-2,.07-3.36,1.08-3.91a11.69,11.69,0,0,1,6.75-1,77.53,77.53,0,0,1,8.31,2.34c3.41.86-.84,12.83,2.84,13.46,5.37.9.31-11,2-13.89a4.25,4.25,0,0,0,.41-1L383,281S385.63,279.87,384.7,275.37Z" transform="translate(-306.48 -234.23)"/><path class="cls-1" d="M532.57,375.24l-5.92-98.47a12.08,12.08,0,0,0-11.54-12.15l-50.62-6.7a.42.42,0,0,0-.47.34,76.44,76.44,0,0,0-1.16,14.43c0,.27-.44,1.38-.43,1.66.57,9.78,2.73,10.78,2.31,15.57-.21,2.41-1.31,7-1.15,10.1.11,2,.56,3.38,2.2,3.33.61,0,1.21-.2,1.78-1.33a5.15,5.15,0,0,0,.51-2.44c-.14-3.64-.64-6.85-.24-7.77,2.93-6.73,4.09,8.05,2.41,20.89h0c-.78,4-2.88,11.56.17,14.59,1.78,1.77,3.66-.38,4.12-2.43.41-1.82.54-4.42,0-11.51-.19-2.57.66-10.67,4.66-13,2.54-1.45,9.19-4.37,6.86,3.5-.44,1.49-.22,5.12,2.07,5.06,2.6-.07,3-3.42,2.89-5.14-.59-8,4.87-.45,4.77.2-.5,3.25,4.67-.64,4,7-.16,1.79-1.66,6.18,1.53,6.38,2.51,0,3.34-2.94,2.65-8-.9-8.89,1.17-10.78,2.78-10.47s.64,4.5,1.67,4.57c4.25.3,8.36-6.61,6,4,0,0-2.32,8.59,2.42,6.87,4.42-2,1.75-8.85,2.5-14.45a5.71,5.71,0,0,1,3-4.4c5.25-2,3.63,9.09,1.85,19.12-.29,2.83.89,6.87.51,9.3,0,.9-1,2.14-2.09,1.12-.75-.69.09-3.75-1.36-3.73-1,.29-.69,1.91-1,3.59-.44,2.73.18,4.46.16,6.4.16,6.73-3.83,12.4.64,12.5,3.11.07,1.44-4.07,2.05-7.18,1.68-13.19,7.54,15-5.33,15,0,0-2.06-.79-.77,1.83,2.37,6.77-.49,16.19-.49,16.19-1.57,5.75-.51,9,2,8.91,3-.09,3.31-4.13,3.23-6.14-.22-5.12,1.75-7.72,3.47-9.23,3.69-3.23,2.54,4.61.5,13.78-.67,3,.62,8.5,2.45,8.32,3.34.06,4.25-5.85,4.35-10v0m-28.73-96.58a4.87,4.87,0,1,1,4.87-4.87,4.86,4.86,0,0,1-4.87,4.87m10.15-.72a3.72,3.72,0,1,1,3.72-3.72,3.72,3.72,0,0,1-3.72,3.72" transform="translate(-306.48 -234.23)"/><path class="cls-1" d="M508.64,387.53,345,387.39a.41.41,0,0,0-.38.23c-1.1,2.24.16,8.83.17,8.85.05.3.69,4.2-3.48,4.5-5.14.37-1.41-8.26-1.21-10.75,1.21-9-6.39-2.26-6.44-2.21-9.13,10.91,5.75,26.56-6.52,28.33a.21.21,0,0,1-.11,0c-11.29-.84,2.15-19.26-3.27-27.76a.43.43,0,0,0-.16-.14c-.4-.19-.56-1.21-.9-1.37-.68-.32,1.26-4.44,1.4-4.47,1-.23,4.5-1.1,3.09-.16s-1.64,3.17-.17,2.49a7.61,7.61,0,0,1,2.05-.4c1.08,0,2.92-5.3,3.4-5.14a35.63,35.63,0,0,0,9.76.61c.43,0,.86.84,1.31.88,2.64.23,5.2.77,8.3.52,1.83-.14,4-1.06,6.07-1.12.18,0,.88.76,1.06.75,1.52,0,2.56-1.1,4.12-.93.31,0,.33.95.39.92,4.8-2.76,9.09,1.51,10.88,1.42,5.61-.27,11.15.7,16,.43,1.14-.06,2.25.9,3.31.84.5,0,.73-.57,1.2-.6,3-.18,5.09.67,7.15.51.38,0,1-1.59,1.34-1.62,1.29-.69,3.8-.31,3.85-.34,1.19-.7,15.6-9,20.45-.68a.41.41,0,0,0,.64.11l1.45-1.32a1,1,0,0,1,.68-.08,4.34,4.34,0,0,0,1.74-.26c1.62-.48,2.52-1.38,3.8-1.42s3.36,9.73,17.12,4.38c1.23-.62,10.89-3.38,17.06.37a7.74,7.74,0,0,0,9.09-.5c5.14-3.72,11.84-.37,17.34-.53,2.21-.09,6,3.55,10.15,1.24.39-.26-.36-.92.31-1.54s2.18.22,2.24.19Z" transform="translate(-306.48 -234.23)"/><path class="cls-1" d="M333.22,294.77s-1.8,3.69-1.75,5.8c0,2,2.76,4.77,3.31,1.11.19-1.19-2.75-4.14-1.56-6.91" transform="translate(-306.48 -234.23)"/><path class="cls-1" d="M481.58,302.24a29.57,29.57,0,0,0-2.49,5.52c-.6,2.48,2.11,5.09,3.14,1.53.59-2.06-2.19-4.46-.65-7.05" transform="translate(-306.48 -234.23)"/><path class="cls-1" d="M326.17,310.89s1.92,3.68,2,5.79c.14,3.21-3.9,4.83-3.8,1.11.05-1.85,3.17-4.14,1.79-6.9" transform="translate(-306.48 -234.23)"/><path class="cls-2" d="M400.4,310.16l-1,.16a2.38,2.38,0,0,0-1.81,1.41l-1.11,2.62a.23.23,0,0,0,.24.33c1.92-.2,10-.93,12,.91a.21.21,0,0,1,.08.19l-.07,1.05a.25.25,0,0,0,.27.26l.73-.08a.24.24,0,0,0,.21-.2l.69-4.16a.2.2,0,0,0,0-.11l-.27-.89a.2.2,0,0,1,0-.13l8.88-40.08,1.83,43.1a.24.24,0,0,0,.48,0l.12-3.46.18,2.3a.24.24,0,0,0,.14.21c2.62,1.09,5.17,2.47,8.16,2a.23.23,0,0,0,.2-.2c.45-2.58,5.75-37.38,18.13-59.29a.24.24,0,0,0,0-.27,12.91,12.91,0,0,0-8.29-4.51c-.08,0-2.26,5.2-2.16,4.95l2.39-7.25a.25.25,0,0,0-.23-.33h-.69a.23.23,0,0,0-.22.15c.17-.42-16.88,51.18-14.74,59.77-.06-4.89-3.4-44.92,3.61-52,.63-.63.13-1.82-.66-2.2a32.7,32.7,0,0,0-4.9-1.42,1,1,0,0,0-1.17.57.25.25,0,0,1-.27.13,39.45,39.45,0,0,0-7.47-.63.24.24,0,0,0-.22.35l.41.87c.51,1.09.08,2.64-.15,3.83-1.72,8.93-10,40.84-13.13,51.83a.24.24,0,0,1-.19.17" transform="translate(-306.48 -234.23)"/><path class="cls-2" d="M399.65,381.21c-.57-3.15-4.69-26.32-5.33-43.23,0-.13-1-5.64-1-5.77s1,4.05,1,3.9c-.31-10.11.35-13.44,2.12-15.15.57-.55.12-1.58-.6-1.92a30.45,30.45,0,0,0-4.44-1.23.92.92,0,0,0-1.13.65s-1.6-.49-7.31-.6c1.39,7.52-16.3,60.12-15.79,60.43.82-1.23,8.21-.1,9.36,1.07l.32.36a.5.5,0,0,0,.87-.24l.48-2.8-.27-.87,3-12.07,14.87,8.4-3.31-1.5.76,10.57,3.11.73,1-.65,2,.24a.27.27,0,0,0,.29-.32M379.34,361l2.35.59,6.67-27.8L392,366.54Z" transform="translate(-306.48 -234.23)"/><path class="cls-2" d="M467.78,316.09c-.57-3.14-4.69-26.32-5.33-43.23,0-.13-1-5.64-1-5.77s1,4.05,1,3.9c-.31-10.11.35-13.43,2.12-15.15.57-.55.12-1.58-.6-1.92a31.79,31.79,0,0,0-4.44-1.23.92.92,0,0,0-1.13.65s-1.6-.49-7.31-.6c1.39,7.52-16.25,62.3-15.79,60.43.69-2.84,8.21-.1,9.36,1.07l.32.37a.5.5,0,0,0,.87-.24l.48-2.8-.27-.88,3-12.06L463.9,307l-3.31-1.5.76,10.58,3.11.72,1-.64,2,.23a.27.27,0,0,0,.29-.32m-20.31-20.17,2.35.59,6.67-27.8,3.66,32.71Z" transform="translate(-306.48 -234.23)"/><path class="cls-2" d="M512.44,379.4l-2.7.62s-1.16.56-.95,1.11-5.8.93-5.42-.39c.34-1.16,7.36-47.43,9.12-59,0-.29-4.88.4-4.84.16.11-.76.19-1.31.24-1.59s5.1-1.21,5.25-1.24l6.59-1.52a.19.19,0,0,1,.18,0l3.88-.93c.11.06,1.1,1.47.48,2.16-.35.38-2.45.21-2.46.27l-.31,3.08a4.11,4.11,0,0,0-2.21.86,3.64,3.64,0,0,1,2.49-.53l-6.54,30.3a6.24,6.24,0,0,0-1.75.93,10.83,10.83,0,0,1,2.22-.78Z" transform="translate(-306.48 -234.23)"/><path class="cls-2" d="M394.33,313.64l-2.7.63s-1.16.55-.95,1.09-5.81.94-5.41-.35c.34-1.13,7.67-46.08,9.5-57.34.05-.28-4.88.43-4.84.19.12-.74.21-1.27.25-1.54s5.11-1.21,5.25-1.24l6.6-1.52a.22.22,0,0,1,.18,0l3.88-.93c.11.07,1.08,1.43.46,2.1-.35.37-2.45.22-2.46.28l-.33,3a4.27,4.27,0,0,0-2.21.86,3.76,3.76,0,0,1,2.49-.54l-6.74,29.46a7.25,7.25,0,0,0-1.75.91,12.14,12.14,0,0,1,2.22-.77Z" transform="translate(-306.48 -234.23)"/><path class="cls-2" d="M319.72,392.2l-2.73-.81-.33.49a.84.84,0,0,1-.91.35,9.32,9.32,0,0,1-6.16-4.75c-.23-.4-.44-1.08,0-1.31,1.24-.72,14.71-28.58,24.21-54.85,6.83-18.9,10-36.6,12.62-44.56a34.74,34.74,0,0,0,4.46.88c.38,0,.77-.66,1.16-.59a7.57,7.57,0,0,1,4.55,2.55l-1.87,17.33,2.86-18.78,1.23.35-8.05,52.66L365.82,287s2.54.52,5.25.8c.13,0,.26-.49.39-.47,2.94.32,5.68,1,5.76,2.21.15,2.46-.1,7.57-.1,7.57l.84-9.29,1,.28s-11.86,88.7-13.42,89.41c-.49.22-1.73.08-3.24.47-.19,0-.39-.41-.59-.36-3.3.82-7.47,2.12-7.8,1.47-.5-1,7.82-27.18,9.19-51.39,0,0-16.24,49.11-17.22,49.49s-9.75-.22-9.81-.69,3.56-13.09,3.56-13.09A67,67,0,0,1,331.75,383c-.16.25-.73.58-1,.44l-.25-.54c-.44,0,10.39-8.89,12-47.64.75,1.2-17.42,50.21-21.75,56.37-.27.39-.62.71-1.07.57" transform="translate(-306.48 -234.23)"/><path class="cls-2" d="M411.93,354a8.11,8.11,0,0,1,2.84-1.32s-6.08,25.71-5.56,27.21l-3.15.27-.89,1.4s-4.89-.31-5.1-1.45,5.25-21.57,5.25-21.57c0,.24-1.08,3.67-1.11,4,0,.09-.46-.4-.39-.46.23-.41,1-2.9,1.41-4.13,0,0-1.3,0-1.55-.4s-.23-6.57.64-7.25a9.86,9.86,0,0,1,3.62-1.95l7.92-30,5.34.26.38-.56c.42,0,4.68.35,4.6.77-.12.62-1,3.77-1,3.77l-3.92.66,2.75-.06-6.39,19.46s17.87-19.34,19.74-23.67c.77-.54,9,3.31,9,3.31a1.53,1.53,0,0,1-1.44,2.1c-2.88.27-17.12,18.09-24.09,24.23,1.42,4.37,17.82,23.55,17.82,23.84,0,1.51-1,3.16-3.55,4.69-.74.45-1.59.33-2.56.69-.35.13-.95,1.14-1.11.8-5.23-11.06-13.66-21.69-16.4-26.51a7.39,7.39,0,0,0-3.15,1.89" transform="translate(-306.48 -234.23)"/><path class="cls-2" d="M450.27,345.21s-9.15,31.84-1,32.15c0,0,12.28,1.66,15.18-32.16,0,0,1.8-20.58-13.54-24,0,0-2.71-3.48,11.92-3.18.17,0,3.85,3.18,4.61,5.05,0-1.81-3.67-4.77-3.58-4.76a3.87,3.87,0,0,1,2.91,1.05c10.61,10.39,10.39,56.33-15.92,62.43-21.69,3.12-8.73-48-1.88-55.42.76-.83,4.39-.21,4.91.83.29.57.94.45,1.46.22a1.33,1.33,0,0,1,1.55.4c.92,1,2.31,2.81,2.05,3.72-.37,1.35-12.43,21.09-9.15,44.36,0,0-3.58-11.67.44-30.7" transform="translate(-306.48 -234.23)"/><path class="cls-2" d="M490.76,350s-11.17,5-16.88,25.46c0,0,19.24-11.76,23.68-22.61a42.1,42.1,0,0,1-8,10.13,64.67,64.67,0,0,1-14.34,10.64c5-3.26,13.42-9.61,18.86-16.49,2.33-2.94,4.33-6.2,4.9-9,1-4.79-5.89-3.57-14-2.65-14.15,1.6-10.86-13.21-2.86-22.66,6.56-7,18.79-4.9,19.42-4.24,1,0,.59,5.82.38,5.64l-2.25-.73,2.63,1.39s-1.51,2.46-2.05,2.52c0,0-2.52-2.53-4.55-2.56-9.77-.14-17.28,15.39-9.68,14.51,8.49-1,18-1.18,20.17,2.4,4.12,6.78-5.6,19.39-5.6,19.39S479,392,472.82,378.54s8.81-31.48,8.81-31.48,8.93-.48,9.13,2.9" transform="translate(-306.48 -234.23)"/><path class="cls-2" d="M388.64,252.7c3.32-1.55-1.06-6.43,3-8.68a3.63,3.63,0,0,1,1.89-.41c.35,0,.91.24,1,.57.75,2.21-1.57,7.12.9,7.07,2.67-.06.54-4.5,1.19-6.1.35-.88,1.74.53,3.1,1.84,1.48,1.75,6.93-1.87,8.3-.47,1.77,1.81-.88,5.71,1.28,6.57,3.42,1.38.18-7.16,1.09-7.56s3.75,4.15,7.49,2.73c2.53-.95-.25,3.86,2.15,3.81,1.86-.21-.29-4.93.86-5,1.49-.16,6.93,1.52,8.81,3.57,2,2.23-2.05,10.68,2.4,10,2.7-.41,1.52-3.7.65-8a26.34,26.34,0,0,1,0-4.75c0-1.13,1.57-.59,2.42-.44,3.74.67,3-1,4.41-1,.89,0,1.83-1.61,2.8-1.62,2.19,0-.08,6.18,1.07,6.45,1.67.4,1.37-2.21,3.24-1.65.87.26,2.7,1,3,.15.26-.69,1.34-3.42,3.32-3.73,2.42-.38,0,4.52,2.29,4.61s.6-6.31,1.38-6.55c1.44-.46,1.63,1.44,3.46,1.68,1.07.13,2.15-1.86,3-1.22.39.29,2,.58,2.19,1.29,1.18,3.92-1.09,9.08,1.3,9.09,3-.43.31-4.33.78-7.71.39-2.88,2.85-.92,2.86-1.38a25.9,25.9,0,0,0-1-8.36,4.92,4.92,0,0,0-4.61-3.2h-73a3.33,3.33,0,0,0-3,1.82,28.68,28.68,0,0,0-2.3,7.62c-.06.38,1-.25,1.12.12.74,2.73-1.07,5.79-.58,7.7a1.41,1.41,0,0,0,1.73,1.21" transform="translate(-306.48 -234.23)"/><path class="cls-2" d="M367.75,257.36a1.11,1.11,0,0,0,1-1.23l-7.72.09,8.14-1-.32-.75-3.31.33,3.55-.51,0-.44-.32,0-.47-2-21.58,1.43c-.6.07-.57,5.55-.57,5.55l.72-.3.06.54.55-.05Z" transform="translate(-306.48 -234.23)"/><path class="cls-2" d="M387.54,275.37c-.07-2.94,2.29-9.3,4.11-14.88.09-.57-1.66-1.09-2.25-1.05-1.76,2,.72,6.57-2.25,6.33-3.6-.22-.33-7.53-.33-7.53s1.14-2.1.4-2l-58.67,5.31a9.89,9.89,0,0,0-8.74,7.88s0,.05,0,.08l-8.53,72.4c-.56,5.39,1,10.68,6.4,8.76,8.58-4.42,6-24.43,5.31-38.71-.5-10.47.63-17.87,5-13.76.69.65.63,1.16.24,3.72-.48,3.14-2.09,6.69,1.8,6.92,3-.32,1.06-5,1-8.24,0-3.62,2.49-8.91,4-13.26,1.18-3.38-1.32-6.06.19-7.2,2.59-1.95,4.19,4.77,2.54,10.36-.66,3.38,3.2,4.81,4.36,1.69.69-2.28-1.3-4.82-.36-7.37a2.38,2.38,0,0,1,2.44-1.39c1.63.24,3,1.64,5.3.79s.52-2.84,2.82-4.05c1.21-.15,2.21,3.78,3.47,4.16a.91.91,0,0,0,1.15-.63h0a.91.91,0,0,1,1-.66l2.32.39c.45.07,1,.73,1.17,1.41a6,6,0,0,1-.35,2.44c-.42,1.52.74,3.53,2.22,2a2.34,2.34,0,0,0,.62-1.9c-.23-2,.08-3.36,1.09-3.91a11.67,11.67,0,0,1,6.75-1,77.53,77.53,0,0,1,8.31,2.34c3.41.86-.84,12.83,2.84,13.46,5.36.9.31-11,2-13.89a4.25,4.25,0,0,0,.41-1l.51-2.3S388.46,279.87,387.54,275.37Z" transform="translate(-306.48 -234.23)"/><path class="cls-2" d="M535.41,375.24l-5.92-98.47A12.09,12.09,0,0,0,518,264.62l-50.62-6.7a.42.42,0,0,0-.47.34,75.59,75.59,0,0,0-1.16,14.43c0,.27-.44,1.38-.43,1.66.57,9.78,2.72,10.78,2.31,15.57-.21,2.41-1.32,7-1.15,10.1.11,2,.56,3.38,2.2,3.33.61,0,1.21-.2,1.77-1.33a5,5,0,0,0,.52-2.44c-.14-3.64-.64-6.85-.24-7.77,2.92-6.73,4.09,8.05,2.41,20.89h0c-.78,4-2.88,11.56.17,14.59,1.78,1.77,3.66-.38,4.12-2.43.41-1.82.53-4.42,0-11.51-.19-2.57.66-10.67,4.66-13,2.54-1.45,9.18-4.37,6.86,3.5-.44,1.49-.22,5.12,2.07,5.06,2.6-.07,3-3.42,2.89-5.14-.59-8,4.87-.45,4.77.2-.5,3.25,4.66-.64,4,7-.16,1.79-1.67,6.18,1.53,6.38,2.51,0,3.34-2.94,2.65-8-.9-8.89,1.17-10.78,2.78-10.47s.63,4.5,1.67,4.57c4.24.3,8.36-6.61,6,4,0,0-2.32,8.59,2.42,6.87,4.42-2,1.75-8.85,2.5-14.45a5.7,5.7,0,0,1,3-4.4c5.25-2,3.64,9.09,1.86,19.12-.29,2.83.89,6.87.51,9.3,0,.9-1,2.14-2.09,1.12-.75-.69.09-3.75-1.36-3.73-1,.29-.69,1.91-1,3.59-.44,2.73.19,4.46.16,6.4.17,6.73-3.83,12.4.65,12.5,3.11.07,1.44-4.07,2-7.18,1.68-13.19,7.53,15-5.33,15,0,0-2.06-.79-.78,1.83,2.38,6.77-.48,16.19-.48,16.19-1.57,5.75-.51,9,1.95,8.91,3-.09,3.31-4.13,3.23-6.14-.22-5.12,1.75-7.72,3.47-9.23,3.68-3.23,2.54,4.61.5,13.78-.67,3,.62,8.5,2.45,8.32,3.34.06,4.25-5.85,4.35-10v0m-28.73-96.58a4.87,4.87,0,1,1,4.87-4.87,4.87,4.87,0,0,1-4.87,4.87m10.14-.72a3.72,3.72,0,1,1,3.72-3.72,3.72,3.72,0,0,1-3.72,3.72" transform="translate(-306.48 -234.23)"/><path class="cls-2" d="M511.48,387.53l-163.6-.14a.41.41,0,0,0-.38.23c-1.11,2.24.16,8.83.16,8.85.06.3.69,4.2-3.47,4.5-5.14.37-1.41-8.26-1.22-10.75,1.22-9-6.38-2.26-6.43-2.21-9.13,10.91,5.75,26.56-6.52,28.33a.21.21,0,0,1-.11,0c-11.3-.84,2.14-19.26-3.27-27.76a.43.43,0,0,0-.16-.14c-.4-.19-.56-1.21-.9-1.37-.68-.32,1.26-4.44,1.4-4.47,1-.23,4.49-1.1,3.09-.16s-1.64,3.17-.17,2.49a7.61,7.61,0,0,1,2-.4c1.08,0,2.93-5.3,3.41-5.14a35.59,35.59,0,0,0,9.76.61c.43,0,.86.84,1.31.88,2.64.23,5.2.77,8.3.52,1.83-.14,4-1.06,6.07-1.12.18,0,.88.76,1.06.75,1.52,0,2.56-1.1,4.11-.93.32,0,.34.95.4.92,4.8-2.76,9.09,1.51,10.87,1.42,5.62-.27,11.15.7,16,.43,1.14-.06,2.25.9,3.31.84.5,0,.72-.57,1.2-.6,3-.18,5.09.67,7.14.51.39,0,1-1.59,1.35-1.62,1.29-.69,3.8-.31,3.85-.34,1.19-.7,15.6-9,20.44-.68a.42.42,0,0,0,.65.11l1.45-1.32a1,1,0,0,1,.68-.08,4.34,4.34,0,0,0,1.74-.26c1.62-.48,2.52-1.38,3.8-1.42s3.36,9.73,17.12,4.38c1.22-.62,10.89-3.38,17.06.37a7.74,7.74,0,0,0,9.09-.5c5.14-3.72,11.83-.37,17.34-.53,2.21-.09,6,3.55,10.15,1.24.39-.26-.36-.92.31-1.54s2.18.22,2.23.19Z" transform="translate(-306.48 -234.23)"/><path class="cls-2" d="M336.06,294.77s-1.8,3.69-1.75,5.8c.05,2,2.76,4.77,3.31,1.11.18-1.19-2.75-4.14-1.56-6.91" transform="translate(-306.48 -234.23)"/><path class="cls-2" d="M484.42,302.24a29.57,29.57,0,0,0-2.49,5.52c-.6,2.48,2.11,5.09,3.14,1.53.59-2.06-2.2-4.46-.65-7.05" transform="translate(-306.48 -234.23)"/><path class="cls-2" d="M329,310.89s1.92,3.68,2,5.79c.13,3.21-3.9,4.83-3.8,1.11,0-1.85,3.16-4.14,1.79-6.9" transform="translate(-306.48 -234.23)"/></svg>