<svg xmlns="http://www.w3.org/2000/svg" viewBox="0 0 444.63 363.49"><defs><style>.cls-1,.cls-2,.cls-3{fill:#1d1d1b;stroke:#1d1d1b;stroke-miterlimit:10;}.cls-1{stroke-width:4.75px;}.cls-2{stroke-width:3.14px;}.cls-3{stroke-width:3.29px;}</style></defs><g id="Layer_2" data-name="Layer 2"><g id="Layer_1-2" data-name="Layer 1"><path class="cls-1" d="M157.56,172.55s-21.05-7.79-26.08-2.12c-6.25,7-42.37,174.27-34.12,189.23,3.1,4.2,16.49-1.77,25.31-4.53,2.77-.86,2.21-30.74,6.39-72.87,3.12-31.46,13.7-72.28,20.9-90-1.78,15.28-28.76,125.46,41.42,52.17,62.71-71,60.37-133.55,29.83-157.56-32-25.07-122.32-31.15-189.46,40.81-45,48.29-24.87,80.79-24.87,80.79,7.7,6.16,30.33,1,26.37-4.09-21.86-26,25.37-93.37,101.1-108.21,35.89-5.92,60.34,1.29,60.34,1.29,31.95,9.36,40.44,44.06,6.77,98.24-41.43,66.68-38.55,41.41-38.71,39.71,5.09-42.44,28.41-78.83,26.42-84.08S177.41,135.85,170.55,139c-2.07.68-3.42,2.65-4.37,4.61Z"/><path class="cls-1" d="M324.41,131.52c0,.14-28.14,122.2-23.35,147.69,1.08,5.77,22.21.27,26.75-7.36,2.44-4.11,1.05-28.2,9.32-97.91,7.16-60.38,21.25-93.8,29.15-85.73,12.75,18.23,1.43,58.93-8.29,69.16-8.31,8.75-11.31,8.59-11.92,12.42,0,0-4.06,21.71,1.4,20.7,3.42-.51,33.22-9.53,38.7-52.1,6.58-35-8.31-66.76-17.63-69.91-12.91-4.35-30.48,34.43-30.48,34.43.8-5.4-3.25-14.66-10.73-17.06-4.12-1.32-8.52,7.92-10.09,12-10.46,26.79-13.88,102.75-28.11,88.42-4.47-3.86,3.43-21.57,7.37-29.85,2.19-4.3-13.44-15.6-15.42-11.52-10.17,20.88-30.84,66.88-37.25,67-14.69,3.24,1.84-64.71,22.8-83.65,11.86-6.53-5.58,32.11-3.94,34.17,0,0-.23,2.81,14.29-22.85,18-31.81-7-34.5-16.21-27.75,0,0-45.11,28.73-39.22,98.35,5.35,63.37,53.66-10.87,56.15-13.48.09,20,15.58,18.93,24.14,4.91,3.53-5.78,6.24-23.65,10.71-38.59A248.71,248.71,0,0,1,324.41,131.52Z"/><path class="cls-1" d="M442.18,132.81c-2.05,6.24-52.81,72.38-59.42,12.74-7.69-69.44,37.69-98.22,37.69-98.22,7.5-4.7,30.48,20.89,18.25,40.19-11.13,17.59-26.13,4.5-26.13,4.5-.81-1,13.93,1,18.1-8.18,4.58-10,.82-24.74-5.28-21.15-20.43,19.52-34,87.77-19.37,84.13,3.59-.17,13.8-12.39,22.2-28.83C431.61,111.36,443.3,129.42,442.18,132.81Z"/><path class="cls-2" d="M290.47,224.37c-113.64,36.45-185,77.68-246.8,117-3.51,2.24,17,20.28,19.73,15.19,62.33-38.74,119.25-60.64,226.41-95.35C293.68,257.82,298.18,220.61,290.47,224.37Z"/><path class="cls-3" d="M428.28,1.66c-44.6,6.4-139.52,54.15-190.38,90.65-3.67,3.47,16.88,16,21.51,11.6,31.73-18.67,121.27-56,164.55-66.84C432.35,32.74,434.45.78,428.28,1.66Z"/></g></g></svg>