<svg xmlns="http://www.w3.org/2000/svg" viewBox="0 0 146.43 169.08"><defs><style>.cls-1{fill:#010101;}.cls-2{fill:#f5a94e;}.cls-3,.cls-4{fill:none;stroke:#010101;stroke-linecap:round;}.cls-3{stroke-linejoin:round;stroke-width:1.41px;}.cls-4{stroke-miterlimit:10;stroke-width:1.39px;}</style></defs><g id="Layer_2" data-name="Layer 2"><g id="Layer_2-2" data-name="Layer 2"><path class="cls-1" d="M10.38,147.67v-.77H15v.77h-.52a1.44,1.44,0,0,0-1,.39,2.64,2.64,0,0,0-.7,1.41L7.56,168.82H6.79L2.05,149.47a3.22,3.22,0,0,0-.45-1.35,1.09,1.09,0,0,0-1-.45H0v-.77H5.51v.77H5c-.43,0-.71.13-.83.39a1.6,1.6,0,0,0-.07,1l3.59,15H8l3.84-14.61a3.27,3.27,0,0,0,.13-.77,1.35,1.35,0,0,0-.19-.71c-.13-.21-.45-.32-1-.32Z"/><path class="cls-1" d="M16.92,147.67v-.77H29.48l1.41,4.36-.64.26a9.72,9.72,0,0,0-2.18-2.89,3.93,3.93,0,0,0-2.57-1H21.92a1.32,1.32,0,0,0-.84.26.94.94,0,0,0-.32.77v7.94h3.72a2.4,2.4,0,0,0,1.86-.64,2.79,2.79,0,0,0,.58-1.92v-.77h.76v7.56h-.76v-.51a3.62,3.62,0,0,0-.58-2.18,2.2,2.2,0,0,0-1.86-.77H20.76V167a.92.92,0,0,0,.32.76,1.26,1.26,0,0,0,.84.26h3.33A5,5,0,0,0,28.52,167a7.16,7.16,0,0,0,2.11-3.39l.64.25-1.41,5H16.79v-.77h.77a1.23,1.23,0,0,0,.9-.26,1,1,0,0,0,.25-.76V148.7a1.05,1.05,0,0,0-.25-.77,1.27,1.27,0,0,0-.9-.26Z"/><path class="cls-1" d="M46.78,152a5.36,5.36,0,0,1-1.41,4,5.53,5.53,0,0,1-3.2,1.67L46,167.15a1.59,1.59,0,0,0,.58.71,1.32,1.32,0,0,0,.7.19h.77v.77H44.47l-4.23-11H37.3V167a.89.89,0,0,0,.32.76,1.23,1.23,0,0,0,.83.26h.77v.77h-5.9v-.77h.77a1.21,1.21,0,0,0,.9-.26,1,1,0,0,0,.26-.76V148.7a1.05,1.05,0,0,0-.26-.77,1.26,1.26,0,0,0-.9-.26h-.77v-.77h7.31a7.1,7.1,0,0,1,4.55,1.29A4.6,4.6,0,0,1,46.78,152Zm-9.48,5h2.82a4.23,4.23,0,0,0,4.48-4.74,4.17,4.17,0,0,0-4.74-4.62H38.45a1.29,1.29,0,0,0-.83.26.91.91,0,0,0-.32.77Z"/><path class="cls-1" d="M60.11,168.82H53.45v-.77H54.6a1.23,1.23,0,0,0,.9-.26,1,1,0,0,0,.25-.76V149.08a2.51,2.51,0,0,0-.13-1.15c-.08-.09-.42-.13-1-.13a3.78,3.78,0,0,0-2.5.64,10.14,10.14,0,0,0-1.73,3.46l-.77-.13,1.15-4.87H62.93l1,4.87-.65.13a14.54,14.54,0,0,0-1.6-3.39,3,3,0,0,0-2.37-.71,3.57,3.57,0,0,0-1.41.13,3,3,0,0,0-.13,1.28V167a.92.92,0,0,0,.32.76,1.26,1.26,0,0,0,.84.26h1.15Z"/><path class="cls-1" d="M68.18,147.67v-.77H78.44v.77h-3a1.29,1.29,0,0,0-.83.26.91.91,0,0,0-.32.77V167a.89.89,0,0,0,.32.76,1.23,1.23,0,0,0,.83.26h3v.77H68.18v-.77h2.95a1.21,1.21,0,0,0,.9-.26,1,1,0,0,0,.26-.76V148.7a1.05,1.05,0,0,0-.26-.77,1.26,1.26,0,0,0-.9-.26Z"/><path class="cls-1" d="M90.36,169.08a6.87,6.87,0,0,1-5.71-2.7q-2.12-2.69-2.11-8.45a13.81,13.81,0,0,1,2.24-8.08,7.08,7.08,0,0,1,6.09-3.2,6.45,6.45,0,0,1,1.79.25,4,4,0,0,0,1.54.39,2.25,2.25,0,0,0,.84-.13,1.29,1.29,0,0,0,.57-.51l1.16,5.64-.77.25a9.11,9.11,0,0,0-2-3.71,4.51,4.51,0,0,0-3.34-1.29c-1.79,0-3.18,1-4.16,3A16.16,16.16,0,0,0,85,157.8a17.48,17.48,0,0,0,1.29,7.43,4.35,4.35,0,0,0,4.23,2.69A4.81,4.81,0,0,0,94,166.45a7.68,7.68,0,0,0,2-3.91l.77.38a9.08,9.08,0,0,1-2.38,4.43A5.52,5.52,0,0,1,90.36,169.08Z"/><path class="cls-1" d="M108.3,160.62h-5.77l-1.15,4.87a5.21,5.21,0,0,0-.13,1,3.07,3.07,0,0,0,.19,1c.13.34.49.51,1.09.51h.39v.77H98.17v-.77h.39a1.34,1.34,0,0,0,.9-.32,1.8,1.8,0,0,0,.51-1.09L105,147l1.92-.64,4.87,20.25a2.41,2.41,0,0,0,.64,1.09,1.34,1.34,0,0,0,.9.32h.38v.77h-5.51v-.77h.51c.52,0,.82-.1.9-.32a1.46,1.46,0,0,0,.13-.58,2.65,2.65,0,0,0-.13-.89Zm-2.69-11.41h-.13l-2.69,10.64h5.38Z"/><path class="cls-1" d="M119.45,167a.92.92,0,0,0,.32.76,1.23,1.23,0,0,0,.83.26h3.46a4.57,4.57,0,0,0,3.08-1.09,6.7,6.7,0,0,0,1.92-3.39l.64.25-1.15,5h-13.2v-.77h.9a1.2,1.2,0,0,0,.89-.26,1,1,0,0,0,.26-.76V148.7a1.05,1.05,0,0,0-.26-.77,1.24,1.24,0,0,0-.89-.26h-.77v-.77h6v.77h-.9a1.29,1.29,0,0,0-.83.26.94.94,0,0,0-.32.77Z"/><path class="cls-1" d="M131.6,147.09a8.82,8.82,0,0,1,1.63-.14,2.86,2.86,0,0,1,1.9.5,1.45,1.45,0,0,1,.57,1.22,1.64,1.64,0,0,1-1.17,1.52v0a1.77,1.77,0,0,1,1.43,1.73,1.89,1.89,0,0,1-.59,1.39A3.47,3.47,0,0,1,133,154a10.71,10.71,0,0,1-1.38-.08Zm.89,2.83h.81c.95,0,1.5-.49,1.5-1.16s-.62-1.13-1.52-1.13a3.1,3.1,0,0,0-.79.07Zm0,3.31a4.94,4.94,0,0,0,.75,0c.92,0,1.77-.34,1.77-1.34s-.81-1.33-1.78-1.33h-.74Z"/><path class="cls-1" d="M138.39,147.76h-2.1V147h5.11v.76h-2.11v6.15h-.9Z"/><path class="cls-1" d="M142.17,147.08a10.63,10.63,0,0,1,1.71-.13,2.83,2.83,0,0,1,1.94.57,1.86,1.86,0,0,1,.61,1.45,2,2,0,0,1-.54,1.47,2.83,2.83,0,0,1-2.11.76,3.23,3.23,0,0,1-.72-.06v2.77h-.89Zm.89,3.33a3.09,3.09,0,0,0,.74.07c1.08,0,1.74-.52,1.74-1.47s-.65-1.36-1.64-1.36a3.25,3.25,0,0,0-.84.08Z"/><polyline class="cls-2" points="11.74 0.71 51.97 97.82 60.53 118.47 64.24 127.43 67.19 134.54"/><polyline class="cls-3" points="11.74 0.71 51.97 97.82 60.53 118.47 64.24 127.43 67.19 134.54"/><polyline class="cls-2" points="84.51 118.47 81.54 111.31 76.06 98.11 63.83 68.67 63.83 68.66 35.63 0.7"/><polyline class="cls-3" points="84.51 118.47 81.54 111.31 76.06 98.11 63.83 68.67 63.83 68.66 35.63 0.7"/><polyline class="cls-2" points="115.31 0.71 76.06 98.11 67.85 118.47 64.24 127.43 61.37 134.54"/><polyline class="cls-3" points="115.31 0.71 76.06 98.11 67.85 118.47 64.24 127.43 61.37 134.54"/><polyline class="cls-2" points="43.57 118.47 51.97 97.82 63.83 68.67 63.83 68.66 91.49 0.7"/><polyline class="cls-3" points="43.57 118.47 51.97 97.82 63.83 68.67 63.83 68.66 91.49 0.7"/><polygon class="cls-2" points="109.54 8.18 75.95 91.99 66.35 68.79 91.1 8.22 109.54 8.18"/><line class="cls-2" x1="90.17" y1="5.81" x2="118.48" y2="5.81"/><line class="cls-4" x1="90.17" y1="5.81" x2="118.48" y2="5.81"/><line class="cls-2" x1="41.14" y1="101.24" x2="63.15" y2="47.93"/><line class="cls-4" x1="41.14" y1="101.24" x2="63.15" y2="47.93"/></g></g></svg>