<svg xmlns="http://www.w3.org/2000/svg" viewBox="0 0 256.4 173.09"><defs><style>.cls-1{fill:#171c23;}.cls-2,.cls-4,.cls-5,.cls-6{fill:none;}.cls-3{fill:#98351d;}.cls-4,.cls-5{stroke:#171c23;}.cls-4,.cls-5,.cls-6{stroke-miterlimit:10;}.cls-4{stroke-width:0.84px;}.cls-5,.cls-6{stroke-width:0.84px;}.cls-6{stroke:#1e1e1c;}</style></defs><g id="Layer_2" data-name="Layer 2"><g id="Layer_2-2" data-name="Layer 2"><polygon class="cls-1" points="107.36 142.15 64.22 157.9 21.92 42.02 70.1 42.02 107.36 142.15"/><polygon class="cls-1" points="121.73 132.66 78.25 117.87 100.28 55.66 147.54 55.66 121.73 132.66"/><polygon class="cls-1" points="107.97 173.09 64.41 158.56 46.19 108.32 120.75 135.33 107.97 173.09"/><polygon class="cls-2" points="105.97 173 63.82 158.93 46.19 110.32 118.76 135.22 105.97 173"/><polygon class="cls-3" points="96.35 131.56 53.21 147.31 10.91 31.43 59.09 31.43 96.35 131.56"/><polygon class="cls-4" points="96.35 131.56 53.21 147.31 10.91 31.43 59.09 31.43 96.35 131.56"/><polygon class="cls-3" points="96.81 162.35 53.34 147.56 89.27 44.95 136.53 44.95 96.81 162.35"/><polygon class="cls-4" points="96.81 162.35 53.34 147.56 89.27 44.95 136.53 44.95 96.81 162.35"/><polygon class="cls-3" points="96.96 162.51 53.4 147.97 35.17 97.73 110.17 123.47 96.96 162.51"/><polygon class="cls-4" points="96.96 162.51 53.4 147.97 35.17 97.73 110.17 123.47 96.96 162.51"/><path class="cls-1" d="M145,135.83l-3.17,23.93h-9.45l-3.6-23.93h6.57q1.14,9.88,1.63,16.73.48-6.92,1-12.28l.43-4.45Z"/><path class="cls-1" d="M146,135.83h10.37v4.79h-4.15v4.54h3.89v4.55h-3.89V155h4.57v4.79H146Z"/><path class="cls-1" d="M158.62,135.83H163a33.26,33.26,0,0,1,6,.34,4.12,4.12,0,0,1,2.55,1.74,7.9,7.9,0,0,1,1,4.45,6.89,6.89,0,0,1-.7,3.76,3.64,3.64,0,0,1-2.73,1.15,4.63,4.63,0,0,1,2.48,1.23,3.51,3.51,0,0,1,.79,1.41,21.25,21.25,0,0,1,.16,3.54v6.31h-5.78v-7.95a5.52,5.52,0,0,0-.3-2.38c-.2-.31-.73-.46-1.59-.46v10.79h-6.22Zm6.22,4.09v5.33a2.75,2.75,0,0,0,1.47-.29c.28-.2.42-.82.42-1.87v-1.32a2,2,0,0,0-.41-1.49A2.27,2.27,0,0,0,164.84,139.92Z"/><path class="cls-1" d="M187.45,135.83v4.79h-3.69v19.14h-6.22V140.62h-3.69v-4.79Z"/><path class="cls-1" d="M195.1,135.83v23.93h-6.23V135.83Z"/><path class="cls-1" d="M212.12,146.25H205.9v-4.16a7.51,7.51,0,0,0-.2-2.26.86.86,0,0,0-.88-.45.91.91,0,0,0-1,.54,8.28,8.28,0,0,0-.21,2.37V153.4a7.62,7.62,0,0,0,.21,2.28.86.86,0,0,0,.93.53.88.88,0,0,0,.91-.53,8.92,8.92,0,0,0,.21-2.51v-3h6.22v.93a18.44,18.44,0,0,1-.52,5.27,5.35,5.35,0,0,1-2.32,2.72,8,8,0,0,1-4.43,1.17,9.18,9.18,0,0,1-4.51-1,4.83,4.83,0,0,1-2.35-2.74,18.18,18.18,0,0,1-.57-5.27v-7a33.06,33.06,0,0,1,.17-3.88,5.43,5.43,0,0,1,1.06-2.49,5.93,5.93,0,0,1,2.44-1.89,8.93,8.93,0,0,1,3.58-.68,8.74,8.74,0,0,1,4.54,1.06,5.09,5.09,0,0,1,2.35,2.65,16.08,16.08,0,0,1,.56,4.94Z"/><path class="cls-1" d="M225.11,135.83l3.56,23.93h-6.36l-.33-4.3h-2.23l-.37,4.3h-6.44l3.18-23.93Zm-3.3,15.39c-.31-2.71-.63-6.06-.94-10.06q-1,6.89-1.2,10.06Z"/><path class="cls-1" d="M236,135.83V155h3.78v4.79h-10V135.83Z"/><path class="cls-2" d="M138.42,135.83l-.43,4.45q-.54,5.37-1,12.28-.5-6.84-1.63-16.73h-6.57l3.6,23.93h9.45L145,135.83Z"/><polygon class="cls-2" points="146.04 159.76 156.83 159.76 156.83 154.97 152.26 154.97 152.26 149.71 156.15 149.71 156.15 145.16 152.26 145.16 152.26 140.62 156.41 140.62 156.41 135.83 146.04 135.83 146.04 159.76"/><path class="cls-2" d="M166.32,140.28a2,2,0,0,1,.41,1.49v1.32c0,1-.14,1.67-.42,1.87a2.77,2.77,0,0,1-1.47.28v-5.32A2.27,2.27,0,0,1,166.32,140.28Zm-7.7,19.48h6.22V149c.85,0,1.38.15,1.59.46a5.52,5.52,0,0,1,.3,2.38v7.95h5.78v-6.31a21.25,21.25,0,0,0-.16-3.54,3.51,3.51,0,0,0-.79-1.41,4.56,4.56,0,0,0-2.48-1.23,3.64,3.64,0,0,0,2.73-1.15,6.92,6.92,0,0,0,.7-3.76,7.9,7.9,0,0,0-1-4.45,4.12,4.12,0,0,0-2.55-1.74,33.26,33.26,0,0,0-6-.34h-4.4Z"/><polygon class="cls-2" points="173.85 135.83 173.85 140.62 177.53 140.62 177.53 159.76 183.76 159.76 183.76 140.62 187.45 140.62 187.45 135.83 173.85 135.83"/><rect class="cls-2" x="188.87" y="135.83" width="6.22" height="23.93"/><path class="cls-2" d="M212.12,144a15.77,15.77,0,0,0-.56-4.94,5.09,5.09,0,0,0-2.35-2.65,8.74,8.74,0,0,0-4.54-1.06,8.93,8.93,0,0,0-3.58.68,5.93,5.93,0,0,0-2.44,1.89,5.43,5.43,0,0,0-1.06,2.49,31,31,0,0,0-.17,3.88v7a18.18,18.18,0,0,0,.57,5.27,4.83,4.83,0,0,0,2.35,2.74,9.18,9.18,0,0,0,4.51,1,8,8,0,0,0,4.43-1.17,5.4,5.4,0,0,0,2.32-2.72,18.44,18.44,0,0,0,.52-5.27v-.93H205.9v3a8.92,8.92,0,0,1-.21,2.51.88.88,0,0,1-.91.53.86.86,0,0,1-.93-.53,7.62,7.62,0,0,1-.21-2.28V142.29a8.28,8.28,0,0,1,.21-2.37.91.91,0,0,1,1-.54.86.86,0,0,1,.88.45,7.51,7.51,0,0,1,.2,2.26v4.16h6.22Z"/><path class="cls-2" d="M219.67,151.22q.24-3.18,1.2-10.05c.31,4,.63,7.34.94,10.05Zm-3.55-15.39-3.18,23.93h6.44l.37-4.3H222l.33,4.3h6.36l-3.56-23.93Z"/><polygon class="cls-2" points="229.73 135.83 229.73 159.76 239.73 159.76 239.73 154.97 235.95 154.97 235.95 135.83 229.73 135.83"/><path class="cls-1" d="M242.91,136.34a7.44,7.44,0,0,1,1.48-.13,2.65,2.65,0,0,1,1.73.45,1.35,1.35,0,0,1,.52,1.11,1.49,1.49,0,0,1-1.06,1.38v0a1.63,1.63,0,0,1,1.29,1.58,1.69,1.69,0,0,1-.53,1.26,3.17,3.17,0,0,1-2.17.58,9.21,9.21,0,0,1-1.26-.07Zm.81,2.57h.74c.86,0,1.36-.45,1.36-1s-.56-1-1.38-1a3.29,3.29,0,0,0-.72.06Zm0,3a4,4,0,0,0,.68,0c.84,0,1.62-.31,1.62-1.22s-.74-1.21-1.63-1.21h-.67Z"/><path class="cls-1" d="M249.09,136.94h-1.92v-.69h4.66v.69h-1.92v5.6h-.82Z"/><path class="cls-1" d="M252.53,136.33a8.89,8.89,0,0,1,1.56-.12,2.55,2.55,0,0,1,1.76.52,1.71,1.71,0,0,1,.55,1.31,1.86,1.86,0,0,1-.49,1.35,3.13,3.13,0,0,1-2.57.63v2.52h-.81Zm.81,3a2.6,2.6,0,0,0,.67.06c1,0,1.58-.47,1.58-1.34s-.59-1.23-1.49-1.23a3.16,3.16,0,0,0-.76.07Z"/><line class="cls-5" x1="81.29" y1="44.59" x2="175.16" y2="44.59"/><line class="cls-5" x1="29.43" y1="139.79" x2="119.93" y2="169.49"/><line class="cls-5" x1="22.62" y1="92.86" x2="128.03" y2="128.99"/><line class="cls-5" x1="47.95" y1="0.14" x2="72.44" y2="67.47"/><line class="cls-5" x1="39.11" y1="108.28" x2="56.88" y2="157.14"/><line class="cls-6" y1="31.07" x2="63.26" y2="31.07"/></g></g></svg>