<svg xmlns="http://www.w3.org/2000/svg" viewBox="0 0 74.38 18.61"><defs><style>.cls-1{fill:#3f4243;}.cls-2,.cls-3{fill:#3f4343;}.cls-3{stroke:#3f4343;stroke-miterlimit:10;stroke-width:0.47px;}</style></defs><g id="Layer_2" data-name="Layer 2"><g id="Layer_2-2" data-name="Layer 2"><path class="cls-1" d="M27.75,0V18.61H46.63V0Zm17.38,17.1H29.25V1.52H45.13Z"/><path class="cls-1" d="M35.58,5.53l-.17.53-2.18,7.12h1.53l.27-.76h2.29l.24.76h1.53L36.94,6.06l-.17-.53Zm4,0V7.06h1.53V5.53Zm0,3.06v4.59h1.53V8.59Zm-3.44.12.69,2.18H35.48Z"/><path class="cls-1" d="M0,0V18.61H18.89V0Zm17.39,17.1H1.5V1.52H17.39Z"/><path class="cls-1" d="M8.92,6.15A3.24,3.24,0,0,0,6.74,5.5c-1,0-2.17,0-2.17,0v7.62H6.16V10.7h.58A3.1,3.1,0,0,0,9,9.75,2.51,2.51,0,0,0,9.68,8,2.37,2.37,0,0,0,8.92,6.15ZM6.7,9.35H6.16V6.72a6.47,6.47,0,0,1,.67,0A1.23,1.23,0,0,1,8.08,8,1.27,1.27,0,0,1,6.7,9.35Z"/><path class="cls-1" d="M12.8,9.55c-.69-.25-.91-.39-.91-.66s.24-.46.66-.46A3.87,3.87,0,0,1,14,8.88V7.6a3.26,3.26,0,0,0-1.52-.39c-1.39,0-2.29.8-2.29,1.87,0,.66.44,1.14,1.6,1.53.65.22.82.53.82.82s-.21.48-.74.48a3.77,3.77,0,0,1-1.6-.5h0v1.27a3.89,3.89,0,0,0,1.6.47c1.62,0,2.43-.79,2.43-1.85,0-.84-.46-1.38-1.52-1.75Z"/><path class="cls-2" d="M55.49,18.57H74.38V0H55.49ZM72.88,17.1H57V1.48H72.88Z"/><path class="cls-3" d="M68.53,8.54a.86.86,0,0,0-.38-.07c-.83,0-1.38.63-1.38,1.69s.57,1.68,1.3,1.68a1.25,1.25,0,0,0,.45-.07V8.54ZM65.6,10.21A2.53,2.53,0,0,1,68.19,7.5h.34V5.76h1.18s0,6.7,0,6.72a3.69,3.69,0,0,1-1.67.33A2.29,2.29,0,0,1,65.6,10.21ZM63.37,9.15l1.79,3.66H64S63,11,62.6,10h0c-.39.88-1.36,2.78-1.36,2.78H60.15L61.9,9.26l-1.69-3.5h1.13l1.34,2.65h0L64,5.76h1.06Z"/></g></g></svg>